<!-- icon666.com - MILLIONS vector ICONS FREE --><svg id="icons" viewBox="0 0 60 60" xmlns="http://www.w3.org/2000/svg"><path d="m8.418 59.47a.5.5 0 0 1 -.26-.927l14.642-8.927-16.947 9.784a.5.5 0 0 1 -.514-.857l26.126-16.189-28.765 16.608a.5.5 0 0 1 -.51-.86l17.035-10.334-17.554 10.132a.5.5 0 0 1 -.508-.861l7.815-4.693-7.678 4.432a.5.5 0 0 1 -.5-.861l6.77-4.063-6.29 3.63a.5.5 0 0 1 -.507-.861l1.137-.68-.63.364a.5.5 0 0 1 -.507-.862l5.884-3.528-5.377 3.1a.5.5 0 0 1 -.511-.858l26.021-15.959-25.51 14.726a.5.5 0 0 1 -.509-.861l13.916-8.4-13.407 7.741a.5.5 0 0 1 -.509-.859l21.929-13.361-21.42 12.363a.5.5 0 0 1 -.508-.861l11.149-6.711-10.641 6.142a.5.5 0 0 1 -.508-.86l13.049-7.87-12.541 7.24a.5.5 0 0 1 -.507-.861l4.378-2.623-3.871 2.235a.5.5 0 0 1 -.508-.861l10.6-6.377-10.092 5.825a.5.5 0 0 1 -.509-.861l16.549-10.016-16.04 9.261a.5.5 0 0 1 -.51-.86l23.151-14.135-22.641 13.072a.5.5 0 0 1 -.509-.86l20.429-12.428-19.92 11.501a.5.5 0 0 1 -.508-.862l8-4.805-7.492 4.326a.5.5 0 0 1 -.51-.86l20.15-12.295-19.64 11.338a.5.5 0 0 1 -.509-.86l11.618-7.032-11.109 6.409a.5.5 0 0 1 -.513-.858l23.248-14.455-22.735 13.125a.5.5 0 0 1 -.513-.858l18.533-11.483-18.02 10.4a.5.5 0 0 1 -.509-.859l7.406-4.512-6.9 3.982a.5.5 0 0 1 -.509-.861l2.045-1.241-1.536.887a.5.5 0 0 1 -.509-.86l2.614-1.592-2.1 1.214a.5.5 0 0 1 -.511-.858l5.312-3.263-4.8 2.772a.5.5 0 0 1 -.513-.858l6.65-4.122-6.14 3.544a.5.5 0 0 1 -.519-.853l12.331-7.885-11.812 6.819a.5.5 0 0 1 -.519-.853l9.464-6.057-8.945 5.164a.5.5 0 0 1 -.52-.852l7.8-5.025-7.28 4.198a.5.5 0 0 1 -.519-.853l4.184-2.677-3.665 2.115a.5.5 0 0 1 -.526-.848l6.375-4.237-5.849 3.375a.5.5 0 0 1 -.543-.837l7.743-5.6-7.2 4.162a.5.5 0 0 1 -.55-.833l5.35-4.01-4.8 2.771a.5.5 0 0 1 -.546-.835l2.2-1.616-1.654.952a.5.5 0 0 1 -.58-.812l2.313-1.986-1.733 1a.5.5 0 0 1 -.655-.726l1.265-1.751-.026.015a.5.5 0 0 1 -.5-.865l2.05-1.184a.5.5 0 0 1 .655.726l-1.269 1.754 4.335-2.5a.5.5 0 0 1 .576.811l-2.311 1.983 4.847-2.794a.5.5 0 0 1 .546.835l-2.193 1.615 4.244-2.45a.5.5 0 0 1 .55.833l-5.35 4.004 8.381-4.837a.5.5 0 0 1 .543.838l-7.742 5.6 11.148-6.438a.5.5 0 0 1 .526.848l-6.376 4.237 8.812-5.085a.5.5 0 0 1 .519.853l-4.19 2.683 6.126-3.536a.5.5 0 0 1 .521.852l-7.792 5.02 10.174-5.872a.5.5 0 0 1 .52.853l-9.465 6.055 11.97-6.908a.5.5 0 0 1 .519.853l-12.329 7.881 15.133-8.734a.5.5 0 0 1 .514.857l-6.665 4.125 8.633-4.982a.5.5 0 0 1 .512.858l-5.3 3.257 7.125-4.115a.5.5 0 0 1 .51.859l-2.638 1.605 4.273-2.464a.5.5 0 0 1 .51.86l-2.034 1.231 3.627-2.091a.5.5 0 0 1 .51.859l-7.407 4.513 9.309-5.372a.5.5 0 0 1 .514.857l-18.535 11.483 21.383-12.34a.5.5 0 0 1 .513.857l-23.244 14.455 26.528-15.312a.5.5 0 0 1 .508.86l-11.598 7.019 13.594-7.848a.5.5 0 0 1 .51.859l-20.145 12.291 21.31-12.3a.5.5 0 0 1 .508.861l-7.989 4.8 8.122-4.692a.5.5 0 0 1 .51.86l-20.428 12.427 20.138-11.627a.5.5 0 0 1 .51.86l-23.151 14.13 22.641-13.067a.5.5 0 0 1 .509.861l-16.575 10.031 16.066-9.275a.5.5 0 0 1 .508.862l-10.566 6.357 10.058-5.806a.5.5 0 0 1 .507.861l-4.421 2.647 3.914-2.258a.5.5 0 0 1 .508.86l-13.049 7.87 12.541-7.243a.5.5 0 0 1 .508.861l-11.149 6.714 10.641-6.143a.5.5 0 0 1 .509.86l-21.9 13.349 21.4-12.352a.5.5 0 0 1 .509.86l-13.954 8.417 13.436-7.757a.5.5 0 0 1 .511.859l-26.006 15.956 25.495-14.724a.5.5 0 0 1 .507.861l-5.927 3.557 5.42-3.128a.5.5 0 0 1 .507.862l-1.089.651.582-.336a.5.5 0 0 1 .507.861l-6.776 4.066 6.269-3.619a.5.5 0 0 1 .508.861l-7.848 4.713 7.34-4.237a.5.5 0 0 1 .509.86l-17.029 10.328 16.52-9.536a.5.5 0 0 1 .513.857l-26.133 16.193 25.62-14.788a.5.5 0 0 1 .509.859l-14.657 8.934 14.148-8.167a.5.5 0 0 1 .513.857l-19.733 12.224 19.22-11.095a.5.5 0 0 1 .509.86l-2.708 1.637 2.2-1.269a.5.5 0 0 1 .517.856l-20.448 12.953 19.93-11.506a.5.5 0 0 1 .515.857l-13.869 8.674 13.354-7.709a.5.5 0 0 1 .513.858l-8.256 5.12 7.743-4.469a.5.5 0 0 1 .515.857l-9.254 5.8 8.739-5.045a.5.5 0 0 1 .516.856l-7.949 5.012 7.433-4.291a.5.5 0 0 1 .518.854l-7.372 4.692 6.854-3.958a.5.5 0 0 1 .52.854l-6.673 4.292 6.153-3.552a.5.5 0 0 1 .527.849l-8.184 5.467 7.657-4.42a.5.5 0 0 1 .525.849l-4.5 2.977 3.975-2.293a.5.5 0 0 1 .541.839l-6.374 4.561 5.833-3.37a.5.5 0 0 1 .555.828l-5.1 3.933 4.544-2.623a.5.5 0 0 1 .544.837l-1.1.8.553-.319a.5.5 0 0 1 .557.828l-.8.625.245-.141a.5.5 0 0 1 .624.764l-1.274 1.438.394-.227a.5.5 0 1 1 .5.866l-3.056 1.761a.5.5 0 0 1 -.624-.763l1.275-1.44-3.818 2.2a.5.5 0 0 1 -.557-.827l.8-.625-2.514 1.455a.5.5 0 0 1 -.544-.837l1.094-.795-2.83 1.632a.5.5 0 0 1 -.555-.828l5.1-3.933-8.248 4.761a.5.5 0 0 1 -.541-.839l6.374-4.558-9.349 5.4a.5.5 0 0 1 -.526-.849l4.506-2.98-6.634 3.826a.5.5 0 0 1 -.527-.848l8.176-5.462-10.93 6.31a.5.5 0 0 1 -.52-.853l6.674-4.293-8.915 5.146a.5.5 0 0 1 -.518-.854l7.372-4.692-9.606 5.546a.5.5 0 0 1 -.516-.855l7.953-5.014-10.167 5.869a.5.5 0 0 1 -.516-.856l9.255-5.8-11.537 6.656a.5.5 0 0 1 -.514-.857l8.245-5.112-10.341 5.969a.5.5 0 0 1 -.516-.856l13.884-8.685-16.526 9.541a.5.5 0 0 1 -.678-.173.5.5 0 0 1 .16-.682l20.445-12.945-23.916 13.8a.5.5 0 0 1 -.508-.86l2.708-1.64-4.328 2.5a.5.5 0 0 1 -.513-.857l19.731-12.222-22.658 13.079a.5.5 0 0 1 -.25.07z" fill="#c0dadc"></path><path d="m4.729 24.47a.5.5 0 0 1 -.387-.818l.4-.483-2.012 1.159a.5.5 0 0 1 -.633-.754l1.335-1.594-2.015 1.164a.5.5 0 0 1 -.665-.712l.64-.95a.5.5 0 0 1 -.327-.926l1.657-.956a.5.5 0 0 1 .615.091.5.5 0 0 1 .05.621l-.6.884 2.591-1.5a.5.5 0 0 1 .634.754l-1.332 1.598 1.934-1.116a.5.5 0 0 1 .631.109.5.5 0 0 1 .006.641l-.483.589a.485.485 0 0 1 .472.249.5.5 0 0 1 -.182.682l-2.079 1.198a.5.5 0 0 1 -.25.07z" fill="#86a9af"></path><path d="m3.026 16.47a.5.5 0 0 1 -.383-.821l1.223-1.465-2.266 1.309a.5.5 0 0 1 -.691-.669l.8-1.481-.136.078a.5.5 0 0 1 -.5-.865l1.649-.956a.494.494 0 0 1 .6.073.5.5 0 0 1 .093.6l-.798 1.477 3.188-1.84a.5.5 0 0 1 .633.753l-1.224 1.467 1.486-.856a.5.5 0 1 1 .5.866l-3.924 2.26a.49.49 0 0 1 -.25.07z" fill="#86a9af"></path><path d="m5.029 32.468a.5.5 0 0 1 -.431-.753l.745-1.269-3 1.734a.5.5 0 0 1 -.643-.742l1.319-1.67-1.71.986a.5.5 0 0 1 -.637-.754l.459-.547a.489.489 0 0 1 -.248-.215.5.5 0 0 1 .182-.682l1.657-.956a.5.5 0 0 1 .633.754l-.1.123 1.52-.877a.5.5 0 0 1 .643.742l-1.318 1.668 2.384-1.376a.5.5 0 0 1 .682.685l-.746 1.268.014-.008a.5.5 0 0 1 .5.865l-1.655.956a.49.49 0 0 1 -.25.068z" fill="#86a9af"></path><path d="m57.029 24.468a.5.5 0 0 1 -.427-.758l.723-1.2-2.933 1.69a.5.5 0 0 1 -.621-.769l1.182-1.3-1.575.909a.5.5 0 0 1 -.657-.724l.6-.833a.5.5 0 0 1 -.25-.932l1.657-.956a.5.5 0 0 1 .657.723l-.5.7 2.359-1.361a.5.5 0 0 1 .62.77l-1.18 1.3 1.83-1.056a.5.5 0 0 1 .678.69l-.724 1.2a.5.5 0 0 1 .475.88l-1.655.956a.49.49 0 0 1 -.259.071z" fill="#86a9af"></path><path d="m57.029 16.468a.5.5 0 0 1 -.4-.8l.339-.44-2.001 1.152a.5.5 0 0 1 -.623-.1.5.5 0 0 1 -.029-.631l1.406-1.889-2.321 1.34a.5.5 0 0 1 -.661-.717l.619-.9a.513.513 0 0 1 -.474-.248.5.5 0 0 1 .182-.682l1.657-.956a.5.5 0 0 1 .661.716l-.557.8 2.49-1.437a.5.5 0 0 1 .652.731l-1.406 1.89 2.094-1.197a.5.5 0 0 1 .626.1.5.5 0 0 1 .021.634l-.53.688a.5.5 0 0 1 .16.923l-1.655.956a.49.49 0 0 1 -.25.067z" fill="#86a9af"></path><path d="m55.731 32.47a.5.5 0 0 1 -.419-.774l1.211-1.853-2.909 1.679a.5.5 0 0 1 -.692-.665l.8-1.528-.16.092a.5.5 0 0 1 -.5-.865l1.657-.956a.5.5 0 0 1 .692.665l-.8 1.527 3.226-1.862a.5.5 0 0 1 .669.706l-1.206 1.854 1.417-.817a.5.5 0 1 1 .5.865l-3.236 1.862a.49.49 0 0 1 -.25.07z" fill="#86a9af"></path><path d="m16.119 38.47a.5.5 0 0 1 -.261-.927l3.8-2.325-5.518 3.182a.5.5 0 0 1 -.519-.854l19.386-12.326-22.834 13.18a.5.5 0 0 1 -.517-.855l21.256-13.4-23.263 13.434a.5.5 0 0 1 -.511-.858l14.862-9.139-14.72 8.497a.5.5 0 0 1 -.514-.856l21.287-13.3-20.773 11.996a.5.5 0 0 1 -.51-.859l11.18-6.841-10.67 6.16a.5.5 0 0 1 -.509-.86l3.262-1.979-2.753 1.589a.5.5 0 0 1 -.517-.856l18.273-11.573-17.756 10.255a.5.5 0 0 1 -.517-.855l14.813-9.377-14.296 8.253a.5.5 0 0 1 -.518-.855l12.507-7.951-11.989 6.921a.5.5 0 0 1 -.518-.855l9.819-6.253-9.3 5.371a.5.5 0 0 1 -.52-.853l9.065-5.845-8.546 4.933a.5.5 0 0 1 -.526-.85l9.436-6.262-8.91 5.143a.5.5 0 0 1 -.521-.852l3.993-2.588-3.472 2a.5.5 0 0 1 -.539-.841l7.7-5.444-7.161 4.137a.5.5 0 0 1 -.526-.849l1.07-.71-.544.313a.5.5 0 0 1 -.539-.84l3.04-2.159-2.501 1.443a.5.5 0 0 1 -.559-.825l3.112-2.448-2.553 1.474a.5.5 0 0 1 -.574-.813l1.674-1.43-1.1.635a.5.5 0 0 1 -.68-.682l1-1.741-.039.022a.5.5 0 0 1 -.5-.865l1.661-.957a.492.492 0 0 1 .6.079.5.5 0 0 1 .079.6l-1.001 1.744 4.2-2.423a.5.5 0 0 1 .574.812l-1.674 1.428 3.885-2.24a.5.5 0 0 1 .559.825l-3.112 2.446 5.668-3.271a.5.5 0 0 1 .539.84l-3.039 2.16 5.2-3a.5.5 0 0 1 .527.849l-1.07.709 2.7-1.558a.5.5 0 0 1 .54.84l-7.7 5.444 10.885-6.284a.5.5 0 0 1 .522.852l-3.995 2.586 5.961-3.438a.5.5 0 0 1 .527.849l-9.43 6.258 12.312-7.107a.5.5 0 0 1 .52.852l-9.066 5.848 11.6-6.7a.5.5 0 0 1 .519.854l-9.825 6.255 12.318-7.109a.5.5 0 0 1 .518.854l-12.513 7.953 15.261-8.807a.5.5 0 0 1 .517.855l-14.813 9.375 17.724-10.23a.5.5 0 0 1 .518.855l-18.271 11.565 21.514-12.42a.5.5 0 0 1 .51.86l-3.25 1.971 4.679-2.7a.5.5 0 0 1 .511.859l-11.167 6.832 11.717-6.764a.5.5 0 0 1 .515.857l-21.287 13.3 20.992-12.125a.5.5 0 0 1 .511.859l-14.855 9.136 14.344-8.285a.5.5 0 0 1 .516.856l-21.265 13.408 20.749-11.979a.5.5 0 0 1 .518.854l-19.384 12.327 18.866-10.891a.5.5 0 0 1 .51.859l-3.795 2.324 3.285-1.9a.5.5 0 0 1 .521.852l-16.356 10.59 15.835-9.141a.5.5 0 0 1 .524.85l-14.422 9.478 13.9-8.024a.5.5 0 0 1 .516.856l-4.545 2.863 4.029-2.325a.5.5 0 0 1 .528.847l-10.521 7.067 9.991-5.771a.5.5 0 0 1 .528.848l-7.162 4.8 6.634-3.828a.5.5 0 0 1 .54.84l-7.407 5.287 6.867-3.965a.5.5 0 0 1 .535.843l-3.41 2.375 2.875-1.659a.5.5 0 0 1 .544.836l-2.794 2.032 2.25-1.3a.5.5 0 0 1 .56.824l-2.26 1.791 1.7-.981a.5.5 0 0 1 .608.781l-1.757 1.8 1.149-.663a.5.5 0 0 1 .643.742l-.565.72a.5.5 0 0 1 .136.919l-1.655.956a.5.5 0 0 1 -.643-.741l.343-.436-2.044 1.179a.5.5 0 0 1 -.609-.781l1.756-1.8-4.473 2.581a.5.5 0 0 1 -.56-.824l2.259-1.789-4.528 2.613a.5.5 0 0 1 -.544-.837l2.8-2.036-4.98 2.873a.5.5 0 0 1 -.535-.842l3.4-2.368-5.56 3.21a.5.5 0 0 1 -.54-.839l7.41-5.29-10.614 6.129a.5.5 0 0 1 -.528-.847l7.16-4.8-9.779 5.647a.5.5 0 0 1 -.529-.847l10.522-7.068-13.71 7.915a.5.5 0 0 1 -.517-.855l4.539-2.859-6.435 3.714a.5.5 0 0 1 -.525-.85l14.42-9.477-17.886 10.327a.5.5 0 0 1 -.522-.852l16.361-10.588-19.819 11.44a.5.5 0 0 1 -.25.07z" fill="#3b7ac8"></path><path d="m20.82 46.47a.5.5 0 0 1 -.426-.761l1.035-1.692-3.777 2.183a.5.5 0 0 1 -.585-.8l.613-.552-.4.23a.5.5 0 0 1 -.7-.643l.57-1.235a.485.485 0 0 1 -.5-.245.5.5 0 0 1 .183-.682l1.161-.67a.5.5 0 0 1 .7.643l-.546 1.173 3.152-1.819a.5.5 0 0 1 .585.8l-.612.551 1.359-.784a.5.5 0 0 1 .677.693l-1.036 1.693.448-.258a.5.5 0 0 1 .5.865l-2.151 1.24a.49.49 0 0 1 -.25.07z" fill="#86a9af"></path><path d="m28.765 46.47a.5.5 0 0 1 -.4-.8l1.483-2.024-2.568 1.484a.5.5 0 0 1 -.705-.64l.59-1.3a.5.5 0 0 1 -.332-.925l1.161-.67a.5.5 0 0 1 .705.639l-.567 1.247 3.268-1.881a.5.5 0 0 1 .654.728l-1.483 2.022 2.149-1.241a.5.5 0 0 1 .684.681l-.511.894a.5.5 0 0 1 .307.93l-1.368.789a.5.5 0 0 1 -.685-.681l.47-.822-2.6 1.5a.49.49 0 0 1 -.252.07z" fill="#86a9af"></path><path d="m40.175 46.47a.5.5 0 0 1 -.387-.818l.977-1.187-3.058 1.765a.5.5 0 0 1 -.587-.8l.716-.653-.556.321a.5.5 0 0 1 -.7-.642l.581-1.26a.508.508 0 0 1 -.507-.245.5.5 0 0 1 .183-.682l1.161-.67a.5.5 0 0 1 .7.641l-.555 1.205 3.2-1.846a.5.5 0 0 1 .587.8l-.713.65 1.433-.827a.5.5 0 0 1 .637.75l-.977 1.188.41-.236a.5.5 0 0 1 .5.865l-2.8 1.613a.49.49 0 0 1 -.245.068z" fill="#86a9af"></path><path d="m19.013 54.47a.5.5 0 0 1 -.332-.874l.159-.142-1.225.707a.5.5 0 0 1 -.58-.808l.4-.349-.154.088a.5.5 0 0 1 -.7-.643l.579-1.254a.51.51 0 0 1 -.505-.245.5.5 0 0 1 .183-.682l1.161-.67a.5.5 0 0 1 .7.642l-.553 1.2 3.189-1.84a.5.5 0 0 1 .58.808l-.4.349 1.1-.632a.5.5 0 0 1 .582.807l-.294.26a.507.507 0 0 1 .452.171.5.5 0 0 1 .006.64l-.326.4a.5.5 0 0 1 .189.929l-1.859 1.068a.5.5 0 0 1 -.637-.748l.147-.182-1.612.93a.493.493 0 0 1 -.25.07z" fill="#86a9af"></path><path d="m30.314 54.47a.5.5 0 0 1 -.387-.817l.9-1.1-3.02 1.743a.5.5 0 0 1 -.6-.785l1.154-1.158-1.076.621a.5.5 0 0 1 -.7-.651l.543-1.123a.483.483 0 0 1 -.473-.248.5.5 0 0 1 .183-.682l1.161-.67a.5.5 0 0 1 .7.65l-.506 1.045 2.938-1.7a.5.5 0 0 1 .6.785l-1.154 1.16 2.11-1.218a.5.5 0 0 1 .637.749l-.9 1.1.3-.17a.5.5 0 0 1 .5.865l-2.66 1.534a.49.49 0 0 1 -.25.07z" fill="#86a9af"></path><path d="m41.11 54.47a.5.5 0 0 1 -.436-.743l.932-1.677-3.841 2.217a.5.5 0 0 1 -.62-.769l1.3-1.435-1.167.673a.494.494 0 0 1 -.6-.073.5.5 0 0 1 -.094-.595l.464-.869a.5.5 0 0 1 -.22-.931l1.161-.67a.5.5 0 0 1 .6.073.5.5 0 0 1 .094.595l-.383.734 2.424-1.4a.5.5 0 0 1 .62.768l-1.3 1.436 2.636-1.522a.5.5 0 0 1 .686.676l-.932 1.677.294-.169a.5.5 0 0 1 .5.865l-1.868 1.069a.49.49 0 0 1 -.25.07z" fill="#86a9af"></path><g fill="#262626"><path d="m.276 45.4c.36 4.129-.794 8.657.578 12.566a3.735 3.735 0 0 0 3.323 1.34h49.823c4.227.474 6.334-1.921 5.72-6.074q0-19.635 0-39.27c-.566-4.735 2.615-14.49-5.273-13.268q-24.816.006-49.631 0c-7.308-.148-3.748 9.506-4.541 14.087q.002 15.31.001 30.619zm1.956-32.7c.209-.281.731-.205 1.029-.219a3.332 3.332 0 0 1 2.486.407 1.6 1.6 0 0 1 -.218 2.512 2.768 2.768 0 0 1 -1.337.19 4.209 4.209 0 0 1 -1.369-.262 1.438 1.438 0 0 1 -1.056-1.762 2.872 2.872 0 0 1 .465-.866zm1.128 3.772a5.743 5.743 0 0 0 2.915-.384v3.748a8.457 8.457 0 0 0 -4.579.253c-.014-1.286-.025-2.572-.04-3.86a4.008 4.008 0 0 0 1.704.243zm4.365-8.42c.105-1.952 1.475-1.639 2.853-1.639 13.3.118 26.622-.2 39.908 0 2.039.127 1.789 2.021 1.789 3.482v12.073c-.46 2.434 1.17 15.885-1.132 15.619-13.95-.018-27.923.026-41.86 0-2.864-.763-1.137-5.438-1.559-7.619.038-7.304-.058-14.616.001-21.916zm46.075 5.279a1.285 1.285 0 0 1 1.612-.99c2.018-.506 3.956 1.576 2.207 3.211.012-.008-.189.128-.1.071-.115.076.03.019-.108.038-1.532.186-4.125.011-3.611-2.33zm4.479 14.406a7.344 7.344 0 0 0 -4.551.128c0-1.2 0-2.392 0-3.589a7.343 7.343 0 0 0 4.549-.149zm-.7 3.659c.115-.067-.232.095-.073.036a9.03 9.03 0 0 1 -2.789-.027c-.557-.108-.917-.853-.971-1.351-.07-.641.309-1.455.936-1.538.715-.052 1.439 0 2.158-.015a1.605 1.605 0 0 1 .74 2.899zm-3.067-2.837c.033-.018.023-.011 0 0zm-.775-6.8a1.338 1.338 0 0 1 .946-1.235c.716-.052 1.44 0 2.158-.015a1.6 1.6 0 0 1 .737 2.887c.115-.067-.233.095-.073.035-1.394.177-3.892.402-3.767-1.676zm.776-1.191c.034-.018.023-.011 0 0zm3.466-.956a8.241 8.241 0 0 0 -4.232.24q.014-1.828.025-3.656a8 8 0 0 0 4.5-.271v3.813a2.481 2.481 0 0 0 -.292-.13zm-52.367 11.928a8.4 8.4 0 0 1 -2.28.1c-1.69-.029-2.1-2.6-.841-3.25 1.018-.012 2.331-.317 3.191.405a1.822 1.822 0 0 1 -.07 2.745zm.53-3.78a8.882 8.882 0 0 0 -4.418.273c0-1.29 0-2.579 0-3.869a8.052 8.052 0 0 0 4.551-.264v3.917c-.045-.017-.086-.043-.133-.057zm-3.593-7.434c.019-.007.044-.025.006 0 .711-.013 1.419 0 2.13 0 1.42.018 2.318 2.535.75 3.36a11.648 11.648 0 0 1 -2.55-.106 1.865 1.865 0 0 1 -.378-3.23c-.014.01.018-.005.043-.018zm2.907 3.354h-.009c.037-.011.059-.006.009 0zm50.864 35.014c-17.544-.132-35.172.254-52.675-.135-2.566-.839-1.921-4.592-1.921-6.675v-19.7a7.842 7.842 0 0 0 4.551-.249c-.553 7.268.976 6.581 7.4 6.477h37.044c3.478.016 3.085-3.659 3.006-6.141a7.35 7.35 0 0 0 4.551-.15v23.232c0 1.347-.16 3.236-1.956 3.341zm-54.596-54.761c.116-3.21 2.924-2.627 5.123-2.627h40.933c11.259-.361 10.708-.6 10.5 10.52a8.585 8.585 0 0 0 -4.5.2c-.053-2.823.695-6.843-3.4-6.435h-26.98c-4.4.562-13.58-1.474-16.689 1.209-.84 1.5-.281 3.314-.436 4.955a7.271 7.271 0 0 0 -4.647.2c-.011-2.68 0-5.355.096-8.022z"></path><path d="m2.553 20.327c-.052.032.066 0 0 0z"></path><path d=""></path><path d="m22.623 41.685c-1.858.276-6-1.038-6.348 1.6-.836 4.262 3.009 2.879 5.756 3 .931-.1 1.842-.765 1.693-1.773-.005-1.031.333-2.66-1.101-2.827zm-4.135 3.983c-1.118.072-.881-2.7-.57-3.337 3.211.133 5.162-1.019 4.189 3.337z"></path><path d="m32.809 41.685c-1.858.276-6-1.038-6.348 1.6-.836 4.262 3.009 2.879 5.755 3 .932-.1 1.843-.765 1.694-1.773-.005-1.031.333-2.66-1.101-2.827zm-4.135 3.983c-1.118.072-.881-2.7-.57-3.337 3.211.133 5.162-1.019 4.188 3.337z"></path><path d="m43 41.685c-1.858.276-6-1.038-6.348 1.6-.836 4.262 3.008 2.879 5.755 3 .931-.1 1.843-.765 1.694-1.773-.01-1.031.328-2.66-1.101-2.827zm-4.14 3.983c-1.118.072-.881-2.7-.57-3.337 3.211.133 5.161-1.019 4.188 3.337z"></path><path d="m22.623 49.618c-1.858.276-6-1.038-6.348 1.6-.836 4.262 3.009 2.88 5.756 3 .931-.1 1.842-.765 1.693-1.774-.005-1.03.333-2.659-1.101-2.826zm-4.135 3.982c-1.118.072-.881-2.7-.57-3.337 3.211.133 5.162-1.019 4.189 3.337z"></path><path d="m32.809 49.618c-1.858.276-6-1.038-6.348 1.6-.836 4.262 3.009 2.88 5.755 3 .932-.1 1.843-.765 1.694-1.774-.005-1.03.333-2.659-1.101-2.826zm-4.135 3.982c-1.118.072-.881-2.7-.57-3.337 3.211.133 5.162-1.019 4.188 3.337z"></path><path d="m43 49.618c-1.858.276-6-1.038-6.348 1.6-.836 4.262 3.008 2.88 5.755 3 .931-.1 1.843-.765 1.694-1.774-.01-1.03.328-2.659-1.101-2.826zm-4.14 3.982c-1.118.072-.881-2.7-.57-3.337 3.211.133 5.161-1.019 4.188 3.337z"></path><path d="m16.671 28.108c-3.815-.277 1.26 2.567 2.605 2.309v1.777c0 .246 1.448.038 1.448-.388v-1.468c5.133-.79 5.321-8.151 0-8.717v-7.073a5.065 5.065 0 0 1 2.605 1.344c3.815.277-1.26-2.567-2.605-2.309v-1.777c0-.246-1.448-.038-1.448.388v1.468c-5.133.79-5.321 8.151 0 8.717v7.073a5.065 5.065 0 0 1 -2.605-1.344zm6.154-.21a2.99 2.99 0 0 1 -2.1 1.559v-6.829a3.724 3.724 0 0 1 2.1 5.272zm-5.65-11.8a2.99 2.99 0 0 1 2.1-1.559v6.829a3.724 3.724 0 0 1 -2.1-5.268z"></path><path d="m36.666 28.09c-.44-.432-1.813.148-1.332.62a6.508 6.508 0 0 0 3.942 1.767v1.717c0 .268 1.448.053 1.448-.388v-1.395c5.1-.639 5.283-8.441 0-8.837v-6.974a4.953 4.953 0 0 1 2.61 1.309c.44.432 1.813-.148 1.332-.62a6.515 6.515 0 0 0 -3.942-1.768v-1.715c0-.268-1.448-.053-1.448.388v1.395c-5.1.639-5.284 8.441 0 8.837v6.974a4.953 4.953 0 0 1 -2.61-1.31zm6.149-.228a3 3 0 0 1 -2.091 1.529v-6.742a3.666 3.666 0 0 1 2.091 5.213zm-5.63-11.724a3 3 0 0 1 2.091-1.529v6.742a3.666 3.666 0 0 1 -2.091-5.213z"></path></g></svg>