<!-- icon666.com - MILLIONS vector ICONS FREE --><svg id="Icons" viewBox="0 0 60 60" xmlns="http://www.w3.org/2000/svg"><path d="m10.764 51.5a.5.5 0 0 1 -.268-.923l20.091-12.7-22.307 12.88a.5.5 0 0 1 -.509-.86l7.28-4.432-6.771 3.908a.5.5 0 0 1 -.514-.856l19.591-12.242-19.077 11.015a.5.5 0 0 1 -.516-.855l21.547-13.55-21.031 12.14a.5.5 0 0 1 -.509-.86l4.223-2.565-3.714 2.148a.5.5 0 0 1 -.51-.859l10.4-6.366-9.89 5.712a.5.5 0 0 1 -.509-.859l7.839-4.776-7.33 4.23a.5.5 0 0 1 -.509-.859l6.673-4.061-6.164 3.559a.5.5 0 0 1 -.514-.858l16.434-10.236-15.92 9.191a.5.5 0 0 1 -.516-.855l16.514-10.411-16 9.236a.5.5 0 0 1 -.518-.854l14.945-9.5-14.425 8.33a.5.5 0 0 1 -.517-.855l11.607-7.372-11.09 6.4a.5.5 0 0 1 -.512-.858l1.42-.88-.908.525a.5.5 0 0 1 -.518-.855l7.487-4.772-6.969 4.026a.5.5 0 0 1 -.53-.847l11.305-7.667-10.775 6.221a.5.5 0 0 1 -.521-.852l3.483-2.25-2.962 1.71a.5.5 0 0 1 -.531-.847l5.91-4.01-5.379 3.105a.5.5 0 0 1 -.528-.848l2.4-1.608-1.872 1.081a.5.5 0 0 1 -.534-.844l2.307-1.595-1.773 1.024a.5.5 0 0 1 -.551-.831l3.111-2.359-2.56 1.478a.5.5 0 0 1 -.583-.806l2.51-2.242-1.927 1.116a.5.5 0 0 1 -.624-.765l1.091-1.235-.467.27a.5.5 0 0 1 -.555-.038.5.5 0 0 1 -.176-.528l.259-.938a.5.5 0 0 1 -.028-.881l.5-.289a.5.5 0 0 1 .732.565l-.174.633 2.077-1.2a.5.5 0 0 1 .624.764l-1.09 1.229 3.458-2a.5.5 0 0 1 .583.8l-2.511 2.244 5.285-3.051a.5.5 0 0 1 .551.831l-3.11 2.357 5.526-3.19a.5.5 0 0 1 .535.844l-2.308 1.594 4.228-2.44a.5.5 0 0 1 .528.848l-2.414 1.625 4.266-2.463a.5.5 0 0 1 .532.847l-5.915 4.012 8.422-4.861a.5.5 0 0 1 .522.853l-3.471 2.243 5.367-3.1a.5.5 0 0 1 .531.847l-11.305 7.673 14.751-8.521a.5.5 0 0 1 .519.855l-7.485 4.766 9.746-5.627a.5.5 0 0 1 .513.858l-1.435.887 3.026-1.746a.5.5 0 0 1 .517.855l-11.601 7.373 14.243-8.224a.5.5 0 0 1 .518.855l-14.946 9.5 17.942-10.36a.5.5 0 0 1 .516.856l-16.524 10.418 19.529-11.276a.5.5 0 0 1 .515.858l-16.431 10.233 18.059-10.426a.5.5 0 0 1 .509.86l-6.663 4.053 6.155-3.547a.5.5 0 0 1 .509.859l-7.854 4.781 7.346-4.24a.5.5 0 0 1 .51.859l-10.395 6.36 9.886-5.707a.5.5 0 0 1 .508.86l-4.241 2.572 3.734-2.155a.5.5 0 0 1 .516.856l-21.541 13.544 21.027-12.137a.5.5 0 0 1 .514.856l-19.6 12.249 19.088-11.022a.5.5 0 0 1 .509.859l-7.269 4.426 6.76-3.9a.5.5 0 0 1 .518.855l-20.093 12.7 19.577-11.3a.5.5 0 0 1 .518.854l-17.355 11.009 16.838-9.721a.5.5 0 0 1 .511.859l-2.575 1.578 2.066-1.193a.5.5 0 0 1 .513.859l-3.886 2.4 3.374-1.947a.5.5 0 0 1 .514.857l-3.9 2.418 3.385-1.954a.5.5 0 0 1 .527.85l-13.261 8.78 12.734-7.353a.5.5 0 0 1 .526.851l-9.344 6.155 8.82-5.092a.5.5 0 0 1 .532.847l-8.668 5.891 8.141-4.7a.5.5 0 0 1 .526.85l-3.691 2.441 3.166-1.828a.5.5 0 0 1 .536.843l-4.889 3.415 4.354-2.514a.5.5 0 0 1 .541.839l-3.343 2.4 2.8-1.618a.5.5 0 0 1 .579.808l-3.807 3.33 3.229-1.864a.5.5 0 0 1 .608.782l-1.776 1.813 1.17-.675a.5.5 0 0 1 .636.751l-.405.49a.538.538 0 0 1 .453.25.5.5 0 0 1 -.183.683l-2.057 1.181a.5.5 0 0 1 -.635-.751l.3-.365-1.936 1.117a.5.5 0 0 1 -.607-.782l1.773-1.81-4.5 2.595a.5.5 0 0 1 -.579-.808l3.808-3.331-7.169 4.145a.5.5 0 0 1 -.541-.839l3.343-2.4-5.609 3.237a.5.5 0 0 1 -.536-.843l4.891-3.416-7.381 4.265a.5.5 0 0 1 -.526-.85l3.684-2.436-5.7 3.288a.5.5 0 0 1 -.673-.167.5.5 0 0 1 .142-.68l8.667-5.887-11.67 6.737a.5.5 0 0 1 -.525-.851l9.343-6.155-12.134 7.008a.5.5 0 0 1 -.526-.85l13.259-8.783-16.69 9.636a.5.5 0 0 1 -.514-.858l3.907-2.423-5.685 3.282a.5.5 0 0 1 -.513-.859l3.89-2.4-5.646 3.261a.5.5 0 0 1 -.51-.86l2.584-1.583-4.234 2.444a.5.5 0 0 1 -.517-.855l17.35-11.012-20.559 11.87a.494.494 0 0 1 -.25.069z" fill="#8991a0"></path><path d="m6.607 47.5a.5.5 0 0 1 -.342-.864l.269-.253-.254.145a.5.5 0 0 1 -.652-.136.5.5 0 0 1 .063-.664l.65-.6-.061.035a.5.5 0 0 1 -.584-.8l.451-.4a.509.509 0 0 1 -.514-.182.5.5 0 0 1 .045-.659l1.25-1.244-.648.373a.5.5 0 0 1 -.606-.783l1.367-1.387-.761.439a.5.5 0 0 1 -.628-.76l2.026-2.36-1.4.807a.5.5 0 0 1 -.594-.8l.923-.88-.329.19a.5.5 0 0 1 -.58-.809l.362-.317a.5.5 0 0 1 -.4-.839l1.7-1.828-1.08.623a.5.5 0 0 1 -.62-.769l1.8-1.976-1.176.678a.5.5 0 0 1 -.605-.784l1.321-1.331-.72.415a.5.5 0 0 1 -.6-.787l1.22-1.217-.622.359a.5.5 0 0 1 -.652-.135.5.5 0 0 1 .074-.67l.467-.419a.5.5 0 0 1 -.492-.829l1.5-1.555-.886.511a.5.5 0 0 1 -.588-.8l.579-.53a.5.5 0 0 1 -.62-.765l2.023-2.349-1.394.8a.5.5 0 0 1 -.6-.789l1.126-1.1-.526.3a.5.5 0 0 1 -.589-.805l.324-.286a.5.5 0 0 1 -.481-.613l.3-1.315a.5.5 0 0 1 -.068-.9l.507-.292a.5.5 0 0 1 .737.547l-.242 1.059 2.832-1.635a.5.5 0 0 1 .58.808l-.252.223a.5.5 0 0 1 .384.855l-1.128 1.111.53-.306a.5.5 0 0 1 .629.759l-2.021 2.347 1.394-.8a.5.5 0 0 1 .587.8l-.581.534a.5.5 0 0 1 .606.782l-1.495 1.551.886-.512a.5.5 0 0 1 .584.8l-.466.42a.5.5 0 0 1 .486.836l-1.222 1.218.62-.357a.5.5 0 0 1 .606.784l-1.325 1.339.721-.417a.5.5 0 0 1 .621.768l-1.8 1.977 1.177-.68a.5.5 0 0 1 .617.773l-1.7 1.828 1.082-.624a.5.5 0 0 1 .58.808l-.36.317a.5.5 0 0 1 .376.861l-.927.883.334-.192a.5.5 0 0 1 .628.759l-2.017 2.344 1.4-.807a.5.5 0 0 1 .607.784l-1.371 1.389.764-.441a.5.5 0 0 1 .6.787l-1.243 1.241.645-.372a.5.5 0 0 1 .584.8l-.45.4a.493.493 0 0 1 .52.19.5.5 0 0 1 -.063.664l-.651.6.063-.036a.5.5 0 0 1 .593.8l-.4.375a.507.507 0 0 1 .36.1.5.5 0 0 1 .18.523l-.276 1.062a.5.5 0 0 1 .045.889l-.507.292a.5.5 0 0 1 -.554-.036.5.5 0 0 1 -.179-.523l.2-.779-2.355 1.36a.489.489 0 0 1 -.248.076z" fill="#ccd0da"></path><path d="m50.546 47.5a.5.5 0 0 1 -.38-.825l1.541-1.8-1.427.825a.5.5 0 0 1 -.622-.766l1.86-2.069-1.238.714a.5.5 0 0 1 -.629-.76l2.03-2.348-1.4.807a.5.5 0 0 1 -.591-.8l.728-.676-.137.078a.5.5 0 0 1 -.623-.765l1.9-2.133-1.275.736a.5.5 0 0 1 -.6-.788l1.217-1.205-.615.354a.5.5 0 0 1 -.613-.776l1.6-1.7-.99.571a.5.5 0 0 1 -.595-.794l.961-.921-.366.211a.5.5 0 0 1 -.589-.8l.646-.6-.057.033a.5.5 0 0 1 -.626-.762l1.963-2.244-1.337.771a.5.5 0 0 1 -.6-.787l1.228-1.223-.626.362a.5.5 0 0 1 -.628-.76l2-2.313-1.374.793a.5.5 0 0 1 -.619-.77l1.756-1.917-1.137.655a.5.5 0 0 1 -.581-.807l.379-.334a.519.519 0 0 1 -.433-.18.5.5 0 0 1 .008-.647l1.982-2.28-1.355.781a.5.5 0 0 1 -.628-.759l.833-.962-.2.118a.5.5 0 0 1 -.726-.585l.226-.71a.512.512 0 0 1 -.183-.184.5.5 0 0 1 .183-.683l.507-.292a.5.5 0 0 1 .727.586l-.115.355 1.661-.958a.5.5 0 0 1 .627.76l-.833.963 1.367-.789a.5.5 0 0 1 .627.761l-1.982 2.281 1.357-.783a.5.5 0 0 1 .581.807l-.378.333a.508.508 0 0 1 .438.185.5.5 0 0 1 -.02.651l-1.756 1.918 1.139-.657a.5.5 0 0 1 .627.76l-2 2.312 1.376-.794a.5.5 0 0 1 .6.787l-1.237 1.23.626-.361a.5.5 0 0 1 .626.761l-1.962 2.245 1.338-.773a.5.5 0 0 1 .589.8l-.646.6.058-.034a.5.5 0 0 1 .6.794l-.962.921.368-.212a.5.5 0 0 1 .614.777l-1.6 1.694.991-.571a.5.5 0 0 1 .6.788l-1.216 1.2.614-.355a.5.5 0 0 1 .623.765l-1.9 2.132 1.275-.736a.5.5 0 0 1 .591.8l-.73.679.141-.081a.5.5 0 0 1 .629.76l-2.028 2.347 1.4-.808a.5.5 0 0 1 .622.766l-1.859 2.069 1.239-.715a.5.5 0 0 1 .63.758l-1.541 1.8.913-.528a.5.5 0 0 1 .734.557l-.281 1.1a.5.5 0 0 1 .049.891l-.507.292a.507.507 0 0 1 -.553-.035.5.5 0 0 1 -.181-.522l.21-.82-2.423 1.4a.489.489 0 0 1 -.245.063z" fill="#ccd0da"></path><g fill="#b9bfcc"><path d="m8.123 18.471a.5.5 0 0 1 -.367-.839l.618-.67-2.374 1.373a.5.5 0 0 1 -.6-.789l2.187-2.154-2.3 1.329a.5.5 0 0 1 -.63-.758l.9-1.055-.273.157a.5.5 0 0 1 -.727-.582l.229-.73a.5.5 0 0 1 0-.867l.5-.291a.5.5 0 0 1 .727.582l-.119.381 1.688-.975a.5.5 0 0 1 .63.758l-.9 1.055 3.165-1.828a.5.5 0 0 1 .6.789l-2.191 2.154 1.835-1.059a.5.5 0 0 1 .617.772l-.617.67a.5.5 0 0 1 .5.865l-2.848 1.641a.49.49 0 0 1 -.25.071z"></path><path d="m7.083 50.489a.5.5 0 0 1 -.38-.825l1.87-2.181-3.294 1.9a.5.5 0 0 1 -.625-.764l1.438-1.619-.813.469a.5.5 0 0 1 -.677-.692l.371-.613a.5.5 0 0 1 -.109-.913l1.128-.65a.5.5 0 0 1 .678.692l-.2.336 1.779-1.029a.5.5 0 0 1 .625.763l-1.437 1.621 3.17-1.83a.5.5 0 0 1 .63.758l-1.87 2.181 1.366-.788a.5.5 0 0 1 .7.661l-.433.839a.5.5 0 0 1 .248.932l-1.162.671a.5.5 0 0 1 -.694-.661l.373-.727-2.429 1.4a.489.489 0 0 1 -.253.069z"></path><path d="m50.072 18.471a.5.5 0 0 1 -.36-.847l2.332-2.424-2.764 1.6a.5.5 0 0 1 -.644-.74l1.03-1.32-.386.223a.5.5 0 0 1 -.723-.592l.209-.622a.487.487 0 0 1 -.168-.175.5.5 0 0 1 .182-.682l.5-.291a.5.5 0 0 1 .724.592l-.081.243 1.465-.846a.5.5 0 0 1 .644.74l-1.03 1.32 3.598-2.082a.5.5 0 0 1 .61.78l-2.332 2.424 1.842-1.062a.5.5 0 0 1 .677.691l-.7 1.162.027-.014a.5.5 0 0 1 .5.865l-1.713.988a.5.5 0 0 1 -.678-.691l.7-1.161-3.211 1.85a.49.49 0 0 1 -.25.071z"></path><path d="m49.927 50.5a.5.5 0 0 1 -.36-.848l2.144-2.219-2.432 1.4a.5.5 0 0 1 -.6-.787l.666-.662-.064.036a.5.5 0 0 1 -.675-.7l.352-.567a.5.5 0 0 1 -.092-.908l1.128-.65a.5.5 0 0 1 .675.7l-.163.263 1.664-.96a.5.5 0 0 1 .6.787l-.666.661 2.187-1.262a.5.5 0 0 1 .609.78l-2.144 2.221 1.972-1.138a.5.5 0 0 1 .617.093.5.5 0 0 1 .046.622l-.744 1.085.093-.052a.5.5 0 1 1 .5.865l-2 1.154a.5.5 0 0 1 -.663-.715l.744-1.087-3.147 1.817a.489.489 0 0 1 -.247.071z"></path></g><path d="m3.487 54.5a.5.5 0 0 1 -.362-.845l2.341-2.461-2.187 1.262a.5.5 0 0 1 -.67-.7l.827-1.282a.5.5 0 0 1 -.363-.92l1.627-.94a.5.5 0 0 1 .67.7l-.8 1.243 3.4-1.959a.5.5 0 0 1 .612.777l-2.347 2.461 5.611-3.236a.5.5 0 0 1 .583.8l-1.938 1.728 4.389-2.528a.5.5 0 0 1 .557.827l-.7.545 2.38-1.372a.5.5 0 0 1 .6.789l-2.247 2.204 5.189-3a.5.5 0 0 1 .571.816l-1.515 1.268 3.61-2.084a.5.5 0 0 1 .608.782l-2.309 2.364 5.451-3.139a.5.5 0 0 1 .56.825l-.864.682 2.611-1.507a.5.5 0 0 1 .591.8l-2.108 1.964 4.786-2.764a.5.5 0 0 1 .6.785l-2.279 2.291 5.334-3.076a.5.5 0 0 1 .563.822l-1.081.867 2.928-1.689a.5.5 0 0 1 .6.791l-2.216 2.148 5.1-2.939a.5.5 0 0 1 .616.773l-2.336 2.511 5.686-3.284a.5.5 0 0 1 .568.817l-1.4 1.162 3.427-1.979a.5.5 0 0 1 .57.816l-1.492 1.248 3.577-2.064a.5.5 0 0 1 .564.821l-1.172.949 3.068-1.77a.5.5 0 0 1 .617.772l-2.333 2.516 4.191-2.419a.5.5 0 0 1 .608.781l-1.44 1.478 1.206-.7a.5.5 0 0 1 .728.577l-.427 1.413a.5.5 0 0 1 .219.932l-.778.45a.5.5 0 0 1 -.729-.577l.392-1.3-3.249 1.876a.5.5 0 0 1 -.609-.781l1.443-1.478-3.915 2.267a.5.5 0 0 1 -.617-.772l2.334-2.52-5.706 3.294a.5.5 0 0 1 -.565-.821l1.173-.95-3.07 1.772a.5.5 0 0 1 -.571-.816l1.493-1.248-3.58 2.066a.5.5 0 0 1 -.569-.817l1.4-1.162-3.431 1.98a.5.5 0 0 1 -.616-.773l2.337-2.511-5.694 3.286a.5.5 0 0 1 -.6-.791l2.213-2.15-5.1 2.943a.5.5 0 0 1 -.564-.822l1.08-.866-2.929 1.69a.5.5 0 0 1 -.605-.785l2.28-2.291-5.333 3.078a.5.5 0 0 1 -.59-.8l2.106-1.964-4.786 2.766a.5.5 0 0 1 -.56-.825l.865-.683-2.614 1.509a.5.5 0 0 1 -.607-.782l2.308-2.365-5.453 3.149a.5.5 0 0 1 -.572-.817l1.517-1.268-3.615 2.087a.5.5 0 0 1 -.6-.789l2.248-2.207-5.192 3a.5.5 0 0 1 -.558-.827l.7-.547-2.382 1.373a.5.5 0 0 1 -.583-.806l1.938-1.725-4.393 2.533a.489.489 0 0 1 -.25.067z" fill="#a5aeb7"></path><path d="m2.326 59.5a.5.5 0 0 1 -.352-.854l2.274-2.263-2.969 1.717a.5.5 0 0 1 -.578-.81l.406-.353a.505.505 0 0 1 -.458-.169.5.5 0 0 1 -.009-.638l.533-.666a.488.488 0 0 1 -.282-.227.5.5 0 0 1 .182-.682l1.627-.94a.5.5 0 0 1 .64.745l-.254.318 1.865-1.078a.5.5 0 0 1 .578.809l-.274.239 1.817-1.048a.5.5 0 0 1 .6.787l-2.272 2.259 5.283-3.046a.5.5 0 0 1 .569.817l-1.452 1.201 3.5-2.02a.5.5 0 0 1 .61.779l-2.326 2.423 5.554-3.2a.5.5 0 0 1 .577.81l-1.761 1.524 4.046-2.334a.5.5 0 0 1 .6.788l-2.26 2.236 5.238-3.024a.5.5 0 0 1 .576.811l-1.708 1.467 3.947-2.278a.5.5 0 0 1 .607.782l-2.3 2.357 5.434-3.139a.5.5 0 0 1 .57.816l-1.476 1.231 3.546-2.047a.5.5 0 0 1 .578.81l-1.752 1.508 4.025-2.318a.5.5 0 0 1 .566.82l-1.277 1.04 3.228-1.86a.5.5 0 0 1 .561.824l-.956.76 2.744-1.584a.5.5 0 0 1 .592.8l-2.114 1.978 4.809-2.778a.5.5 0 0 1 .613.776l-2.325 2.45 5.59-3.226a.5.5 0 0 1 .56.825l-.837.66 2.573-1.485a.5.5 0 0 1 .609.781l-2.3 2.357 5.439-3.138a.5.5 0 0 1 .566.82l-1.24 1.01 3.174-1.83a.5.5 0 0 1 .573.815l-1.537 1.285 2.754-1.59a.5.5 0 0 1 .579.809l-1.213 1.06 1.277-.736a.5.5 0 0 1 .614.776l-.772.822.256-.149a.5.5 0 0 1 .734.559l-.255.977a.5.5 0 0 1 .038.885l-.5.288a.5.5 0 0 1 -.734-.558l.178-.687-2.155 1.244a.5.5 0 0 1 -.614-.775l.774-.823-2.772 1.6a.5.5 0 0 1 -.579-.808l1.212-1.06-3.241 1.87a.5.5 0 0 1 -.572-.815l1.535-1.289-3.65 2.107a.5.5 0 0 1 -.566-.82l1.24-1.01-3.173 1.831a.5.5 0 0 1 -.609-.781l2.3-2.357-5.44 3.14a.5.5 0 0 1 -.56-.825l.836-.659-2.578 1.487a.5.5 0 0 1 -.612-.776l2.324-2.45-5.592 3.228a.5.5 0 0 1 -.592-.8l2.116-1.98-4.815 2.779a.5.5 0 0 1 -.561-.824l.953-.758-2.743 1.584a.5.5 0 0 1 -.567-.82l1.278-1.043-3.23 1.864a.5.5 0 0 1 -.577-.811l1.747-1.506-4.023 2.322a.5.5 0 0 1 -.571-.817l1.476-1.23-3.547 2.048a.5.5 0 0 1 -.607-.782l2.3-2.359-5.437 3.142a.5.5 0 0 1 -.576-.812l1.71-1.467-3.952 2.28a.5.5 0 0 1 -.6-.788l2.258-2.237-5.24 3.027a.5.5 0 0 1 -.577-.811l1.76-1.522-4.047 2.335a.5.5 0 0 1 -.61-.78l2.329-2.426-5.555 3.208a.5.5 0 0 1 -.569-.818l1.449-1.2-3.5 2.022a.489.489 0 0 1 -.254.065z" fill="#828a94"></path><path d="m41.325 36.418a.5.5 0 0 1 -.385-.819l1.871-2.259-3.932 2.269a.5.5 0 0 1 -.6-.785l2.492-2.5-3.077 1.776a.5.5 0 0 1 -.63-.758l1.226-1.434-1 .578a.5.5 0 0 1 -.735-.551l.282-1.155a.494.494 0 0 1 -.238-.21.5.5 0 0 1 .183-.683l.5-.29a.508.508 0 0 1 .55.033.5.5 0 0 1 .186.519l-.217.886 2.51-1.449a.5.5 0 0 1 .63.758l-1.225 1.434 3.818-2.2a.5.5 0 0 1 .605.785l-2.492 2.5 3.073-1.773a.5.5 0 0 1 .634.752l-1.871 2.259.537-.309a.5.5 0 0 1 .5.865l-2.946 1.7a.5.5 0 0 1 -.249.061z" fill="#fcc10a"></path><path d="m19.718 36.354a.5.5 0 0 1 -.358-.849l.6-.609-2.118 1.223a.5.5 0 0 1 -.586-.8l1.9-1.725-2.724 1.573a.5.5 0 0 1 -.573-.814l1.3-1.1-1.466.846a.5.5 0 0 1 -.584-.8l.5-.45-.243.139a.5.5 0 0 1 -.743-.513l.277-1.675a.5.5 0 0 1 -.3-.233.5.5 0 0 1 .183-.683l.5-.29a.5.5 0 0 1 .534.022.5.5 0 0 1 .209.492l-.243 1.48 3.48-2.009a.5.5 0 0 1 .584.805l-.5.452 2.191-1.265a.5.5 0 0 1 .572.815l-1.3 1.095 1.911-1.1a.5.5 0 0 1 .586.8l-1.907 1.728 1.218-.7a.5.5 0 0 1 .608.782l-1.037 1.059a.491.491 0 0 1 .273.224.5.5 0 0 1 -.183.682l-2.31 1.334a.489.489 0 0 1 -.251.064z" fill="#fcc10a"></path><path d="m28.476 42.727a.5.5 0 0 1 -.383-.823l1.687-2.004-1.5.866a.5.5 0 0 1 -.586-.8l.535-.486a.5.5 0 0 1 -.539-.827l.676-.625-.086.05a.5.5 0 0 1 -.622-.766l1.857-2.068-1.235.712a.5.5 0 0 1 -.654-.138.5.5 0 0 1 .07-.667l.452-.405a.5.5 0 0 1 -.45-.86l.4-.352a.5.5 0 0 1 -.435-.834l1.763-1.926-1.144.66a.5.5 0 0 1 -.625-.763l1.936-2.2-1.311.756a.5.5 0 0 1 -.627-.761l1.978-2.273-1.351.78a.5.5 0 0 1 -.627-.762l1.964-2.25-1.337.772a.5.5 0 0 1 -.738-.542l.312-1.4a.5.5 0 0 1 -.074-.9l.507-.292a.5.5 0 0 1 .738.543l-.258 1.157 2.953-1.7a.5.5 0 0 1 .627.762l-1.966 2.239 1.341-.774a.5.5 0 0 1 .627.761l-1.978 2.272 1.354-.781a.5.5 0 0 1 .625.763l-1.936 2.2 1.313-.758a.5.5 0 0 1 .62.771l-1.764 1.926 1.148-.662a.5.5 0 0 1 .582.807l-.4.351a.492.492 0 0 1 .47.2.5.5 0 0 1 -.071.666l-.451.405a.5.5 0 0 1 .491.819l-1.854 2.071 1.239-.715a.5.5 0 0 1 .59.8l-.677.625.089-.051a.5.5 0 0 1 .586.8l-.534.486a.5.5 0 0 1 .583.78l-1.688 2.006 1.058-.61a.5.5 0 0 1 .7.655l-.358.721a.5.5 0 0 1 .162.925l-1 .579a.5.5 0 0 1 -.7-.656l.263-.531-2.086 1.2a.493.493 0 0 1 -.251.076z" fill="#fcc10a"></path><path d="m23.826 46.482a.5.5 0 0 1 -.363-.843l2.329-2.463-.741.428a.5.5 0 1 1 -.5-.866l3.709-2.138a.5.5 0 0 1 .613.776l-2.328 2.463 5.388-3.111a.5.5 0 0 1 .587.8l-1.869 1.7 2.7-1.557a.5.5 0 0 1 .611.778l-1.285 1.341 2.062-1.19a.5.5 0 0 1 .7.641l-.7 1.514 1.73-1a.5.5 0 0 1 .746.495l-.1.786a.5.5 0 0 1 .447.893l-.819.473a.5.5 0 0 1 -.743-.494l.1-.783-2.22 1.28a.5.5 0 0 1 -.7-.641l.7-1.514-3.739 2.159a.5.5 0 0 1 -.612-.778l1.286-1.341-3.677 2.122a.5.5 0 0 1 -.587-.8l1.867-1.7-4.338 2.505a.489.489 0 0 1 -.254.065z" fill="#f5ab01"></path><path d="m20.946 14.471a.5.5 0 0 1 -.3-.9l.11-.083-1.586.912a.5.5 0 0 1 -.567-.819l1.3-1.067-3.267 1.886a.5.5 0 0 1 -.567-.819l1.274-1.042-3.225 1.861a.5.5 0 0 1 -.587-.8l2.016-1.843-4.581 2.643a.5.5 0 0 1 -.608-.782l2.288-2.34-5.41 3.122a.5.5 0 0 1 -.581-.807l1.851-1.632-4.227 2.439a.5.5 0 0 1 -.57-.816l1.478-1.236-3.361 1.94a.5.5 0 0 1 -.657-.144.5.5 0 0 1 .081-.668l1.576-1.358-1.546.893a.5.5 0 0 1 -.726-.584l.513-1.618a.518.518 0 0 1 -.467-.246.5.5 0 0 1 .18-.683l.882-.51a.5.5 0 0 1 .727.584l-.489 1.546 5.03-2.9a.5.5 0 0 1 .576.811l-1.578 1.36 3.761-2.171a.5.5 0 0 1 .571.816l-1.48 1.234 3.558-2.05a.5.5 0 0 1 .581.807l-1.851 1.632 4.232-2.439a.5.5 0 0 1 .607.782l-2.286 2.339 5.403-3.121a.5.5 0 0 1 .587.8l-2.011 1.841 4.576-2.641a.5.5 0 0 1 .566.819l-1.273 1.042 3.224-1.861a.5.5 0 0 1 .568.819l-1.3 1.069 3.268-1.888a.5.5 0 0 1 .551.831l-.107.081 1.581-.912a.5.5 0 0 1 .592.8l-2.1 1.959 4.778-2.759a.5.5 0 0 1 .6.79l-2.218 2.171 5.13-2.961a.5.5 0 0 1 .568.819l-1.31 1.075 3.281-1.894a.5.5 0 0 1 .582.806l-1.891 1.682 4.31-2.488a.5.5 0 0 1 .59.8l-2.066 1.909 4.7-2.709a.5.5 0 0 1 .6.792l-2.2 2.122 5.055-2.914a.5.5 0 0 1 .584.8l-1.939 1.739 4.4-2.542a.5.5 0 0 1 .57.816l-1.45 1.214 3.517-2.027a.5.5 0 0 1 .578.81l-1.727 1.49 3.385-1.953a.5.5 0 0 1 .611.779l-1.972 2.057 3.857-2.226a.5.5 0 0 1 .647.735l-1.524 2 .929-.536a.5.5 0 0 1 .5.865l-3.086 1.779a.5.5 0 0 1 -.648-.735l1.525-2-4.741 2.735a.5.5 0 0 1 -.612-.778l1.973-2.058-4.912 2.836a.5.5 0 0 1 -.577-.81l1.726-1.49-3.99 2.3a.5.5 0 0 1 -.57-.816l1.455-1.213-3.516 2.029a.5.5 0 0 1 -.584-.8l1.936-1.739-4.4 2.539a.5.5 0 0 1 -.6-.792l2.194-2.125-5.054 2.917a.5.5 0 0 1 -.59-.8l2.066-1.913-4.7 2.712a.5.5 0 0 1 -.582-.806l1.891-1.682-4.308 2.489a.5.5 0 0 1 -.568-.819l1.31-1.075-3.281 1.894a.5.5 0 0 1 -.6-.79l2.222-2.168-5.134 2.958a.5.5 0 0 1 -.592-.8l2.1-1.958-4.774 2.758a.493.493 0 0 1 -.254.071z" fill="#ccd0da"></path><path d="m1.659 10.47a.5.5 0 0 1 -.25-.933l1.052-.607a.5.5 0 0 1 .452-.03l1.139.5 5.929-3.413a.5.5 0 0 1 .628.76l-1.129 1.304 10.044-5.8a.5.5 0 0 1 .539.841l-1.42 1.008 6.064-3.5a.5.5 0 0 1 .526.849l-.168.112 1.665-.961a.5.5 0 0 1 .529.847l-.807.54 2.406-1.387a.5.5 0 0 1 .541.84l-4.119 2.94 6.553-3.78a.5.5 0 0 1 .549.833l-5.166 3.852 8.121-4.685a.5.5 0 0 1 .535.842l-3.06 2.126 4.25-2.452a.5.5 0 0 1 .532.846l-1.405.959 2.216-1.279a.5.5 0 0 1 .558.826l-4.475 3.5 6.045-3.489a.5.5 0 0 1 .548.834l-2.508 1.851 3.573-2.064a.5.5 0 0 1 .555.828l-2.473 1.918 3.607-2.082a.5.5 0 0 1 .544.837l-.229.166.91-.525a.5.5 0 0 1 .549.833l-.381.286 1.087-.628a.5.5 0 0 1 .587.8l-1.856 1.696 3.089-1.784a.5.5 0 0 1 .62.77l-1.563 1.717 2.948-1.7a.5.5 0 0 1 .67.7l-1.01 1.568 2.485-1.435a.5.5 0 0 1 .739.538l-.294 1.367 1.787-1.032a.488.488 0 0 1 .384-.048.5.5 0 0 1 .3.241l.629 1.146.851-.49a.5.5 0 0 1 .484-.009l1.165.617a.5.5 0 0 1 .459.888l-.2.116a.5.5 0 0 1 -.484.008l-1.162-.607-1.052.607a.491.491 0 0 1 -.385.049.5.5 0 0 1 -.3-.241l-.629-1.147-2.324 1.332a.5.5 0 0 1 -.739-.538l.295-1.362-3.3 1.9a.5.5 0 0 1 -.67-.7l1.011-1.57-3.938 2.27a.5.5 0 0 1 -.62-.769l1.562-1.717-4.306 2.486a.5.5 0 0 1 -.587-.8l1.856-1.694-4.322 2.494a.5.5 0 0 1 -.55-.833l.378-.283-1.933 1.116a.5.5 0 0 1 -.544-.837l.235-.171-1.747 1.008a.5.5 0 0 1 -.556-.828l2.474-1.915-4.752 2.743a.5.5 0 0 1 -.548-.834l2.506-1.856-4.658 2.69a.5.5 0 0 1 -.558-.826l4.476-3.5-7.494 4.326a.5.5 0 0 1 -.533-.845l1.409-.955-3.13 1.8a.5.5 0 0 1 -.535-.842l3.054-2.123-5.137 2.965a.5.5 0 0 1 -.549-.833l5.166-3.855-8.121 4.688a.5.5 0 0 1 -.541-.839l4.119-2.944-6.553 3.783a.5.5 0 0 1 -.528-.847l.81-.543-2.409 1.39a.5.5 0 0 1 -.526-.849l.174-.115-1.672.964a.5.5 0 0 1 -.539-.84l1.421-1-3.198 1.84a.5.5 0 0 1 -.628-.759l1.13-1.3-3.576 2.059a.5.5 0 0 1 -.452.025l-1.139-.5-.832.479a.5.5 0 0 1 -.25.066z" fill="#b9bfcc"></path><path d="m35.7 23.471a.5.5 0 0 1 -.343-.865l1.057-1-3.1 1.792a.5.5 0 0 1 -.653-.729l1.486-2.015-4.755 2.746a.5.5 0 0 1 -.606-.784l1.286-1.3-3.615 2.084a.5.5 0 0 1 -.656-.723l1.476-2.058-4.818 2.781a.5.5 0 0 1 -.634-.754l1.487-1.774-4.381 2.528a.5.5 0 0 1 -.606-.784l1.287-1.3-3.534 2.04a.5.5 0 0 1 -.63-.107.5.5 0 0 1 -.009-.64l1.456-1.8-2.407 1.391a.5.5 0 0 1 -.67-.7l.665-1.03a.5.5 0 0 1 -.375-.917l1.645-.949a.5.5 0 0 1 .612.088.5.5 0 0 1 .058.616l-.644 1 2.949-1.7a.5.5 0 0 1 .638.747l-1.454 1.8 4.409-2.555a.5.5 0 0 1 .606.784l-1.288 1.3 3.619-2.084a.5.5 0 0 1 .634.754l-1.486 1.774 4.379-2.528a.5.5 0 0 1 .656.723l-1.476 2.058 4.818-2.781a.5.5 0 0 1 .606.784l-1.286 1.3 3.615-2.084a.5.5 0 0 1 .652.729l-1.485 2.015 4.754-2.744a.5.5 0 0 1 .592.8l-1.055.994 3.1-1.791a.5.5 0 0 1 .614.776l-1.372 1.451 3.284-1.9a.5.5 0 0 1 .6.785l-.936.94 1.1-.634a.5.5 0 0 1 .621.1.5.5 0 0 1 .035.628l-.564.78a.5.5 0 0 1 .226.932l-1.638.945a.5.5 0 0 1 -.655-.725l.45-.622-2.331 1.341a.5.5 0 0 1 -.605-.785l.936-.939-2.988 1.724a.5.5 0 0 1 -.614-.776l1.373-1.451-3.861 2.227a.49.49 0 0 1 -.251.071z" fill="#fcc10a"></path><path d="m29.254 24.32a.5.5 0 0 1 -.378-.828l1.516-1.745-2.481 1.432a.5.5 0 0 1 -.589-.8l.962-.885-.888.513a.5.5 0 0 1 -.658-.723l1.141-1.6a.5.5 0 0 1 -.632-.209.5.5 0 0 1 .183-.683l1.937-1.118a.5.5 0 0 1 .657.722l-1.134 1.593 2.81-1.624a.5.5 0 0 1 .589.8l-.966.888 1.151-.663a.5.5 0 0 1 .628.76l-1.515 1.75.979-.565a.5.5 0 1 1 .5.865l-3.566 2.053a.489.489 0 0 1 -.246.067z" fill="#f5ab01"></path><path d="m22.492 49.5a.5.5 0 0 1 -.343-.864l1.1-1.032-.966.557a.5.5 0 0 1 -.729-.575l.517-1.736a.5.5 0 0 1 -.085-.9l.6-.347a.5.5 0 0 1 .729.575l-.446 1.494 3.595-2.075a.5.5 0 0 1 .593.8l-1.1 1.033 3.177-1.834a.5.5 0 0 1 .612.777l-1.395 1.468 3.9-2.249a.5.5 0 0 1 .582.807l-.8.708 2.629-1.518a.5.5 0 0 1 .61.779l-1.372 1.416 3.554-2.052a.5.5 0 0 1 .621.768l-1.314 1.454.964-.557a.5.5 0 0 1 .732.566l-.325 1.176a.5.5 0 0 1 .111.913l-.609.351a.5.5 0 0 1 -.733-.565l.267-.965-2.658 1.536a.5.5 0 0 1 -.621-.767l1.311-1.454-3.859 2.228a.5.5 0 0 1 -.611-.779l1.37-1.425-3.828 2.209a.5.5 0 0 1 -.582-.807l.8-.707-2.632 1.519a.5.5 0 0 1 -.612-.778l1.395-1.467-3.9 2.251a.489.489 0 0 1 -.249.068z" fill="#fcc10a"></path><path d="m59.708 9.83a.121.121 0 0 0 -.05-.114.472.472 0 0 0 -.4-.2h-.043l-10.732-4.2c-3.832-1.501-7.643-3.184-11.541-4.516a5.824 5.824 0 0 0 -1.962-.2h-3.708c-2.188 0-4.394-.081-6.581 0a11.853 11.853 0 0 0 -3.651 1.162l-7.14 2.795-12.68 4.96c-.3.011-.95.146-.95.551 0 1.519-.61 4.274 1.562 4.417.8.053 1.621 0 2.423 0h.014v2.228a3.447 3.447 0 0 0 .031.687 1.391 1.391 0 0 0 .977 1v26.261a1.65 1.65 0 0 0 -.776.654 3.442 3.442 0 0 0 -.233 1.85v1.614a2.629 2.629 0 0 0 -1.924 1.837 12.633 12.633 0 0 0 -.076 3.228 2.762 2.762 0 0 0 -1.76 1.35c-.548 1.1-.229 2.817-.229 4 0 .154.345.146.423.146h58 .015c.427-.026 1.01-.228 1.01-.531 0-2 .418-4.717-2-5.1.012-1.972.379-4.654-2-5.057v-2.014c0-.275.01-.551 0-.826a1.147 1.147 0 0 0 -.993-1.073v-26.657a1.451 1.451 0 0 0 .982-1.12 7.389 7.389 0 0 0 .011-.855v-1.622h1.873a.919.919 0 0 0 .328 0c2.362-.381 1.807-2.73 1.807-4.552a.387.387 0 0 0 -.027-.103zm-40.132-6.7a39.3 39.3 0 0 1 4.244-1.66 5.374 5.374 0 0 1 1.349-.07h3.559c2.154 0 4.4-.187 6.546 0a12.952 12.952 0 0 1 3.286 1.172l7.144 2.8 10.596 4.143h-53.048l8.658-3.387zm-16.742 10.385a2.14 2.14 0 0 1 -.571 0c-.791-.258-.638-1.982-.562-3.03h56.587c.048.926.15 2.964-.209 3.03h-46.834a1.676 1.676 0 0 0 -.172-.012h-6c-.018 0-.045.01-.066.012zm50.021 35.085h-3.133c-.006-.926-.044-1.86 0-2.783a1 1 0 0 1 .078-.325h3.917a1.068 1.068 0 0 0 .259 0c.4.366.3 1.221.3 1.7v1.4c-.476-.001-.949.008-1.421.008zm-2.124-4.09v-26.019h2.538v26.018zm-2.426-27.076a1.1 1.1 0 0 0 .964.825v26.656a1.733 1.733 0 0 0 -.735.537 2.918 2.918 0 0 0 -.258 1.8v1.348h-9.552c0-.853.015-1.708 0-2.56a2.315 2.315 0 0 0 -.361-1.251c0-.029-.026-.051-.06-.072a3.148 3.148 0 0 0 -.85-.806l-2.683-1.79a21.1 21.1 0 0 0 -2.046-1.366v-17.424q3.693 0 7.385 0l-3.291 5.769-.378.661a.4.4 0 0 0 -.171.31 10.568 10.568 0 0 0 .235 3.462 4.526 4.526 0 0 0 4.235 2.959c.028 0 .059-.005.088-.006s.069.006.1.005a4.918 4.918 0 0 0 4.531-3.091 10.056 10.056 0 0 0 .273-3.462.39.39 0 0 0 -.053-.192c-.006-.012 0-.023-.008-.034q-1.751-3.066-3.5-6.13l-.139-.245h1.426a3.25 3.25 0 0 0 3.107-1.669c.689-1.623-.728-2.968-2.276-2.991-1.864-.028-3.729 0-5.593 0h-5.84a3.446 3.446 0 0 0 -1.429-.961 4.065 4.065 0 0 0 -4.01.861c-3.632 0-7.265-.018-10.9 0a3.129 3.129 0 0 0 -3.089 1.739 2.349 2.349 0 0 0 2.312 3.121c.765.027 1.533.024 2.3.02l-3.221 5.643-.5.87a.284.284 0 0 0 -.039.207c0 .008-.005.014-.005.022a9.878 9.878 0 0 0 .246 3.385 4.318 4.318 0 0 0 3.995 2.737 1.16 1.16 0 0 0 .179.012 5.111 5.111 0 0 0 4.756-3.01 9.878 9.878 0 0 0 .272-3.512.091.091 0 0 0 -.048-.074c0-.009 0-.017-.006-.026l-3.5-6.13-.077-.135c.415 0 .831-.011 1.245-.011h5.884c.018.019.037.035.056.053v17.486c-.515.305-1.006.7-1.492 1.02l-2.77 1.847c-.91.607-1.711 1.222-1.738 2.434-.018.774-.009 1.549 0 2.324h-9.541v-1.872c0-.259.006-.519 0-.778a1.5 1.5 0 0 0 -1.009-1.392v-26.263a1.61 1.61 0 0 0 1-1.276c.024-.275 0-.559 0-.834v-1.7h36.55v2.316a2.671 2.671 0 0 0 .029.634zm-26.105 15.502a3.222 3.222 0 0 1 -2.9 2.736 3.783 3.783 0 0 1 -3.459-2.889 9.162 9.162 0 0 1 -.131-2.455h6.564a12.4 12.4 0 0 1 -.074 2.608zm-5.9-3.264h-.408l3.044-5.327q1.45 2.54 2.9 5.079l.142.248zm3.1-7.1a1.221 1.221 0 0 0 -.32 0h-2.042c-.747 0-1.445.045-1.958-.651a1.5 1.5 0 0 1 .978-2.489h10.675a3.388 3.388 0 0 0 -.112 3.14zm24.785 10.314a3.217 3.217 0 0 1 -3.018 2.614 3.57 3.57 0 0 1 -3.309-2.668 8.379 8.379 0 0 1 -.138-2.347h6.557a10.7 10.7 0 0 1 -.092 2.401zm-5.933-3.374h-.274q1.476-2.584 2.953-5.167l2.9 5.078.05.089zm3.373-6.842a.847.847 0 0 0 -.634-.088 1.47 1.47 0 0 0 -.285.088h-7.5a3.349 3.349 0 0 0 .523-1.735 3.5 3.5 0 0 0 -.411-1.605h9.616a2.06 2.06 0 0 1 2.034.805c.461.71.434 2.21-.542 2.5a1.568 1.568 0 0 1 -.459.032zm-9.356-1.605a2.7 2.7 0 0 1 -.464 1.54 2.446 2.446 0 0 1 -.418.451 2.5 2.5 0 0 1 -.307.212c-.017.007-.059.029-.062.03-.038.019-.224.1-.2.091a1.833 1.833 0 0 1 -.622.113 2.259 2.259 0 0 1 -.661-.1 2.509 2.509 0 0 1 -1.227-.855 2.682 2.682 0 0 1 -.24-2.953 2.447 2.447 0 0 1 .435-.557 2.261 2.261 0 0 1 .547-.371 1.881 1.881 0 0 1 1.176-.134 2.636 2.636 0 0 1 2.043 2.533zm-1.611 3.347a3.851 3.851 0 0 0 .618-.173v16.339c-.294.016-.583.038-.829.038-.492 0-1.125-.065-1.723-.046v-16.255a4.158 4.158 0 0 0 1.934.097zm-2.51 16.972h3.34l4.465 2.976c.143.1.268.2.393.3h-12.99a4.3 4.3 0 0 1 .587-.467zm-5.424 4.739a2.091 2.091 0 0 1 .158-.778h14.086a2.078 2.078 0 0 1 .308 1.082c.012.723 0 1.448 0 2.172h-14.552c-.001-.825-.01-1.651 0-2.476zm-12.541-31.623h.086v1.48.977a1.333 1.333 0 0 1 -.022.309.506.506 0 0 1 -.131.237c-.015 0-.017 0-.043 0h-3.329c-.195 0-.39 0-.585 0a1.869 1.869 0 0 1 -.193-.1.7.7 0 0 1 -.177-.243 1.3 1.3 0 0 1 -.058-.536v-2.124zm-3.457 4h2.548v25.954h-2.548zm-.826 27.042c.029-.01.064-.008 0 0zm-.162.409a.677.677 0 0 1 .107-.371c-.022.028.027-.013.044-.032h.065.464 3.358a.543.543 0 0 1 .489.589c.01.323 0 .648 0 .972v1.347h-4.535c-.007-.836-.03-1.673.005-2.505zm52.549 12.709h-56.566c-.03-1.262-.414-3.824.962-4.261h.033 53.946a.8.8 0 0 0 .1 0c1.763.392 1.58 2.601 1.525 4.261zm-2-5.061h-52.567c-.039-1.286-.374-3.583.92-4.1a1.073 1.073 0 0 0 .3.045h6a1 1 0 0 0 .46-.144h39.4c1.194 0 2.405-.059 3.6 0 2.17.109 1.961 2.464 1.891 4.2zm-2.011-37.548v1a1.824 1.824 0 0 1 -.006.234.9.9 0 0 1 -.085.227h-3.925a1.521 1.521 0 0 0 -.174.013.821.821 0 0 1 -.311-.4 1.863 1.863 0 0 1 -.051-.591v-2.049h4.552z" fill="#262626"></path><path d="m22.617 6.066a7.516 7.516 0 0 1 2.319-.794c.825-.018 1.653 0 2.478 0 2.211 0 4.431-.062 6.641 0a9.587 9.587 0 0 1 3.053.966 1.462 1.462 0 0 0 .927-.107c.052-.018.645-.29.443-.369a10.233 10.233 0 0 0 -3.339-1.034c-.8-.018-1.61 0-2.414 0-2.3 0-4.6-.051-6.9 0a12.156 12.156 0 0 0 -4.025 1.206c-.224.088-.383.183-.19.329s.828-.127 1.007-.197z" fill="#262626"></path></svg>