<!-- icon666.com - MILLIONS vector ICONS FREE --><svg xmlns="http://www.w3.org/2000/svg" id="icons" viewBox="0 0 60 60"><path d="M29.782,45.463a.5.5,0,0,1-.277-.916l1-.667-2.375,1.371a.5.5,0,0,1-.527-.85l3.182-2.11-4.479,2.586a.5.5,0,0,1-.52-.854l.168-.107-.936.54A.5.5,0,0,1,24.5,43.6l2.584-1.662L23.7,43.894a.5.5,0,0,1-.521-.853l4.844-3.133-5.639,3.256a.5.5,0,0,1-.518-.855l1.708-1.08-2.186,1.262a.5.5,0,0,1-.526-.849l9.589-6.335L20,41.338a.5.5,0,0,1-.526-.85l10.681-7.071L18.748,40a.5.5,0,0,1-.526-.85l11.209-7.422L17.662,38.526a.5.5,0,0,1-.516-.856l1.833-1.148L17.112,37.6a.5.5,0,0,1-.528-.848L28.97,28.445l-12.7,7.332a.5.5,0,0,1-.522-.852l8.045-5.206-8,4.617a.5.5,0,0,1-.518-.855l4.137-2.627L15.524,33.1a.5.5,0,0,1-.518-.855l4.059-2.587L15.35,31.8a.5.5,0,0,1-.522-.853l5.444-3.516-4.988,2.879a.5.5,0,0,1-.527-.848l7.567-5.037-6.908,3.988a.5.5,0,0,1-.533-.845l7.68-5.269-6.652,3.841a.5.5,0,0,1-.524-.851l1.359-.891-.262.151a.5.5,0,0,1-.527-.849l1.215-.809a.511.511,0,0,1-.477-.211.5.5,0,0,1,.093-.671L20.317,19.1a.533.533,0,0,1-.448-.25.5.5,0,0,1,.183-.683l4.68-2.7a.5.5,0,0,1,.569.818L22.046,18.97l7.57-4.37a.5.5,0,0,1,.528.848l-.725.483,2.123-1.225a.5.5,0,0,1,.524.851l-1.343.881L33.206,15a.5.5,0,0,1,.533.845l-7.682,5.27,9.366-5.407a.5.5,0,0,1,.527.849L28.382,21.6l8.753-5.053a.5.5,0,0,1,.521.852l-5.45,3.52,6.188-3.571a.5.5,0,0,1,.518.854l-4.051,2.581,4.564-2.635a.5.5,0,0,1,.517.855L35.8,21.633l4.552-2.628a.5.5,0,0,1,.521.852l-8.046,5.206,8.542-4.93a.5.5,0,0,1,.528.847L29.514,29.285l13.012-7.513a.5.5,0,0,1,.516.857L41.2,23.78l1.851-1.068a.5.5,0,0,1,.526.85L32.365,30.988l11.429-6.6a.5.5,0,0,1,.526.849L33.645,32.309l10.674-6.163a.5.5,0,0,1,.526.849l-9.592,6.338,9.371-5.41a.5.5,0,0,1,.518.855l-1.7,1.076,1.266-.731a.5.5,0,0,1,.522.853L40.391,33.1l4.291-2.477a.5.5,0,0,1,.52.853l-2.6,1.672,1.9-1.1a.5.5,0,0,1,.519.853l-.648.415a.49.49,0,0,1,.522.227.5.5,0,0,1-.148.681l-3.189,2.114,2.078-1.2a.5.5,0,0,1,.527.848l-1.226.816a.5.5,0,0,1,.429.882l-3.157,2.383.428-.246a.5.5,0,0,1,.5.865L33.683,45a.5.5,0,0,1-.551-.832l3.158-2.384L30.032,45.4A.5.5,0,0,1,29.782,45.463Z" fill="#e3c84c"></path><path d="M15.483,40.492a.5.5,0,0,1-.25-.932L18.111,37.9a.5.5,0,1,1,.5.866l-2.878,1.661A.494.494,0,0,1,15.483,40.492Z" fill="#6de08e"></path><path d="M25.081,59.47a.5.5,0,0,1-.325-.88l.289-.247L23.209,59.4a.5.5,0,0,1-.575-.812L23.9,57.5l-3.073,1.773a.5.5,0,0,1-.575-.812L21.9,57.058,18.7,58.9a.5.5,0,0,1-.577-.81l1.984-1.72-3.368,1.944a.5.5,0,0,1-.568-.818l1.77-1.463-2.8,1.615a.5.5,0,0,1-.551-.831l.535-.405L14,57.063a.5.5,0,0,1-.581-.807l2.771-2.443-3.837,2.214a.5.5,0,0,1-.547-.834l.3-.22-.655.378a.5.5,0,0,1-.576-.812l3.017-2.6-3.811,2.2a.5.5,0,0,1-.564-.822l2.6-2.1L9,53.012a.5.5,0,0,1-.566-.82l3.026-2.479L7.973,51.725a.5.5,0,0,1-.552-.831L9.31,49.462,7.239,50.656a.5.5,0,0,1-.549-.834L8.337,48.6l-1.724,1a.5.5,0,0,1-.56-.824l3.441-2.726L5.9,48.121a.5.5,0,0,1-.557-.828l3.517-2.724L5.307,46.617a.5.5,0,0,1-.53-.846l1.078-.729-.877.507a.5.5,0,0,1-.537-.843L7.1,42.852l-2.433,1.4a.5.5,0,0,1-.542-.839l3.473-2.5L4.422,42.752a.5.5,0,0,1-.559-.826l4.88-3.833L4.264,40.679a.5.5,0,0,1-.564-.823l4.129-3.315L1.8,40.021a.5.5,0,0,1-.555-.829l4.382-3.367L1.439,38.242A.5.5,0,0,1,.9,37.405L4.472,34.8a.509.509,0,0,1-.239-.184.5.5,0,0,1,.09-.67l3.228-2.7a.5.5,0,0,1,.212-.624L9.529,29.6a.5.5,0,0,1,.571.816L9.4,31l1.333-.77a.5.5,0,0,1,.545.837L9.062,32.688,11.7,31.167A.5.5,0,0,1,12.25,32L7.869,35.362l5.11-2.949a.5.5,0,0,1,.563.822L9.411,36.553l4.911-2.835a.5.5,0,0,1,.559.826L10,38.376l5.718-3.3a.5.5,0,0,1,.542.839l-3.474,2.5,4-2.306a.5.5,0,0,1,.536.843l-2.663,1.856,3.07-1.772a.5.5,0,0,1,.529.847l-3.108,2.1a.491.491,0,0,1,.254.2.5.5,0,0,1-.108.674l-3.515,2.721,3.132-1.807a.5.5,0,0,1,.561.824l-3.444,2.727L15.3,43.424a.5.5,0,0,1,.549.834L14.2,45.481l1.518-.876a.5.5,0,0,1,.551.832l-1.888,1.432,1.883-1.087a.5.5,0,0,1,.566.82l-3.025,2.479,3.281-1.894a.5.5,0,0,1,.564.821l-2.6,2.106L18,48.413a.5.5,0,0,1,.576.812L15.563,51.82l3.65-2.106a.5.5,0,0,1,.548.834l-.3.224.57-.329a.5.5,0,0,1,.581.808l-2.77,2.442,3.706-2.139a.5.5,0,0,1,.552.831l-.535.405,1.053-.607a.5.5,0,0,1,.569.818l-1.771,1.464,2.733-1.578a.5.5,0,0,1,.578.81l-1.985,1.72,3.331-1.923a.5.5,0,0,1,.576.813l-1.641,1.406,3.083-1.78a.5.5,0,0,1,.575.812l-1.271,1.088,1.853-1.069a.5.5,0,0,1,.575.812l-.289.247.145-.083a.5.5,0,0,1,.644.74l-.725.931a.5.5,0,0,1,.225.932l-1.814,1.048a.5.5,0,0,1-.645-.741l.595-.763L25.331,59.4A.493.493,0,0,1,25.081,59.47Z" fill="#6de08e"></path><path d="M49.382,30.164a.5.5,0,0,1-.3-.9l1.071-.8-1.4.806a.5.5,0,0,1-.558-.827l4.606-3.592-5.393,3.113a.5.5,0,0,1-.534-.844l.715-.5-.979.564a.5.5,0,0,1-.541-.838L47.4,25.4l-1.646.951a.5.5,0,0,1-.543-.838l2.561-1.855L44.765,25.4a.5.5,0,0,1-.552-.832l4.7-3.554-5.435,3.137a.5.5,0,0,1-.547-.834L47.9,19.638,42.228,22.91a.5.5,0,0,1-.7-.662l.484-.936a.5.5,0,0,1-.463-.885l1.438-.831a.5.5,0,0,1,.7.662l-.483.934L55,14.38a.5.5,0,0,1,.548.834l-4.963,3.674,4.815-2.78a.5.5,0,0,1,.552.831l-4.7,3.556,4.392-2.536a.5.5,0,0,1,.543.838L53.63,20.65l2.112-1.218a.5.5,0,0,1,.541.839l-1.323.948,2.683-1.549a.5.5,0,0,1,.534.844l-.719.5,1.071-.618a.5.5,0,0,1,.558.827l-4.605,3.592L57.1,23.3a.5.5,0,0,1,.549.834L54.3,26.627a.464.464,0,0,1,.111.133.5.5,0,0,1-.183.682l-4.6,2.655A.491.491,0,0,1,49.382,30.164Z" fill="#6de08e"></path><path d="M45.019,20.174a.5.5,0,0,1-.315-.889l4.357-3.533-4,2.311a.5.5,0,0,1-.54-.839l.386-.276L44.815,17a.5.5,0,0,1-.548-.833l1.852-1.384-1.7.98a.5.5,0,0,1-.555-.829l2.23-1.71L43.881,14.5a.5.5,0,0,1-.546-.836l.822-.6-.8.463a.5.5,0,0,1-.564-.822l2.665-2.149-2.938,1.7a.5.5,0,0,1-.553-.83l1.391-1.062-1.608.929a.5.5,0,0,1-.586-.8L44.49,7.468l-4.153,2.4a.5.5,0,0,1-.573-.814L42.258,6.94,39.01,8.815a.5.5,0,0,1-.593-.8L41.36,5.251,37.144,7.686a.5.5,0,0,1-.584-.8l2.378-2.13L35.246,6.883a.5.5,0,0,1-.587-.8l2.2-2.015L32.993,6.3a.5.5,0,0,1-.587-.8L34.27,3.8,31.118,5.621a.5.5,0,0,1-.612-.777l1.571-1.655L30.312,4.208a.5.5,0,0,1-.64-.744l.7-.877a.5.5,0,0,1-.193-.93L31.994.609a.5.5,0,0,1,.641.745L32.1,2.02,34.567.6a.5.5,0,0,1,.613.777L33.609,3.028,37.781.62a.5.5,0,0,1,.587.8L36.5,3.12,40.347.9a.5.5,0,0,1,.587.8l-2.2,2.013,3.887-2.244a.5.5,0,0,1,.584.8l-2.38,2.13L44.593,2.23a.5.5,0,0,1,.593.8L42.241,5.8l4.351-2.511a.5.5,0,0,1,.573.815l-2.5,2.111,3.378-1.949a.5.5,0,0,1,.586.8L45.3,8.08l4.33-2.5a.5.5,0,0,1,.553.83L48.8,7.468l1.726-1a.5.5,0,0,1,.564.822L48.421,9.446l3.126-1.8a.5.5,0,0,1,.546.836l-.817.6.944-.544a.5.5,0,0,1,.554.829l-2.231,1.711,2.42-1.4a.5.5,0,0,1,.549.833L51.657,11.9l1.925-1.111a.5.5,0,0,1,.54.84l-.383.272.3-.171a.5.5,0,0,1,.565.821L50.244,16.08l4.485-2.589a.5.5,0,0,1,.5.865l-9.96,5.75A.5.5,0,0,1,45.019,20.174Z" fill="#6de08e"></path><path d="M1.05,40.077a3.523,3.523,0,0,0,2.241.419A19.532,19.532,0,0,0,19.4,59.232a28.827,28.827,0,0,0,4.8.256,16.674,16.674,0,0,0,4.166-.121,2.952,2.952,0,0,0,1.949-4.316c-.97-1.526-3.18-1.422-4.725-1.934a14.46,14.46,0,0,1-9.826-12.6,4.967,4.967,0,0,0,1.876-.205,2.307,2.307,0,0,0,.4-.2,16.013,16.013,0,0,0,26.886-5.387,15.249,15.249,0,0,0,.8-4.569,15.011,15.011,0,0,0-.273-3.222c-.005-.025-.013-.049-.018-.073l2.472,2.4a3.906,3.906,0,0,0,1.649,1.2c1.963.523,3.579-1.763,4.805-2.954l4.793-4.655a.589.589,0,0,0,.154-.221,1.954,1.954,0,0,0-.47-2.825,3.654,3.654,0,0,0-2.123-.372A19.616,19.616,0,0,0,40.585.713,28.325,28.325,0,0,0,35.829.45a16.74,16.74,0,0,0-4.21.119,3,3,0,0,0-1.928,4.4c.99,1.558,3.162,1.441,4.733,1.962a14.386,14.386,0,0,1,9.808,12.5,4.412,4.412,0,0,0-2.106.295,2.356,2.356,0,0,0-.2.13,15.7,15.7,0,0,0-15.367-4.669A15.873,15.873,0,0,0,15.085,25.3a15.185,15.185,0,0,0-.805,4.544,15.011,15.011,0,0,0,.232,3.008c.019.107.054.21.076.316q-1.216-1.182-2.434-2.364A3.625,3.625,0,0,0,10.3,29.552c-1.921-.319-3.427,1.809-4.639,2.985L.864,37.193A1.9,1.9,0,0,0,1.05,40.077ZM44.943,20.55c.29,0,.8-.253.794-.6A14.864,14.864,0,0,0,40.514,8.927a15.448,15.448,0,0,0-5.6-3.11c-1.529-.464-4.51-.434-4.16-2.8C31.029,1.184,33.064,1.55,34.4,1.55c1.27,0,2.554-.047,3.822.034A18.073,18.073,0,0,1,49.754,6.8,18.946,18.946,0,0,1,55.266,20.05c0,.379.345.5.676.5a9.525,9.525,0,0,1,1.253,0,1.084,1.084,0,0,1,.733,1.847l-2.946,2.861a38.048,38.048,0,0,1-3.92,3.807c-1.134.81-2.334-.937-3.079-1.66L43.6,23.152a4.453,4.453,0,0,1-1.158-1.281C41.78,20.246,44.074,20.55,44.943,20.55ZM16.457,25.189a14.92,14.92,0,0,1,5.313-7.341c6.135-4.5,14.626-2.666,19.274,3.057a1.981,1.981,0,0,0,.359,2.044,23.364,23.364,0,0,0,1.839,1.875c.081.33.308.751.391,1.024q.188.623.323,1.259A14.8,14.8,0,0,1,43.43,35.1a14.7,14.7,0,0,1-5.512,7.2c-6.151,4.215-14.374,2.374-18.962-3.223A1.779,1.779,0,0,0,18.8,37.3a10.262,10.262,0,0,0-1.381-1.384l-.639-.62a7.809,7.809,0,0,0-.413-1.147q-.189-.623-.323-1.259a14.964,14.964,0,0,1,.413-7.7Zm-7.531,5.7c1.112-.834,2.215.842,2.98,1.585l4.379,4.253A9.381,9.381,0,0,1,17.368,37.8a1,1,0,0,1-.75,1.712,11.2,11.2,0,0,1-1.359,0c-.281,0-1,.13-.991.555a14.741,14.741,0,0,0,5.209,10.974,15.528,15.528,0,0,0,5.594,3.1c1.567.476,4.518.44,4.176,2.86-.268,1.905-2.308,1.514-3.686,1.514-1.253,0-2.517.041-3.769-.041a18.066,18.066,0,0,1-11.541-5.258A19.032,19.032,0,0,1,4.73,39.933a.439.439,0,0,0-.47-.421,12.366,12.366,0,0,1-1.32,0,1.162,1.162,0,0,1-.88-1.954L5.006,34.7A44.4,44.4,0,0,1,8.926,30.889Z" fill="#262626"></path><path d="M24.907,27.463a2.668,2.668,0,0,0,2.68-2.528,2.466,2.466,0,0,0-2.57-2.4,2.654,2.654,0,0,0-2.6,2.527A2.449,2.449,0,0,0,24.907,27.463Zm0-3.989a1.594,1.594,0,0,1,1.506,1.591,1.394,1.394,0,0,1-1.463,1.46,1.613,1.613,0,0,1-1.363-1.59A1.4,1.4,0,0,1,24.907,23.474Z" fill="#262626"></path><path d="M32.413,35.065a2.449,2.449,0,0,0,2.494,2.4,2.668,2.668,0,0,0,2.68-2.528,2.466,2.466,0,0,0-2.57-2.4A2.654,2.654,0,0,0,32.413,35.065Zm4,0a1.394,1.394,0,0,1-1.463,1.46,1.613,1.613,0,0,1-1.363-1.59,1.4,1.4,0,0,1,1.32-1.461A1.594,1.594,0,0,1,36.413,35.065Z" fill="#262626"></path><path d="M23.342,36.045c-.235.234.206.268.349.263a1.566,1.566,0,0,0,.967-.353l10.5-10.5,1.5-1.5c.235-.234-.206-.268-.349-.263a1.566,1.566,0,0,0-.967.353l-10.5,10.5Z" fill="#262626"></path><path d="M13.435,52.467c.471.359,1.763-.314,1.127-.8A14.9,14.9,0,0,1,8.73,39.935c0-.717-1.466-.47-1.462.13A15.631,15.631,0,0,0,13.435,52.467Z" fill="#262626"></path><path d="M51.277,20.194c0,.223,1.451.019,1.449-.388A15.35,15.35,0,0,0,46.685,7.687c-.312-.238-1.567.337-1.366.49A15.193,15.193,0,0,1,51.277,20.194Z" fill="#262626"></path></svg>