<!-- icon666.com - MILLIONS vector ICONS FREE --><svg id="Icons" viewBox="0 0 60 60" xmlns="http://www.w3.org/2000/svg"><path d="m20.679 59.471a.5.5 0 0 1 -.266-.924l3.249-2.039-5.015 2.892a.5.5 0 0 1 -.523-.851l13.355-8.723-15.879 9.174a.5.5 0 0 1 -.513-.857l3.8-2.355-4.335 2.5a.5.5 0 0 1 -.522-.852l16.029-10.364-16.583 9.574a.5.5 0 0 1 -.513-.858l5.8-3.588-5.483 3.164a.5.5 0 0 1 -.518-.854l14.983-9.563-14.465 8.353a.5.5 0 0 1 -.515-.857l11.171-7.016-10.656 6.15a.5.5 0 0 1 -.517-.855l12.782-8.077-12.265 7.081a.5.5 0 0 1 -.511-.86l1.372-.84-.861.5a.5.5 0 0 1 -.517-.854l13.937-8.853-13.42 7.745a.5.5 0 0 1 -.515-.856l10.215-6.395-9.7 5.6a.5.5 0 0 1 -.513-.857l7.9-4.914-7.387 4.266a.5.5 0 0 1 -.52-.853l16.153-10.374-15.633 9.025a.5.5 0 0 1 -.513-.857l7.938-4.936-7.425 4.287a.5.5 0 0 1 -.517-.855l13.123-8.3-12.606 7.272a.5.5 0 0 1 -.513-.857l8.072-5.021-7.559 4.361a.5.5 0 0 1 -.514-.857l9.6-5.995-9.086 5.245a.5.5 0 0 1 -.519-.853l15.472-9.9-14.953 8.632a.5.5 0 0 1 -.517-.854l13.514-8.568-13 7.5a.5.5 0 0 1 -.52-.852l16.617-10.698-16.094 9.294a.5.5 0 0 1 -.518-.855l13.993-8.889-13.475 7.78a.5.5 0 0 1 -.513-.858l7.047-4.372-6.534 3.773a.5.5 0 0 1 -.519-.854l15.124-9.685-14.606 8.431a.5.5 0 0 1 -.516-.855l11.259-7.11-10.743 6.2a.5.5 0 0 1 -.515-.857l8.35-5.247-7.835 4.524a.5.5 0 0 1 -.521-.853l11.479-7.436-10.958 6.325a.5.5 0 0 1 -.522-.853l8.648-5.61-8.126 4.691a.5.5 0 0 1 -.529-.847l9.321-6.283-8.792 5.075a.5.5 0 0 1 -.518-.854l.425-.271a.5.5 0 0 1 -.445-.883l6.738-4.754-6.2 3.579a.5.5 0 0 1 -.542-.838l4.569-3.293-4.027 2.324a.5.5 0 0 1 -.55-.832l3.155-2.381-2.605 1.5a.5.5 0 0 1 -.553-.83l1.156-.885-.6.348a.5.5 0 0 1 -.64-.744l1.605-2.015-.024.014a.5.5 0 1 1 -.5-.865l2.309-1.335a.5.5 0 0 1 .641.744l-1.609 2.019 4.989-2.877a.5.5 0 0 1 .553.83l-1.158.885 2.974-1.715a.5.5 0 0 1 .551.832l-3.154 2.378 5.564-3.21a.5.5 0 0 1 .542.838l-4.57 3.293 7.158-4.131a.5.5 0 0 1 .538.84l-6.735 4.749 9.684-5.589a.5.5 0 0 1 .518.854l-.231.148 1.736-1a.5.5 0 0 1 .53.847l-9.317 6.278 12.35-7.127a.5.5 0 0 1 .522.852l-8.653 5.611 11.2-6.463a.5.5 0 0 1 .522.852l-11.477 7.431 14.069-8.122a.5.5 0 0 1 .515.856l-8.352 5.248 9.3-5.367a.5.5 0 0 1 .516.856l-11.265 7.115 11.717-6.769a.5.5 0 0 1 .52.854l-15.12 9.69 15.112-8.726a.5.5 0 0 1 .514.857l-7.026 4.355 6.52-3.761a.5.5 0 0 1 .518.854l-13.993 8.889 13.475-7.779a.5.5 0 0 1 .52.852l-16.614 10.7 16.094-9.292a.5.5 0 0 1 .517.855l-13.514 8.567 13-7.5a.5.5 0 0 1 .519.854l-15.472 9.9 14.95-8.637a.5.5 0 0 1 .514.857l-9.595 5.995 9.081-5.242a.5.5 0 0 1 .513.857l-8.088 5.031 7.575-4.373a.5.5 0 0 1 .517.856l-13.123 8.3 12.606-7.274a.5.5 0 0 1 .513.858l-7.921 4.924 7.408-4.276a.5.5 0 0 1 .52.854l-16.153 10.374 15.633-9.026a.5.5 0 0 1 .513.858l-7.921 4.924 7.408-4.276a.5.5 0 0 1 .515.857l-10.201 6.39 9.686-5.6a.5.5 0 0 1 .517.854l-13.937 8.859 13.425-7.75a.5.5 0 0 1 .511.859l-1.345.824.834-.481a.5.5 0 0 1 .517.855l-12.787 8.08 12.265-7.084a.5.5 0 0 1 .515.857l-11.184 7.027 10.669-6.162a.5.5 0 0 1 .518.854l-14.973 9.557 14.455-8.349a.5.5 0 0 1 .512.858l-5.821 3.6 5.31-3.064a.5.5 0 0 1 .521.852l-16.02 10.365 15.5-8.948a.5.5 0 0 1 .512.857l-3.807 2.357 3.295-1.9a.5.5 0 0 1 .523.852l-13.352 8.72 12.829-7.406a.5.5 0 0 1 .515.856l-3.255 2.042 2.74-1.581a.5.5 0 0 1 .53.847l-10.952 7.425 10.419-6.016a.5.5 0 0 1 .526.85l-5.959 3.947 5.433-3.136a.5.5 0 0 1 .532.846l-5.528 3.777 5-2.884a.5.5 0 0 1 .55.832l-6.135 4.63 5.585-3.224a.5.5 0 0 1 .569.817l-4.231 3.505 3.662-2.113a.5.5 0 0 1 .574.813l-1.797 1.524 1.126-.65a.5.5 0 0 1 .609.781l-1.069 1.109a.49.49 0 0 1 .294.231.5.5 0 0 1 -.183.682l-2.308 1.333a.5.5 0 0 1 -.61-.78l.685-.709-2.781 1.603a.5.5 0 0 1 -.575-.813l1.795-1.529-4.059 2.342a.5.5 0 0 1 -.57-.817l4.232-3.505-7.486 4.322a.5.5 0 0 1 -.551-.832l6.134-4.628-9.461 5.46a.5.5 0 0 1 -.533-.845l5.525-3.77-8 4.616a.5.5 0 0 1 -.527-.849l5.963-3.95-8.31 4.798a.5.5 0 0 1 -.53-.846l10.951-7.428-14.332 8.274a.5.5 0 0 1 -.25.071z" fill="#c0def4"></path><path d="m25.079 6.471a.5.5 0 0 1 -.314-.889l1.146-.926-2.911 1.68a.5.5 0 0 1 -.562-.824l.877-.7-1.51.873a.5.5 0 0 1 -.562-.825l.084-.066a.5.5 0 0 1 -.546-.823l.353-.325a.5.5 0 0 1 -.592-.6l.3-1.265a.5.5 0 0 1 -.062-.895l.5-.289a.5.5 0 0 1 .737.547l-.237 1 2.7-1.553a.5.5 0 0 1 .589.8l-.273.251 1.827-1.054a.5.5 0 0 1 .562.824l-.072.056 1.533-.884a.5.5 0 0 1 .561.824l-.876.7 2.641-1.528a.5.5 0 0 1 .564.821l-1.149.928 3.037-1.753a.5.5 0 0 1 .613.777l-2.337 2.467 5.631-3.251a.5.5 0 0 1 .575.813l-1.686 1.441 2.5-1.443a.5.5 0 0 1 .57.816l-.547.458a.5.5 0 0 1 .579.8l-.408.406a.5.5 0 0 1 .209.931l-2.792 1.609a.5.5 0 0 1 -.6-.787l.158-.157-1.64.944a.5.5 0 0 1 -.57-.816l.547-.457-2.207 1.273a.5.5 0 0 1 -.576-.812l1.686-1.442-3.903 2.254a.5.5 0 0 1 -.614-.776l2.337-2.468-5.62 3.244a.493.493 0 0 1 -.25.071z" fill="#4a4a59"></path><path d="m42.994 45.5a.5.5 0 0 1 -.3-.9l2.761-2.034-4.175 2.405a.5.5 0 0 1 -.549-.833l5.156-3.851-4.607 2.659a.5.5 0 0 1 -.54-.84l3.383-2.406-2.843 1.639a.5.5 0 0 1 -.539-.841l2.364-1.675-1.825 1.054a.5.5 0 0 1 -.541-.839l.693-.5-.152.087a.5.5 0 0 1 -.572-.815l1.838-1.55-1.266.73a.5.5 0 0 1 -.611-.778l.972-1.018-.361.208a.5.5 0 0 1 -.734-.557l.277-1.076a.484.484 0 0 1 -.225-.205.5.5 0 0 1 .182-.682l.5-.29a.5.5 0 0 1 .553.034.5.5 0 0 1 .182.523l-.205.791 2.349-1.355a.5.5 0 0 1 .611.778l-.97 1.022 3.123-1.8a.5.5 0 0 1 .572.814l-1.838 1.551 4.11-2.372a.5.5 0 0 1 .541.839l-.692.5 2.322-1.341a.5.5 0 0 1 .54.841l-2.358 1.663 2.6-1.5a.5.5 0 0 1 .54.84l-3.385 2.41 2.849-1.644a.5.5 0 0 1 .548.833l-5.155 3.85 4.611-2.662a.5.5 0 0 1 .547.835l-2.761 2.035 2.218-1.281a.5.5 0 0 1 .589.8l-2.931 2.704 2.351-1.358a.5.5 0 0 1 .674.7l-1.19 1.9.522-.3a.5.5 0 0 1 .5.866l-2.268 1.309a.5.5 0 0 1 -.673-.7l1.191-1.9-4.514 2.6a.5.5 0 0 1 -.588-.8l2.933-2.7-6.084 3.513a.491.491 0 0 1 -.25.07z" fill="#71717c"></path><path d="m38.6 32.479a.5.5 0 0 1 -.36-.848l2.246-2.32-4.005 2.311a.5.5 0 0 1 -.5-.865l7.1-4.1a.5.5 0 0 1 .609.78l-2.246 2.323 5.477-3.16a.5.5 0 0 1 .58.807l-1.843 1.622 4.211-2.43a.5.5 0 0 1 .613.776l-2.321 2.448 4.1-2.364a.5.5 0 0 1 .622.767l-1.567 1.741 2.664-1.537a.5.5 0 0 1 .593.8l-.206.2.677-.391a.5.5 0 0 1 .684.682l-.517.9 1.3-.751a.5.5 0 0 1 .73.57l-.14.494.608-.351a.5.5 0 0 1 .5.866l-1.678.968a.5.5 0 0 1 -.73-.569l.14-.494-1.841 1.046a.5.5 0 0 1 -.684-.681l.517-.9-2.738 1.58a.5.5 0 0 1 -.593-.8l.209-.2-1.724.994a.5.5 0 0 1 -.622-.766l1.56-1.727-4.344 2.509a.5.5 0 0 1 -.614-.776l2.322-2.448-5.589 3.224a.5.5 0 0 1 -.58-.807l1.842-1.623-4.212 2.432a.493.493 0 0 1 -.25.068z" fill="#bcc1cc"></path><path d="m39.155 45.5a.5.5 0 0 1 -.377-.828l1.868-2.146-1.366.788a.5.5 0 0 1 -.627-.76l1.983-2.276-1.356.783a.5.5 0 0 1 -.615-.775l1.655-1.771-1.04.6a.5.5 0 0 1 -.608-.781l1.428-1.466-.818.472a.5.5 0 0 1 -.648-.735l1.46-1.93-.812.468a.5.5 0 0 1 -.728-.578l.242-.806a.5.5 0 0 1 -.014-.874l.507-.292a.5.5 0 0 1 .729.578l-.143.475 1.856-1.071a.5.5 0 0 1 .649.735l-1.459 1.929 1.8-1.042a.5.5 0 0 1 .608.782l-1.425 1.464.822-.474a.5.5 0 0 1 .615.774l-1.656 1.771 1.045-.6a.5.5 0 0 1 .627.761l-1.983 2.276 1.362-.786a.5.5 0 0 1 .627.761l-1.863 2.142 1.245-.718a.5.5 0 0 1 .737.544l-.3 1.321a.5.5 0 0 1 .069.9l-.506.292a.5.5 0 0 1 -.737-.544l.245-1.073-2.846 1.643a.489.489 0 0 1 -.252.067z" fill="#bcc1cc"></path><path d="m52.2 45.491a.5.5 0 0 1 -.4-.8l1.28-1.683-1.8 1.04a.5.5 0 0 1 -.592-.8l.841-.8-.249.144a.5.5 0 0 1 -.586-.8l.509-.462a.5.5 0 0 1 -.539-.809l1.7-1.829-1.079.623a.5.5 0 0 1 -.628-.76l1.989-2.29-1.361.786a.5.5 0 0 1 -.651-.731l1.245-1.678-.594.342a.5.5 0 0 1 -.724-.59l.216-.653a.5.5 0 0 1 .008-.862l.507-.292a.505.505 0 0 1 .566.046.5.5 0 0 1 .159.545l-.094.284 1.544-.891a.5.5 0 0 1 .651.731l-1.245 1.677 1.856-1.07a.5.5 0 0 1 .628.761l-1.988 2.288 1.365-.788a.5.5 0 0 1 .617.772l-1.7 1.83 1.085-.626a.5.5 0 0 1 .586.8l-.506.458a.5.5 0 0 1 .516.833l-.843.8.254-.146a.5.5 0 0 1 .625.1.5.5 0 0 1 .023.633l-1.281 1.683.638-.368a.5.5 0 0 1 .727.583l-.227.718a.5.5 0 0 1 0 .867l-.506.292a.5.5 0 0 1 -.726-.583l.116-.368-1.679.969a.489.489 0 0 1 -.253.074z" fill="#bcc1cc"></path><path d="m41.177 35.471a.5.5 0 0 1 -.345-.863l1.108-1.052-3.2 1.847a.5.5 0 0 1 -.6-.791l1.186-1.154-2.777 1.6a.5.5 0 0 1 -.643-.743l1.228-1.553-.854.492a.5.5 0 0 1 -.731-.568l.258-.923a.491.491 0 0 1 -.209-.2.5.5 0 0 1 .182-.682l.5-.289a.5.5 0 0 1 .732.567l-.172.614 2.06-1.18a.5.5 0 0 1 .642.742l-1.228 1.556 3.987-2.3a.5.5 0 0 1 .6.791l-1.187 1.154 3.378-1.949a.5.5 0 0 1 .595.795l-1.109 1.053 3.209-1.852a.5.5 0 0 1 .636.751l-1.5 1.822 4.466-2.578a.5.5 0 0 1 .619.77l-1.438 1.575 4.069-2.35a.5.5 0 0 1 .618.771l-1.437 1.566 3.909-2.257a.5.5 0 0 1 .614.776l-1.329 1.411.716-.412a.5.5 0 0 1 .667.708l-.376.57a.5.5 0 0 1 .156.924l-1.342.774a.5.5 0 0 1 -.614-.089.5.5 0 0 1 -.053-.619l.227-.343-1.833 1.047a.5.5 0 0 1 -.614-.775l1.327-1.41-3.787 2.185a.5.5 0 0 1 -.618-.77l1.438-1.567-4.048 2.337a.5.5 0 0 1 -.619-.769l1.439-1.575-4.062 2.344a.5.5 0 0 1 -.636-.751l1.5-1.822-4.455 2.573a.49.49 0 0 1 -.25.071z" fill="#f1f3f5"></path><path d="m38.646 48.5a.5.5 0 0 1 -.348-.858l2.233-2.174-3.252 1.877a.5.5 0 0 1 -.592-.8l.966-.9-.374.214a.5.5 0 0 1 -.638-.746l.526-.654a.492.492 0 0 1 -.277-.225.5.5 0 0 1 .183-.683l1.627-.941a.5.5 0 0 1 .639.747l-.235.292 1.823-1.049a.5.5 0 0 1 .592.8l-.965.9 2.946-1.7a.5.5 0 0 1 .6.791l-2.233 2.173 5.133-2.964a.5.5 0 0 1 .609.78l-2.317 2.389 5.49-3.169a.5.5 0 0 1 .595.8l-2.17 2.066 4.958-2.866a.5.5 0 0 1 .59.8l-2.076 1.921 3.5-2.019a.5.5 0 0 1 .586.8l-1.235 1.12 1.183-.682a.5.5 0 0 1 .68.688l-.8 1.357.15-.087a.5.5 0 1 1 .5.865l-1.8 1.042a.5.5 0 0 1 -.68-.687l.8-1.358-3.553 2.05a.5.5 0 0 1 -.586-.8l1.231-1.12-3.338 1.927a.5.5 0 0 1 -.589-.8l2.072-1.924-4.723 2.726a.5.5 0 0 1 -.6-.795l2.169-2.065-4.964 2.866a.5.5 0 0 1 -.61-.78l2.328-2.389-5.5 3.175a.489.489 0 0 1 -.254.069z" fill="#f1f3f5"></path><path d="m51.966 51.471a.5.5 0 0 1 -.319-.886l.147-.12-1.627.938a.5.5 0 0 1 -.621-.768l1.432-1.581-4.071 2.346a.5.5 0 0 1 -.6-.788l1.225-1.212-3.468 2a.5.5 0 0 1 -.655-.725l1.481-2.043-4.79 2.768a.5.5 0 0 1 -.643-.742l1.5-1.9-4.587 2.642a.5.5 0 0 1 -.612-.777l1.359-1.423-1.837 1.059a.5.5 0 0 1 -.661-.717l.732-1.061a.508.508 0 0 1 -.461-.249.5.5 0 0 1 .183-.683l1.627-.938a.5.5 0 0 1 .661.717l-.659.955 2.921-1.683a.5.5 0 0 1 .612.777l-1.359 1.423 3.82-2.2a.5.5 0 0 1 .643.742l-1.495 1.9 4.577-2.642a.5.5 0 0 1 .655.725l-1.476 2.04 4.8-2.768a.5.5 0 0 1 .6.788l-1.233 1.215 3.467-2a.5.5 0 0 1 .621.768l-1.431 1.58 4.069-2.348a.5.5 0 0 1 .569.818l-.146.12.949-.548a.5.5 0 0 1 .594.8l-.667.632.767-.442a.5.5 0 0 1 .712.621l-.506 1.243a.5.5 0 0 1 .37.918l-1.122.647a.5.5 0 0 1 -.713-.621l.494-1.213-3.177 1.825a.5.5 0 0 1 -.594-.8l.667-.631-2.474 1.431a.493.493 0 0 1 -.25.071z" fill="#bcc1cc"></path><path d="m7.823 28.5a.5.5 0 0 1 -.3-.9l3.614-2.638-3.857 2.224a.5.5 0 0 1 -.546-.836l4.566-3.35-4.02 2.322a.5.5 0 0 1 -.551-.832l5.294-4-4.743 2.742a.5.5 0 0 1 -.545-.836l1.711-1.247-1.166.673a.5.5 0 0 1 -.567-.822l1.867-1.534-1.3.75a.5.5 0 0 1 -.635-.751l1.34-1.622-.7.406a.5.5 0 0 1 -.731-.567l.257-.916a.5.5 0 0 1 -.026-.88l.5-.29a.5.5 0 0 1 .557.038.5.5 0 0 1 .175.529l-.17.607 2.044-1.18a.5.5 0 0 1 .635.751l-1.34 1.622 4.127-2.382a.5.5 0 0 1 .567.818l-1.87 1.539 4.09-2.364a.5.5 0 0 1 .544.837l-1.704 1.244 3.617-2.088a.5.5 0 0 1 .55.832l-5.295 4 4.913-2.835a.5.5 0 0 1 .546.835l-4.564 3.347 4.022-2.322a.5.5 0 0 1 .545.837l-3.618 2.639 3.078-1.776a.5.5 0 0 1 .538.841l-.389.275a.512.512 0 0 1 .5.189.5.5 0 0 1 -.053.661l-2.5 2.4 1.909-1.1a.5.5 0 0 1 .642.743l-.873 1.1.235-.135a.5.5 0 0 1 .723.595l-.2.573a.5.5 0 0 1 -.021.852l-.5.29a.5.5 0 0 1 -.724-.595l.063-.181-1.354.781a.5.5 0 0 1 -.641-.743l.873-1.1-3.2 1.85a.5.5 0 0 1 -.6-.793l2.5-2.4-5.551 3.2a.5.5 0 0 1 -.538-.841l.173-.122-1.678.968a.491.491 0 0 1 -.245.068z" fill="#71717c"></path><path d="m3.7 15.479a.5.5 0 0 1 -.327-.878l1.689-1.464-2.58 1.485a.5.5 0 0 1 -.5-.865l7.1-4.1a.5.5 0 0 1 .577.811l-1.689 1.466 4.046-2.334a.5.5 0 0 1 .569.817l-1.4 1.159 3.424-1.976a.5.5 0 0 1 .556.828l-.5.385 1.952-1.127a.5.5 0 0 1 .593.8l-2.037 1.914 3.227-1.86a.5.5 0 0 1 .639.747l-1.539 1.903 2.769-1.6a.5.5 0 0 1 .651.73l-.75 1.011 1.574-.908a.5.5 0 0 1 .72.6l-.3.826 1.041-.6a.5.5 0 1 1 .5.865l-2.227 1.286a.5.5 0 0 1 -.72-.6l.3-.825-2.477 1.425a.5.5 0 0 1 -.651-.73l.749-1.011-3.019 1.747a.5.5 0 0 1 -.639-.747l1.543-1.9-4.594 2.648a.5.5 0 0 1 -.593-.8l2.037-1.923-4.714 2.725a.5.5 0 0 1 -.555-.828l.5-.386-2.105 1.215a.5.5 0 0 1 -.569-.817l1.4-1.159-3.426 1.977a.49.49 0 0 1 -.245.068z" fill="#bcc1cc"></path><path d="m6.041 28.492a.5.5 0 0 1 -.373-.833l.876-.981-1.264.729a.5.5 0 0 1 -.58-.807l.377-.332a.528.528 0 0 1 -.436-.186.5.5 0 0 1 .022-.651l1.737-1.892-1.122.648a.5.5 0 0 1 -.609-.781l1.469-1.516-.858.5a.5.5 0 0 1 -.583-.806l.428-.382a.5.5 0 0 1 -.472-.82l1.964-2.249-1.337.767a.5.5 0 0 1 -.739-.534l.326-1.574a.5.5 0 0 1 -.087-.906l.507-.292a.508.508 0 0 1 .543.028.5.5 0 0 1 .2.507l-.279 1.348 2.97-1.717a.5.5 0 0 1 .627.761l-1.963 2.249 1.342-.77a.5.5 0 0 1 .583.806l-.426.38a.512.512 0 0 1 .49.183.5.5 0 0 1 -.035.656l-1.468 1.511.862-.5a.5.5 0 0 1 .619.772l-1.742 1.892 1.129-.651a.5.5 0 0 1 .581.807l-.374.329a.51.51 0 0 1 .434.183.5.5 0 0 1 -.015.649l-.877.983.258-.148a.5.5 0 0 1 .711.626l-.263.623a.494.494 0 0 1 .238.21.5.5 0 0 1 -.183.689l-.716.413a.5.5 0 0 1 -.711-.627l.134-.317-1.665.961a.489.489 0 0 1 -.25.062z" fill="#bcc1cc"></path><path d="m19.328 28.482a.493.493 0 0 1 -.356-.149.5.5 0 0 1 -.074-.606l.68-1.139-2.3 1.326a.5.5 0 0 1 -.588-.8l.617-.567-.029.017a.5.5 0 0 1 -.587-.8l.537-.489a.5.5 0 0 1 -.585-.139.5.5 0 0 1 .006-.646l2.018-2.335-1.389.8a.5.5 0 0 1 -.587-.8l.559-.51a.5.5 0 0 1 -.558-.82l.5-.448a.5.5 0 0 1 -.516-.824l1.253-1.275-.647.373a.5.5 0 0 1 -.737-.545l.306-1.317a.494.494 0 0 1 -.252-.216.5.5 0 0 1 .183-.683l.507-.292a.5.5 0 0 1 .548.032.5.5 0 0 1 .189.515l-.249 1.055 2.835-1.637a.5.5 0 0 1 .607.784l-1.253 1.273.758-.437a.5.5 0 0 1 .586.8l-.495.447a.5.5 0 0 1 .5.842l-.559.512a.5.5 0 0 1 .6.773l-2.013 2.343 1.393-.8a.5.5 0 0 1 .587.8l-.535.487a.5.5 0 0 1 .539.826l-.617.567.033-.018a.5.5 0 0 1 .68.688l-.681 1.14h.006a.5.5 0 1 1 .5.865l-1.67.964a.489.489 0 0 1 -.25.063z" fill="#bcc1cc"></path><path d="m4.688 18.471a.5.5 0 0 1 -.316-.887l.053-.044-1.394.8a.5.5 0 0 1 -.63-.758l1.429-1.661-1.55.894a.5.5 0 0 1 -.739-.537l.317-1.49a.5.5 0 0 1 -.078-.9l.5-.289a.5.5 0 0 1 .74.537l-.268 1.254 3.112-1.8a.5.5 0 0 1 .63.758l-1.428 1.667 4.206-2.428a.5.5 0 0 1 .567.819l-.055.045 1.5-.867a.5.5 0 0 1 .628.105.5.5 0 0 1 .015.638l-1.506 1.9 4.592-2.651a.5.5 0 0 1 .631.755l-1.5 1.773 4.387-2.533a.5.5 0 0 1 .6.787l-1.267 1.261 3.555-2.052a.5.5 0 0 1 .59.8l-1.028.955 2.729-1.575a.5.5 0 0 1 .65.731l-1.36 1.844.726-.418a.5.5 0 0 1 .5.866l-2.834 1.63a.5.5 0 0 1 -.651-.731l1.374-1.841-4.458 2.572a.5.5 0 0 1 -.59-.8l1.028-.955-3.038 1.755a.5.5 0 0 1 -.6-.787l1.266-1.26-3.549 2.047a.5.5 0 0 1 -.632-.755l1.5-1.773-4.383 2.528a.5.5 0 0 1 -.642-.743l1.505-1.9-4.584 2.643a.493.493 0 0 1 -.25.071z" fill="#f1f3f5"></path><path d="m5.453 31.5a.5.5 0 0 1 -.355-.851l2.3-2.33-4.119 2.373a.5.5 0 0 1 -.572-.815l.693-.583-.121.069a.5.5 0 0 1 -.666-.71l.787-1.175a.516.516 0 0 1 -.506-.246.5.5 0 0 1 .183-.683l1.623-.939a.5.5 0 0 1 .666.711l-.737 1.109 3.171-1.83a.5.5 0 0 1 .572.815l-.691.585 2.426-1.4a.5.5 0 0 1 .606.784l-2.3 2.329 5.394-3.113a.5.5 0 0 1 .6.789l-2.253 2.22 5.215-3.009a.5.5 0 0 1 .608.782l-2.3 2.347 5.307-3.065a.5.5 0 0 1 .552.831l-.027.021.559-.323a.5.5 0 0 1 .571.817l-.767.64.751-.433a.5.5 0 0 1 .69.669l-.953 1.781.378-.218a.5.5 0 1 1 .5.866l-1.895 1.093a.494.494 0 0 1 -.6-.073.5.5 0 0 1 -.093-.6l.953-1.78-4.253 2.455a.5.5 0 0 1 -.571-.816l.767-.64-2.53 1.46a.5.5 0 0 1 -.552-.831l.027-.021-1.481.855a.5.5 0 0 1 -.608-.782l2.3-2.346-5.427 3.135a.5.5 0 0 1 -.6-.789l2.254-2.222-5.229 3.016a.489.489 0 0 1 -.247.071z" fill="#f1f3f5"></path><path d="m10.528 34.471a.5.5 0 0 1 -.328-.878l.6-.523-2.307 1.33a.5.5 0 0 1 -.631-.757l1.478-1.729-4.312 2.486a.5.5 0 0 1 -.632-.754l1.483-1.765-4.123 2.384a.5.5 0 0 1 -.614-.776l1.25-1.329-1.113.64a.5.5 0 0 1 -.635-.751l.5-.6a.494.494 0 0 1 -.252-.216.5.5 0 0 1 .183-.683l1.625-.939a.5.5 0 0 1 .636.751l-.155.188 1.65-.952a.5.5 0 0 1 .614.775l-1.245 1.327 3.645-2.1a.5.5 0 0 1 .633.754l-1.489 1.763 4.366-2.52a.5.5 0 0 1 .631.757l-1.477 1.732 4.311-2.486a.5.5 0 0 1 .578.81l-.6.523 2.31-1.333a.5.5 0 0 1 .651.732l-1.492 1.988 4.717-2.72a.5.5 0 0 1 .61.78l-1.335 1.38 3.348-1.933a.5.5 0 0 1 .642.743l-1.312 1.659 1.7-.98a.5.5 0 0 1 .667.708l-.4.6a.5.5 0 0 1 .3.929l-1.58.912a.5.5 0 0 1 -.614-.089.5.5 0 0 1 -.053-.619l.344-.521-2.131 1.231a.5.5 0 0 1 -.642-.743l1.313-1.657-4.161 2.4a.5.5 0 0 1 -.61-.78l1.335-1.383-3.747 2.163a.5.5 0 0 1 -.65-.732l1.492-1.988-4.722 2.72a.493.493 0 0 1 -.25.071z" fill="#bcc1cc"></path><g fill="#262626"><path d="m57.737 46.7a8.743 8.743 0 0 0 -.084-2.429 2.4 2.4 0 0 0 -1.918-1.68v-7.16h.989.026a1.227 1.227 0 0 0 .158 0 1.827 1.827 0 0 0 1.818-1.868c.017-.864 0-1.729 0-2.593.055-.13.025-.263-.164-.372l-4.178-2.387c-1.378-.788-2.615-1.691-4.259-1.713-.8-.011-1.6-.01-2.4-.008v-19.653c0-1.834.143-3.682-1.345-5.072-1.366-1.277-3.05-1.211-4.764-1.211h-22.687c-2.1 0-4.2.024-5.668 1.833s-1.081 4.749-1 7.056q-.853.006-1.707.007a7.463 7.463 0 0 0 -3.93 1.277l-4.95 2.827a.6.6 0 0 0 -.36.489.322.322 0 0 0 -.038.151c0 1.43-.6 4.063 1.443 4.173.513.027 1.03.027 1.547.021v7.493a2.9 2.9 0 0 0 -1.566 1.019 4.3 4.3 0 0 0 -.44 2.722 2.759 2.759 0 0 0 -1.993 2.731c-.022 1.2.309 2.1 1.67 2.169 3.327.176 6.71 0 10.041 0h.3v19.046c0 1.966.044 3.939 1.977 5.1 1.278.767 2.774.62 4.2.62h22.215c1.787 0 3.568.082 5.136-.972 2.331-1.566 1.984-4.472 1.926-6.968h9.821.1.047c.015 0 .035-.007.051-.008.045 0 .076 0 .13-.01a1.881 1.881 0 0 0 1.842-2.13 2.314 2.314 0 0 0 -1.986-2.5zm.525 2.329c.029.227.106 1.507-.124 1.621h-19.863c-1.077 0-2.3.38-2.551-.974a2.085 2.085 0 0 1 .818-2.239.54.54 0 0 0 .194.038h19.976a1.162 1.162 0 0 0 .341-.015 1.853 1.853 0 0 1 1.209 1.572zm-1.973-2.51h-18.568c-.041-1.265-.16-3.044 1.428-3.044h11.441a1.057 1.057 0 0 0 .348.062h4 .02s.034 0 .051 0a1.448 1.448 0 0 1 .907.547 3.765 3.765 0 0 1 .373 2.438zm-19.576-15.085h20.574c.042.889.147 3.036-.184 3.132h-1.58a.915.915 0 0 0 -.461-.106h-4a.961.961 0 0 0 -.376.106h-12.9c-.6 0-.95-.081-1.056-.816a13.251 13.251 0 0 1 -.017-2.316zm7.011 11.075v-7.075h6.541v7.086q-3.265-.004-6.541-.011zm10.541-.448v.4h-2.53v-6.921h2.53zm-14.457-6.627h2.468v7.08c-.851 0-1.7 0-2.552.008v-7.087zm13.1-6.617 3.061 1.749h-18.19l2.347-1.341c1.173-.67 2.443-1.678 3.829-1.719 1.775-.052 3.559 0 5.335 0a6.884 6.884 0 0 1 3.618 1.311zm-15.55-23.094h-11.991c-.829 0-2.014.192-2.755-.274-1.166-.734-.985-2.622-.91-4h16.581c.053 1.136.339 4.139-.925 4.274zm-27.391 4.827c1.775-.054 3.559 0 5.335 0a6.8 6.8 0 0 1 3.612 1.29l3.138 1.793h-18.302l2.388-1.365c1.173-.668 2.441-1.677 3.829-1.718zm-7.243 6.09a15.66 15.66 0 0 1 -.012-2.273h20.569c.028.715.159 3.109-.147 3.266h-1.659a1.18 1.18 0 0 0 -.187-.021h-4a1.605 1.605 0 0 0 -.232.021h-7.467a.808.808 0 0 0 -.524-.16h-4a1.038 1.038 0 0 0 -.5.16h-.802c-.663 0-.95-.239-1.039-.993zm7.01 9v-7.273h6.542v7.313c-2.176-.006-4.361-.034-6.542-.039zm-4-6.706v-.408h2.532v6.946h-2.532zm14.542 6.266v.409h-2.552v-7.221h2.552zm-15.747 1.249a1.013 1.013 0 0 0 .406.078h4 .014a1.26 1.26 0 0 0 .2-.034c.016 0 .03-.006.046-.011a.958.958 0 0 0 .331-.163h6.849a.868.868 0 0 0 .336.071h3.959a1.418 1.418 0 0 0 .143-.008 1.719 1.719 0 0 1 1.3 1.036 4.62 4.62 0 0 1 .185 2.026c-.745 0-1.5.036-2.228.036h-14.101c-.708 0-1.491-.063-2.253-.048-.031-1.072-.116-2.548.813-2.983zm-.34 7.029c-.877 0-2.225.39-2.456-.662a1.768 1.768 0 0 1 1.277-2.294 10.519 10.519 0 0 1 1.109 0h17.506a9.281 9.281 0 0 1 1.248 0 1.578 1.578 0 0 1 1.338 1.194c.054.212.217 1.7-.145 1.762zm40.983 24.409c-1.161 1.1-2.752.826-4.215.826h-21.2c-1.3 0-2.814.185-4-.449-1.979-1.058-2.035-3.024-2.035-4.946v-18.8h9.888a.862.862 0 0 0 .322 0 .82.82 0 0 0 .388-.1c2.3-.744 1.688-4.314-.589-4.862a6.362 6.362 0 0 0 -.166-2.532 2.2 2.2 0 0 0 -1.843-1.3v-7.357h.982c.021 0 .046-.008.068-.01h.114c1.1-.148 1.813-.7 1.836-1.831.018-.839 0-1.68 0-2.519.071-.15.048-.306-.168-.43l-4.178-2.388c-1.371-.783-2.631-1.707-4.265-1.734-.795-.012-1.59-.011-2.386-.009v-2.388a12.844 12.844 0 0 1 .129-3.148c.628-2.405 2.631-2.464 4.6-2.464h1.825v1.675a3.882 3.882 0 0 0 .311 2.145c.682 1.082 1.87 1.011 2.976 1.011h12.959a2.92 2.92 0 0 0 .482-.047 2.766 2.766 0 0 0 2.717-2.475c.039-.766.02-1.539.008-2.309h.323c1.223 0 2.852-.226 4.006.272 2.189.945 2.212 3.076 2.212 5.062v19.708c-.571 0-1.141.006-1.711.006a7.457 7.457 0 0 0 -3.931 1.277l-4.945 2.829a.869.869 0 0 0 -.271.231.333.333 0 0 0 -.141.256c0 1.457-.6 4.171 1.454 4.35a14.47 14.47 0 0 0 1.548.033v7.23a2.74 2.74 0 0 0 -1.544 1.026 5.041 5.041 0 0 0 -.466 3.106 2.624 2.624 0 0 0 -1.99 2.42c-.063 1.12.142 2.017 1.428 2.1 3.36.207 6.8 0 10.161 0h.414c.021 2.048.502 5.01-1.107 6.535z"></path><path d="m17.448 4.622a1.227 1.227 0 0 0 -.539.038 1.2 1.2 0 0 0 -.486.237l-.095.1a.233.233 0 0 0 -.052.2v1a.169.169 0 0 0 .1.114.331.331 0 0 0 .179.07 1.227 1.227 0 0 0 .539-.038 1.2 1.2 0 0 0 .486-.237l.095-.1a.233.233 0 0 0 .052-.2v-1a.169.169 0 0 0 -.1-.114.331.331 0 0 0 -.179-.07z"></path><path d="m42.537 6.321a1.525 1.525 0 0 0 .533-.061 1.507 1.507 0 0 0 .491-.214l.1-.083a.172.172 0 0 0 .063-.157v-1a.122.122 0 0 0 -.089-.083.329.329 0 0 0 -.172-.044 1.525 1.525 0 0 0 -.533.061 1.507 1.507 0 0 0 -.491.214l-.1.083a.171.171 0 0 0 -.063.157v1a.122.122 0 0 0 .089.083.329.329 0 0 0 .172.044z"></path><path d="m36.305 54.677h-12c-.26 0-.822.109-.966.359-.155.268.134.287.356.287h12c.26 0 .822-.109.966-.359.155-.264-.134-.287-.356-.287z"></path><path d="m30.03 44.286-2.608 2.608c-.2.2-.176.426.131.487a1.294 1.294 0 0 0 1.025-.275l3-3c.1-.1.229-.252.1-.385l-3-3c-.344-.344-1.714.192-1.348.558l2.354 2.354a13.82 13.82 0 0 1 -9.724-4.891c-.256-.3-1.63.2-1.36.516a14.561 14.561 0 0 0 11.1 5.07 1.882 1.882 0 0 0 .33-.042z"></path><path d="m31.323 19.268c.316.316 1.676-.214 1.354-.536l-2.24-2.24a13.662 13.662 0 0 1 10.384 5.8c.311.44 1.71-.065 1.339-.59a14.633 14.633 0 0 0 -11.888-6.152 1.817 1.817 0 0 0 -.186.014l2.581-2.581c.244-.245-.21-.349-.372-.347a1.415 1.415 0 0 0 -.962.375l-3 3a.179.179 0 0 0 -.01.254z"></path></g></svg>