<!-- icon666.com - MILLIONS vector ICONS FREE --><svg id="Icons" viewBox="0 0 60 60" xmlns="http://www.w3.org/2000/svg"><path d="m16.976 44.5a.5.5 0 0 1 -.268-.923l6.773-4.277-8.2 4.734a.5.5 0 0 1 -.513-.858l1.626-1-1.113.642a.5.5 0 0 1 -.52-.854l10.15-6.49-9.63 5.559a.5.5 0 0 1 -.524-.851l10.143-6.631-9.62 5.549a.5.5 0 0 1 -.525-.85l8.1-5.34-7.58 4.376a.5.5 0 0 1 -.533-.845l8.242-5.669-7.704 4.456a.5.5 0 0 1 -.538-.842l6.234-4.386-5.7 3.288a.5.5 0 0 1 -.542-.839l4.17-3-3.624 2.09a.5.5 0 0 1 -.558-.827l3.423-2.672-2.865 1.654a.5.5 0 0 1 -.588-.8l2.34-2.137-1.752 1.01a.5.5 0 0 1 -.59-.8l.409-.377a.5.5 0 0 1 -.555-.613l.29-1.2a.5.5 0 0 1 -.054-.892l.5-.289a.5.5 0 0 1 .736.55l-.226.931 2.572-1.484a.5.5 0 0 1 .59.8l-.285.262 1.845-1.064a.5.5 0 0 1 .587.8l-2.338 2.135 5.095-2.941a.5.5 0 0 1 .558.827l-3.424 2.676 6.068-3.5a.5.5 0 0 1 .542.839l-4.168 3 6.651-3.84a.5.5 0 0 1 .539.842l-6.238 4.393 9.074-5.238a.5.5 0 0 1 .533.845l-8.24 5.667 11.287-6.516a.5.5 0 0 1 .525.851l-8.1 5.339 10.727-6.193a.5.5 0 0 1 .523.852l-10.15 6.619 12.957-7.48a.5.5 0 0 1 .519.854l-10.156 6.5 10.839-6.258a.5.5 0 0 1 .512.859l-1.605.992 1.095-.632a.5.5 0 0 1 .516.855l-6.773 4.28 6.259-3.618a.5.5 0 0 1 .526.85l-10.743 7.107 10.22-5.9a.5.5 0 0 1 .522.852l-5.829 3.791 5.309-3.066a.5.5 0 0 1 .529.849l-6.123 4.095 5.6-3.231a.5.5 0 0 1 .542.839l-6.9 4.966 6.366-3.676a.5.5 0 0 1 .53.848l-.705.472.177-.1a.5.5 0 0 1 .541.839l-2.155 1.546 1.616-.933a.5.5 0 0 1 .571.816l-2.749 2.3 2.173-1.264a.5.5 0 0 1 .631.756l-1.646 1.944 1.018-.588a.5.5 0 0 1 .735.552l-.285 1.16a.5.5 0 0 1 .053.891l-.5.289a.5.5 0 0 1 -.735-.551l.217-.889-2.5 1.443a.5.5 0 0 1 -.63-.756l1.646-1.94-4.677 2.7a.5.5 0 0 1 -.57-.816l2.749-2.3-5.4 3.119a.5.5 0 0 1 -.541-.839l2.152-1.544-4.133 2.386a.5.5 0 0 1 -.529-.848l.7-.469-2.285 1.319a.5.5 0 0 1 -.542-.839l6.908-4.969-10.07 5.81a.5.5 0 0 1 -.528-.849l6.118-4.093-8.566 4.946a.5.5 0 0 1 -.522-.852l5.829-3.79-8.041 4.644a.5.5 0 0 1 -.526-.85l10.744-7.108-13.793 7.962a.491.491 0 0 1 -.249.069z" fill="#71717c"></path><path d="m46.018 40.478a.494.494 0 0 1 -.328-.123.5.5 0 0 1 -.137-.562l.447-1.116-2.72 1.568a.5.5 0 0 1 -.591-.8l.728-.675-.137.078a.5.5 0 0 1 -.582-.807l.4-.353a.513.513 0 0 1 -.456-.182.5.5 0 0 1 .02-.652l1.761-1.922-1.142.659a.5.5 0 0 1 -.615-.775l1.647-1.76-1.032.595a.5.5 0 0 1 -.58-.808l.354-.311a.468.468 0 0 1 -.414-.186.5.5 0 0 1 .022-.652l1.495-1.625-.877.506a.5.5 0 0 1 -.736-.549l.3-1.246a.5.5 0 0 1 -.062-.9l.507-.292a.5.5 0 0 1 .736.55l-.236.986 2.7-1.56a.5.5 0 0 1 .618.772l-1.5 1.626 1.114-.643a.5.5 0 0 1 .58.809l-.352.308a.471.471 0 0 1 .416.189.5.5 0 0 1 -.026.652l-1.64 1.766 1.037-.6a.5.5 0 0 1 .62.771l-1.767 1.925 1.147-.662a.5.5 0 0 1 .582.806l-.4.352a.488.488 0 0 1 .47.2.5.5 0 0 1 -.062.663l-.726.675.139-.08a.5.5 0 0 1 .715.617l-.48 1.2a.522.522 0 0 1 .453.25.5.5 0 0 1 -.183.683l-.981.566a.5.5 0 0 1 -.246.069z" fill="#f1f3f5"></path><path d="m13.719 40.495a.5.5 0 0 1 -.356-.852l.637-.637-.716.413a.5.5 0 0 1 -.609-.781l1.452-1.494-.843.486a.5.5 0 0 1 -.623-.767l1.863-2.079-1.24.716a.5.5 0 0 1 -.608-.782l1.4-1.425-.788.454a.5.5 0 0 1 -.6-.787l1.212-1.216-.619.358a.5.5 0 0 1 -.581-.802l.386-.342a.514.514 0 0 1 -.347-.092.5.5 0 0 1 -.2-.507l.325-1.563a.493.493 0 0 1 -.269-.223.5.5 0 0 1 .183-.683l.507-.292a.5.5 0 0 1 .739.536l-.278 1.335 2.972-1.716a.5.5 0 0 1 .582.807l-.384.34a.5.5 0 0 1 .453.193.5.5 0 0 1 -.045.658l-1.224 1.212.625-.36a.5.5 0 0 1 .607.782l-1.4 1.425.792-.457a.5.5 0 0 1 .622.766l-1.854 2.081 1.245-.719a.5.5 0 0 1 .609.782l-1.452 1.495.848-.489a.5.5 0 0 1 .605.785l-.631.635.029-.017a.5.5 0 0 1 .733.562l-.267 1a.5.5 0 0 1 .039.886l-.507.292a.507.507 0 0 1 -.555-.037.5.5 0 0 1 -.178-.526l.189-.7-2.231 1.288a.488.488 0 0 1 -.249.058z" fill="#f1f3f5"></path><path d="m11.732 43.5a.5.5 0 0 1 -.359-.849l1.345-1.381-1.439.83a.5.5 0 0 1 -.653-.729l.65-.887a.5.5 0 0 1 -.2-.93l1.627-.94a.5.5 0 0 1 .622.1.5.5 0 0 1 .032.63l-.516.7 2.502-1.444a.5.5 0 0 1 .608.781l-1.345 1.379 3.19-1.841a.5.5 0 0 1 .588.8l-.607.556.747-.43a.5.5 0 0 1 .665.712l-.611.908.154-.089a.5.5 0 1 1 .5.865l-2.023 1.169a.5.5 0 0 1 -.665-.712l.611-.908-2.825 1.631a.5.5 0 0 1 -.588-.8l.606-.557-2.367 1.366a.488.488 0 0 1 -.249.07z" fill="#bcc1cc"></path><path d="m14.358 29.471a.5.5 0 0 1 -.4-.807l1.514-1.952-3.572 2.065a.5.5 0 0 1 -.59-.8l.352-.328-.277.16a.5.5 0 0 1 -.743-.517l.258-1.492a.5.5 0 0 1 -.115-.915l.5-.29a.5.5 0 0 1 .742.517l-.221 1.3 3.172-1.832a.5.5 0 0 1 .59.8l-.355.33 1.97-1.137a.5.5 0 0 1 .645.74l-1.513 1.952 2.407-1.39a.5.5 0 0 1 .655.726l-.668.922a.5.5 0 0 1 .214.932l-1.614.932a.5.5 0 0 1 -.656-.726l.543-.751-2.588 1.49a.49.49 0 0 1 -.25.071z" fill="#bcc1cc"></path><path d="m45.374 29.471a.5.5 0 0 1 -.336-.871l.112-.1-1.567.9a.5.5 0 0 1 -.614-.775l1.4-1.487-2.6 1.5a.5.5 0 0 1 -.657-.724l.939-1.311-.766.442a.5.5 0 0 1 -.726-.583l.226-.718a.494.494 0 0 1 -.183-.183.5.5 0 0 1 .183-.683l.5-.29a.5.5 0 0 1 .727.584l-.114.363 1.654-.955a.5.5 0 0 1 .656.724l-.938 1.311 3.545-2.048a.5.5 0 0 1 .615.776l-1.4 1.488 2.695-1.555a.5.5 0 0 1 .586.8l-.34.307a.5.5 0 0 1 .25.932l-3.6 2.077a.49.49 0 0 1 -.247.079z" fill="#bcc1cc"></path><path d="m42.015 43.5a.5.5 0 0 1 -.337-.87l.933-.85-1.332.769a.5.5 0 0 1 -.674-.7l.869-1.387a.5.5 0 0 1 -.4-.909l1.627-.94a.5.5 0 0 1 .674.7l-.855 1.365 3.6-2.078a.5.5 0 0 1 .587.8l-.933.849 2.126-1.228a.5.5 0 0 1 .677.694l-1.132 1.851 1.28-.738a.5.5 0 0 1 .731.567l-.234.842a.492.492 0 0 1 .208.2.5.5 0 0 1 -.183.682l-.5.288a.5.5 0 0 1 -.731-.566l.147-.532-1.919 1.108a.5.5 0 0 1 -.677-.693l1.133-1.855-4.434 2.56a.489.489 0 0 1 -.251.071z" fill="#bcc1cc"></path><path d="m12.036 48.5a.5.5 0 0 1 -.348-.86l2.212-2.131-4.62 2.666a.5.5 0 0 1 -.6-.784l2.043-2.064-1.439.83a.5.5 0 0 1 -.656-.724l.682-.949a.5.5 0 0 1 -.23-.932l1.632-.943a.5.5 0 0 1 .621.1.5.5 0 0 1 .035.628l-.573.8 2.652-1.537a.5.5 0 0 1 .606.784l-2.043 2.06 4.931-2.844a.5.5 0 0 1 .6.793l-2.21 2.129 5.06-2.922a.5.5 0 0 1 .57.817l-1.469 1.222 3.532-2.039a.5.5 0 0 1 .561.824l-.967.768 2.76-1.592a.5.5 0 0 1 .591.8l-2.117 1.977 4.808-2.777a.5.5 0 0 1 .6.793l-2.2 2.126 5.048-2.919a.5.5 0 0 1 .607.783l-2.294 2.328 5.39-3.111a.5.5 0 0 1 .568.818l-1.379 1.135 3.389-1.953a.5.5 0 0 1 .613.776l-2.328 2.456 5.6-3.232a.5.5 0 0 1 .564.822l-1.079.866 2.925-1.688a.5.5 0 0 1 .578.809l-1.774 1.542 4.074-2.351a.5.5 0 0 1 .588.8l-2.05 1.886 3.843-2.219a.5.5 0 0 1 .614.777l-1.877 1.983 2.041-1.178a.5.5 0 0 1 .706.637l-.663 1.482a.5.5 0 0 1 .661.194.5.5 0 0 1 -.183.684l-1.315.758a.506.506 0 0 1 -.585-.062.5.5 0 0 1 -.121-.575l.662-1.48-3.671 2.119a.5.5 0 0 1 -.613-.776l1.875-1.983-4.785 2.762a.5.5 0 0 1 -.588-.8l2.051-1.889-4.663 2.692a.5.5 0 0 1 -.578-.809l1.775-1.542-4.079 2.353a.5.5 0 0 1 -.563-.822l1.079-.866-2.929 1.69a.5.5 0 0 1 -.613-.776l2.327-2.456-5.6 3.235a.5.5 0 0 1 -.568-.818l1.378-1.138-3.394 1.957a.5.5 0 0 1 -.606-.783l2.294-2.329-5.394 3.114a.5.5 0 0 1 -.65-.132.5.5 0 0 1 .052-.661l2.2-2.125-5.06 2.921a.5.5 0 0 1 -.591-.8l2.118-1.979-4.812 2.779a.5.5 0 0 1 -.561-.824l.966-.768-2.762 1.594a.5.5 0 0 1 -.569-.818l1.468-1.221-3.535 2.041a.494.494 0 0 1 -.246.071z" fill="#f1f3f5"></path><path d="m8.481 51.471a.5.5 0 0 1 -.32-.884l.265-.222-1 .576a.5.5 0 0 1 -.58-.807l.28-.247a.49.49 0 0 1 -.479-.166.5.5 0 0 1 -.006-.641l.511-.626a.5.5 0 0 1 -.08-.9l1.627-.94a.5.5 0 0 1 .637.749l-.2.241 1.737-1a.5.5 0 0 1 .581.807l-.177.157 1.67-.964a.5.5 0 0 1 .57.816l-.268.224 1.8-1.04a.5.5 0 0 1 .625.762l-1.456 1.657 4.191-2.42a.5.5 0 0 1 .619.77l-1.414 1.54 4-2.31a.5.5 0 0 1 .586.8l-.871.788 2.771-1.591a.5.5 0 0 1 .629.758l-1.472 1.71 4.273-2.468a.5.5 0 0 1 .612.778l-1.356 1.422 3.808-2.2a.5.5 0 0 1 .647.736l-1.493 1.954 4.665-2.69a.5.5 0 0 1 .6.794l-1.123 1.075 3.234-1.869a.5.5 0 0 1 .626.761l-1.461 1.669 4.211-2.43a.5.5 0 0 1 .655.724l-1.477 2.051 4.81-2.775a.5.5 0 0 1 .634.753l-1.487 1.786 4.4-2.539a.5.5 0 0 1 .586.8l-.882.8 2.778-1.6a.5.5 0 0 1 .568.818l-.155.128.945-.546a.5.5 0 0 1 .642.743l-1.178 1.486 1.349-.779a.5.5 0 0 1 .685.678l-.4.706a.5.5 0 0 1 .341.241.5.5 0 0 1 -.183.684l-1.123.647a.5.5 0 0 1 -.686-.678l.28-.5-2.035 1.172a.5.5 0 0 1 -.641-.743l1.174-1.482-3.856 2.225a.5.5 0 0 1 -.568-.818l.16-.132-1.648.95a.5.5 0 0 1 -.585-.8l.879-.8-2.775 1.6a.5.5 0 0 1 -.634-.753l1.487-1.786-4.4 2.539a.5.5 0 0 1 -.655-.724l1.477-2.051-4.804 2.775a.5.5 0 0 1 -.626-.761l1.461-1.672-4.213 2.433a.5.5 0 0 1 -.6-.794l1.123-1.075-3.236 1.869a.5.5 0 0 1 -.648-.736l1.494-1.957-4.665 2.693a.5.5 0 0 1 -.612-.778l1.356-1.42-3.812 2.198a.5.5 0 0 1 -.629-.758l1.472-1.71-4.272 2.468a.5.5 0 0 1 -.585-.8l.87-.788-2.756 1.588a.5.5 0 0 1 -.618-.77l1.418-1.538-4 2.311a.5.5 0 0 1 -.626-.762l1.458-1.658-4.201 2.417a.5.5 0 0 1 -.25.071z" fill="#bcc1cc"></path><path d="m19.348 22.5a.5.5 0 0 1 -.284-.912l4.153-2.846-4.937 2.849a.5.5 0 0 1 -.533-.845l4.028-2.763-3.495 2.017a.5.5 0 0 1 -.537-.842l3.825-2.682-3.288 1.9a.5.5 0 0 1 -.647-.736l1.375-1.8-.728.42a.5.5 0 1 1 -.5-.865l2.9-1.672a.5.5 0 0 1 .647.736l-1.375 1.8 10.948-6.322a.5.5 0 0 1 .537.841l-3.822 2.681 4.829-2.788a.5.5 0 0 1 .534.845l-4.033 2.765 5.005-2.891a.5.5 0 0 1 .532.844l-4.155 2.848 5.143-2.969a.5.5 0 0 1 .544.837l-5.24 3.8 6.526-3.767a.5.5 0 0 1 .543.838l-3.961 2.866 5.06-2.922a.5.5 0 0 1 .533.845l-.475.324 1.084-.625a.5.5 0 0 1 .565.82l-4.039 3.282 5.112-2.95a.5.5 0 0 1 .579.81l-3.101 2.71 2.535-1.462a.5.5 0 0 1 .631.756l-1.553 1.825.928-.535a.5.5 0 0 1 .736.553l-.277 1.106a.5.5 0 0 1 .049.89l-.5.289a.5.5 0 0 1 -.735-.553l.208-.833-2.41 1.39a.5.5 0 0 1 -.63-.757l1.548-1.822-4.474 2.583a.5.5 0 0 1 -.579-.809l3.1-2.711-6.107 3.525a.5.5 0 0 1 -.566-.82l4.038-3.282-7.114 4.107a.5.5 0 0 1 -.532-.846l.48-.328-2.037 1.176a.5.5 0 0 1 -.543-.838l3.963-2.865-6.419 3.707a.5.5 0 0 1 -.543-.837l5.24-3.8-8.037 4.641a.488.488 0 0 1 -.252.069z" fill="#f1f3f5"></path><path d="m19.036 25.471a.5.5 0 0 1 -.323-.882l.391-.331-1.984 1.142a.5.5 0 0 1 -.577-.81l.568-.491-2.256 1.3a.5.5 0 0 1 -.628-.758l1.473-1.705-4.276 2.464a.5.5 0 0 1 -.62-.768l1.425-1.569-2.87 1.657a.5.5 0 0 1 -.609-.781l.679-.7-.15.086a.5.5 0 0 1 -.669-.706l.311-.476a.5.5 0 0 1 -.056-.894l1.129-.649a.5.5 0 0 1 .669.706l-.073.111 1.416-.817a.5.5 0 0 1 .61.78l-.678.7 2.568-1.48a.5.5 0 0 1 .62.768l-1.426 1.567 4.05-2.335a.5.5 0 0 1 .629.758l-1.471 1.709 4.274-2.467a.5.5 0 0 1 .576.81l-.568.491 2.256-1.3a.5.5 0 0 1 .573.814l-.392.331 1.985-1.146a.5.5 0 0 1 .65.732l-1.49 1.99 4.717-2.722a.5.5 0 0 1 .581.807l-.725.641 2.509-1.448a.5.5 0 0 1 .642.742l-1.5 1.9 4.576-2.642a.5.5 0 0 1 .589.8l-.973.9 2.944-1.7a.5.5 0 0 1 .588.8l-.949.874 2.9-1.674a.5.5 0 0 1 .587.8l-.906.827 2.82-1.628a.5.5 0 0 1 .614.775l-1.386 1.467 3.892-2.241a.5.5 0 0 1 .581.807l-.724.639 2.506-1.446a.5.5 0 0 1 .645.739l-1.495 1.923 2.915-1.682a.5.5 0 0 1 .7.648l-.72 1.506a.5.5 0 0 1 .468.883l-1.359.785a.5.5 0 0 1 -.7-.647l.718-1.508-3.735 2.153a.5.5 0 0 1 -.645-.739l1.494-1.923-4.612 2.662a.5.5 0 0 1 -.581-.807l.725-.64-2.508 1.447a.5.5 0 0 1 -.614-.775l1.38-1.469-3.886 2.244a.5.5 0 0 1 -.587-.8l.906-.827-2.82 1.627a.5.5 0 0 1 -.588-.8l.949-.874-2.9 1.674a.5.5 0 0 1 -.589-.8l.973-.9-2.944 1.7a.5.5 0 0 1 -.642-.742l1.5-1.9-4.576 2.642a.5.5 0 0 1 -.581-.807l.726-.641-2.509 1.448a.5.5 0 0 1 -.651-.732l1.488-1.987-4.714 2.719a.5.5 0 0 1 -.25.071z" fill="#f1f3f5"></path><path d="m24.39 59.471a.5.5 0 0 1 -.278-.916l9.9-6.617-12.93 7.462a.5.5 0 0 1 -.525-.849l12.223-8.069-15.451 8.918a.5.5 0 0 1 -.523-.851l13.867-9.005-15.756 9.1a.5.5 0 0 1 -.521-.853l15.189-9.791-15.862 9.154a.5.5 0 0 1 -.523-.854l14.429-9.2-14.349 8.283a.5.5 0 0 1 -.512-.859l4.241-2.613-3.729 2.152a.5.5 0 0 1 -.517-.855l12.782-8.077-12.265 7.081a.5.5 0 0 1 -.511-.859l.452-.277a.5.5 0 0 1 -.457-.886l10.6-6.645-10.084 5.823a.5.5 0 0 1 -.513-.857l6.72-4.165-6.207 3.583a.5.5 0 0 1 -.519-.855l15.055-9.611-14.536 8.391a.5.5 0 0 1 -.519-.854l14.4-9.165-13.881 8.015a.5.5 0 0 1 -.516-.856l11.736-7.394-11.22 6.485a.5.5 0 0 1 -.512-.858l4.415-2.722-3.9 2.253a.5.5 0 0 1 -.512-.859l3.217-1.978-2.7 1.561a.5.5 0 0 1 -.515-.856l9.786-6.118-9.279 5.352a.5.5 0 0 1 -.519-.854l14.439-9.192-13.92 8.038a.5.5 0 0 1 -.518-.852l13.782-8.75-13.264 7.658a.5.5 0 0 1 -.52-.853l15.84-10.155-15.32 8.844a.5.5 0 0 1 -.512-.858l3.839-2.365-3.327 1.921a.5.5 0 0 1 -.52-.853l15.824-10.144-15.304 8.835a.5.5 0 0 1 -.521-.852l16.941-10.928-16.42 9.477a.5.5 0 0 1 -.516-.856l11.536-7.26-11.02 6.364a.5.5 0 0 1 -.521-.854l15.583-10.025-15.062 8.7a.5.5 0 0 1 -.521-.853l14-9-13.479 7.77a.5.5 0 0 1 -.519-.855l10.1-6.447-9.579 5.53a.5.5 0 0 1 -.527-.848l11.945-7.943-11.42 6.6a.5.5 0 0 1 -.522-.852l5.894-3.814-5.372 3.1a.5.5 0 0 1 -.533-.845l8.317-5.709-7.784 4.492a.5.5 0 0 1 -.54-.84l6.727-4.783-6.187 3.571a.5.5 0 0 1 -.545-.837l4.535-3.3-3.99 2.3a.5.5 0 0 1 -.547-.835l2.3-1.7-1.753 1.019a.5.5 0 0 1 -.579-.81l2.435-2.125-1.8 1.037a.5.5 0 0 1 -.619-.77l1.21-1.321a.5.5 0 0 1 -.206-.931l2.311-1.333a.5.5 0 0 1 .618.77l-1 1.1 3.435-1.984a.5.5 0 0 1 .579.809l-2.436 2.124 5.086-2.933a.5.5 0 0 1 .546.835l-2.3 1.693 4.381-2.528a.5.5 0 0 1 .545.837l-4.536 3.3 7.172-4.137a.5.5 0 0 1 .54.84l-6.722 4.777 9.735-5.617a.5.5 0 0 1 .533.844l-8.321 5.709 11.356-6.553a.5.5 0 0 1 .522.852l-5.9 3.815 8.088-4.667a.5.5 0 0 1 .526.848l-11.946 7.938 15.223-8.786a.5.5 0 0 1 .519.854l-10.099 6.446 12.075-6.972a.5.5 0 0 1 .52.853l-14 9.006 15.057-8.687a.5.5 0 0 1 .521.853l-15.577 10.018 15.828-9.139a.5.5 0 0 1 .516.856l-11.547 7.266 11.151-6.437a.5.5 0 0 1 .521.852l-16.941 10.931 16.42-9.48a.5.5 0 0 1 .519.854l-15.815 10.139 15.3-8.832a.5.5 0 0 1 .511.859l-3.843 2.36 3.328-1.921a.5.5 0 0 1 .519.854l-15.847 10.167 15.328-8.85a.5.5 0 0 1 .517.855l-13.782 8.745 13.265-7.658a.5.5 0 0 1 .518.854l-14.429 9.185 13.911-8.031a.5.5 0 0 1 .514.857l-9.786 6.118 9.272-5.353a.5.5 0 0 1 .511.859l-3.216 1.978 2.7-1.561a.5.5 0 0 1 .512.858l-4.416 2.722 3.9-2.253a.5.5 0 0 1 .516.855l-11.752 7.4 11.245-6.49a.5.5 0 0 1 .518.854l-14.4 9.165 13.882-8.009a.5.5 0 0 1 .519.854l-15.047 9.6 14.528-8.386a.5.5 0 0 1 .513.857l-6.72 4.165 6.207-3.583a.5.5 0 0 1 .515.857l-10.616 6.654 10.1-5.831a.5.5 0 0 1 .51.859l-.446.274a.5.5 0 0 1 .453.886l-12.788 8.082 12.273-7.088a.5.5 0 0 1 .512.858l-4.263 2.63 3.751-2.165a.5.5 0 0 1 .518.854l-14.427 9.2 13.909-8.027a.5.5 0 0 1 .52.853l-15.185 9.791 14.665-8.466a.5.5 0 0 1 .522.851l-13.859 9 13.337-7.7a.5.5 0 0 1 .525.85l-12.223 8.071 11.7-6.753a.5.5 0 0 1 .527.849l-9.9 6.619 9.371-5.415a.5.5 0 0 1 .536.843l-9.113 6.357 8.577-4.951a.5.5 0 0 1 .543.838l-6.988 5.046 6.445-3.72a.5.5 0 0 1 .55.833l-4.8 3.593 4.251-2.453a.5.5 0 0 1 .562.822l-3.184 2.555 2.619-1.512a.5.5 0 0 1 .558.826l-.57.446a.5.5 0 0 1 .546.809l-1.129 1.2a.5.5 0 0 1 .152.923l-2.309 1.333a.5.5 0 0 1 -.614-.775l.833-.884-3.074 1.771a.5.5 0 0 1 -.558-.826l.536-.42-2.159 1.246a.5.5 0 0 1 -.563-.822l3.184-2.554-5.852 3.376a.5.5 0 0 1 -.55-.833l4.8-3.592-7.665 4.425a.5.5 0 0 1 -.543-.838l6.987-5.044-10.192 5.882a.5.5 0 0 1 -.537-.84l9.11-6.36-12.47 7.2a.5.5 0 0 1 -.25.071z" fill="#c0def4"></path><path d="m26.323 6.471a.5.5 0 0 1 -.347-.861l2.193-2.11-4.99 2.881a.5.5 0 0 1 -.608-.782l2.281-2.336-3.362 1.942a.5.5 0 0 1 -.612-.777l1.176-1.235-.774.447a.5.5 0 0 1 -.738-.545l.3-1.312a.493.493 0 0 1 -.248-.215.5.5 0 0 1 .186-.683l.5-.289a.509.509 0 0 1 .547.031.5.5 0 0 1 .19.515l-.242 1.058 2.787-1.609a.5.5 0 0 1 .612.777l-1.174 1.232 3.492-2.014a.5.5 0 0 1 .608.782l-2.28 2.332 5.411-3.12a.5.5 0 0 1 .6.793l-2.196 2.107 5.035-2.906a.5.5 0 0 1 .6.788l-2.259 2.238 5.252-3.032a.5.5 0 0 1 .605.785l-2.3 2.323 2.152-1.242a.5.5 0 0 1 .622.766l-.694.773a.5.5 0 0 1 .638.206.5.5 0 0 1 -.183.682l-2.667 1.539a.5.5 0 0 1 -.623-.766l.688-.767-2.657 1.533a.5.5 0 0 1 -.606-.784l2.3-2.323-5.384 3.107a.5.5 0 0 1 -.6-.788l2.26-2.237-5.242 3.025a.489.489 0 0 1 -.249.071z" fill="#4a4a59"></path><path d="m15.148 44.5a.5.5 0 0 1 -.263-.925l1.84-1.138-1.445.834a.5.5 0 0 1 -.525-.851l14.22-9.347-13.695 7.907a.5.5 0 0 1 -.529-.847l12.213-8.179-11.684 6.746a.5.5 0 0 1 -.52-.853l4.44-2.852-3.92 2.262a.5.5 0 0 1 -.523-.852l4.213-2.747-3.69 2.13a.5.5 0 0 1 -.531-.847l5.374-3.649-4.843 2.8a.5.5 0 0 1 -.527-.85l1.111-.736-.584.337a.5.5 0 0 1 -.541-.84l3.3-2.354-2.759 1.588a.5.5 0 0 1 -.571-.816l3.666-3.058-3.1 1.787a.5.5 0 0 1 -.624-.764l2.115-2.381-1.491.861a.5.5 0 0 1 -.739-.534l.321-1.543a.5.5 0 0 1 -.082-.9l.5-.289a.5.5 0 0 1 .739.534l-.273 1.311 3.2-1.849a.5.5 0 0 1 .623.764l-2.115 2.381 5.455-3.149a.5.5 0 0 1 .57.816l-3.669 3.061 6.721-3.88a.5.5 0 0 1 .541.84l-3.3 2.351 5.533-3.194a.5.5 0 0 1 .526.85l-1.12.742 2.762-1.594a.5.5 0 0 1 .532.847l-5.371 3.646 7.789-4.5a.5.5 0 0 1 .523.852l-4.212 2.746 6.237-3.6a.5.5 0 0 1 .521.854l-4.435 2.847 6.417-3.7a.5.5 0 0 1 .529.848l-12.198 8.176 15.634-9.027a.5.5 0 0 1 .525.851l-14.224 9.347 14.988-8.653a.5.5 0 0 1 .512.858l-1.824 1.124 1.314-.757a.5.5 0 0 1 .519.853l-8.859 5.684 8.342-4.816a.5.5 0 0 1 .521.853l-7.495 4.853 6.976-4.027a.5.5 0 0 1 .527.85l-7.244 4.8 6.72-3.88a.5.5 0 0 1 .525.85l-3.657 2.4 3.134-1.81a.5.5 0 0 1 .544.837l-6.865 4.987 6.324-3.651a.5.5 0 0 1 .53.848l-.451.3a.5.5 0 0 1 .468.872l-2.412 1.765 1.869-1.079a.5.5 0 0 1 .56.825l-1.768 1.391 1.211-.7a.5.5 0 0 1 .592.8l-1.306 1.223.716-.413a.5.5 0 0 1 .718.609l-.507 1.339a.511.511 0 0 1 .475.248.5.5 0 0 1 -.183.683l-.98.566a.5.5 0 0 1 -.718-.609l.48-1.269-3.26 1.882a.5.5 0 0 1 -.591-.8l1.306-1.223-3.507 2.026a.5.5 0 0 1 -.56-.825l1.769-1.392-3.843 2.219a.5.5 0 0 1 -.545-.836l2.415-1.766-4.514 2.6a.5.5 0 0 1 -.529-.848l.359-.241-1.89 1.091a.5.5 0 0 1 -.544-.837l6.866-4.987-10.1 5.828a.5.5 0 0 1 -.525-.851l3.65-2.393-5.624 3.247a.5.5 0 0 1 -.526-.85l7.243-4.8-9.781 5.658a.5.5 0 0 1 -.522-.853l7.5-4.856-9.892 5.712a.5.5 0 0 1 -.52-.854l8.856-5.68-11.322 6.537a.494.494 0 0 1 -.252.067z" fill="#71717c"></path><path d="m46.428 40.475a.5.5 0 0 1 -.489-.608l.324-1.473-2.983 1.721a.5.5 0 0 1 -.606-.783l1.376-1.4-.77.443a.5.5 0 0 1 -.653-.137.5.5 0 0 1 .065-.665l.58-.53a.5.5 0 0 1 -.6-.786l1.428-1.457-.819.473a.5.5 0 0 1 -.583-.806l.433-.387a.5.5 0 0 1 -.447-.849l1.035-1-.438.252a.5.5 0 0 1 -.608-.782l1.418-1.457-.81.467a.5.5 0 0 1 -.737-.543l.311-1.375a.5.5 0 0 1 -.074-.9l.507-.292a.507.507 0 0 1 .547.031.5.5 0 0 1 .19.513l-.254 1.131 2.944-1.7a.5.5 0 0 1 .608.782l-1.423 1.449.821-.474a.5.5 0 0 1 .6.792l-1.033 1 .44-.254a.5.5 0 0 1 .583.806l-.433.386a.5.5 0 0 1 .461.838l-1.427 1.464.823-.474a.5.5 0 0 1 .588.8l-.582.533a.5.5 0 0 1 .6.785l-1.374 1.4.771-.445a.5.5 0 0 1 .738.54l-.363 1.657a.494.494 0 0 1 .314.236.5.5 0 0 1 -.183.682l-.571.33a.5.5 0 0 1 -.245.066z" fill="#f1f3f5"></path><path d="m14.917 40.485a.5.5 0 0 1 -.423-.766l1-1.583-2.214 1.276a.5.5 0 0 1 -.619-.77l1.767-1.931-1.148.663a.5.5 0 0 1 -.613-.777l1.574-1.656-.961.554a.5.5 0 0 1 -.62-.768l1.792-1.972-1.172.676a.5.5 0 0 1 -.589-.8l.642-.593-.053.03a.5.5 0 0 1 -.607-.782l1-1.022-.4.227a.5.5 0 0 1 -.736-.553l.29-1.16a.491.491 0 0 1 -.237-.21.5.5 0 0 1 .183-.683l.507-.292a.5.5 0 0 1 .735.554l-.222.89 2.541-1.467a.5.5 0 0 1 .607.783l-1 1.022.778-.448a.5.5 0 0 1 .588.8l-.642.592.057-.032a.5.5 0 0 1 .62.769l-1.792 1.971 1.177-.678a.5.5 0 0 1 .612.777l-1.566 1.654.964-.556a.5.5 0 0 1 .618.77l-1.768 1.932 1.155-.666a.5.5 0 0 1 .673.7l-1 1.582.33-.189a.5.5 0 1 1 .5.865l-2.08 1.2a.494.494 0 0 1 -.248.067z" fill="#f1f3f5"></path><path d="m11.433 43.5a.5.5 0 0 1 -.328-.878l.616-.533-.442.255a.5.5 0 0 1 -.665-.711l.772-1.152a.492.492 0 0 1 -.5-.246.5.5 0 0 1 .183-.682l1.627-.94a.5.5 0 0 1 .666.711l-.719 1.076 3.124-1.8a.5.5 0 0 1 .577.81l-.616.533 1.915-1.1a.5.5 0 0 1 .635.751l-1.3 1.582 1.652-.953a.494.494 0 0 1 .534.021.5.5 0 0 1 .209.492l-.24 1.472a.5.5 0 0 1 .118.915l-.5.288a.5.5 0 0 1 -.751-.519l.209-1.284-3.136 1.81a.5.5 0 0 1 -.636-.751l1.3-1.581-4.062 2.345a.494.494 0 0 1 -.242.069z" fill="#bcc1cc"></path><path d="m15.748 29.471a.5.5 0 0 1 -.381-.825l1.333-1.566-3.838 2.22a.5.5 0 0 1 -.648-.736l1.426-1.868-2.214 1.278a.5.5 0 0 1 -.745-.5l.236-1.663a.5.5 0 0 1 -.137-.921l.5-.29a.5.5 0 0 1 .744.5l-.212 1.494 3.488-2.014a.5.5 0 0 1 .648.736l-1.426 1.868 4.2-2.422a.5.5 0 0 1 .631.757l-1.336 1.565.669-.386a.5.5 0 1 1 .5.865l-3.186 1.837a.5.5 0 0 1 -.252.071z" fill="#bcc1cc"></path><path d="m43.7 29.471a.5.5 0 0 1 -.317-.887l.119-.1-1.164.671a.5.5 0 0 1 -.58-.807l.442-.39-.671.387a.5.5 0 0 1 -.607-.783l.3-.308a.5.5 0 0 1 -.5-.068.5.5 0 0 1 -.173-.531l.254-.893a.5.5 0 0 1 -.024-.88l.5-.29a.506.506 0 0 1 .558.039.5.5 0 0 1 .173.531l-.164.58 2.006-1.159a.5.5 0 0 1 .608.782l-.292.3 1.889-1.09a.5.5 0 0 1 .58.808l-.445.391 2.092-1.207a.5.5 0 0 1 .567.82l-.119.1a.5.5 0 0 1 .658.709l-.85 1.344a.5.5 0 0 1 .378.916l-1.614.932a.5.5 0 0 1 -.673-.7l.83-1.313-3.512 2.025a.493.493 0 0 1 -.249.071z" fill="#bcc1cc"></path><path d="m42.981 43.492a.5.5 0 0 1 -.378-.826l1.49-1.73-2.814 1.624a.5.5 0 0 1 -.675-.7l.875-1.4a.5.5 0 0 1 -.406-.907l1.627-.94a.5.5 0 0 1 .675.7l-.864 1.385 3.634-2.1a.5.5 0 0 1 .628.758l-1.49 1.731 2.97-1.714a.5.5 0 0 1 .589.8l-.154.143a.5.5 0 0 1 .673.656l-.4.879a.49.49 0 0 1 .46.249.5.5 0 0 1 -.184.683l-1.084.625a.5.5 0 0 1 -.7-.639l.359-.793-2.5 1.442a.5.5 0 0 1 -.589-.8l.149-.138-1.64.946a.489.489 0 0 1 -.251.066z" fill="#bcc1cc"></path><path d="m9.751 48.5a.5.5 0 0 1 -.365-.842l2.35-2.511-2.457 1.416a.5.5 0 0 1 -.674-.7l.878-1.407a.5.5 0 0 1 -.591-.225.5.5 0 0 1 .183-.682l1.632-.943a.5.5 0 0 1 .674.7l-.867 1.394 3.636-2.1a.5.5 0 0 1 .615.774l-2.351 2.513 5.7-3.287a.5.5 0 0 1 .552.831l-.17.129 1.665-.961a.5.5 0 0 1 .6.785l-2.287 2.3 5.34-3.083a.5.5 0 0 1 .58.808l-1.855 1.631 4.224-2.44a.5.5 0 0 1 .593.8l-2.156 2.027 4.9-2.83a.5.5 0 0 1 .556.828l-.523.4 2.14-1.225a.5.5 0 0 1 .575.813l-1.66 1.416 3.862-2.229a.5.5 0 0 1 .569.817l-1.425 1.183 3.463-2a.5.5 0 0 1 .556.828l-.531.411 2.146-1.239a.5.5 0 0 1 .6.793l-2.186 2.1 5.006-2.893a.5.5 0 0 1 .615.773l-2.333 2.5 5.675-3.273a.5.5 0 0 1 .607.782l-2.29 2.339 4.484-2.588a.5.5 0 0 1 .58.808l-1.221 1.069 1.275-.736a.5.5 0 0 1 .6.787l-.578.579.065-.038a.5.5 0 0 1 .736.553l-.263 1.071a.491.491 0 0 1 .231.207.5.5 0 0 1 -.183.682l-.5.288a.5.5 0 0 1 -.735-.553l.2-.794-2.337 1.349a.5.5 0 0 1 -.6-.786l.58-.58-2.376 1.368a.5.5 0 0 1 -.58-.808l1.222-1.073-3.26 1.882a.5.5 0 0 1 -.607-.782l2.291-2.34-5.414 3.125a.5.5 0 0 1 -.615-.773l2.333-2.5-5.68 3.278a.5.5 0 0 1 -.6-.793l2.185-2.1-5.012 2.894a.5.5 0 0 1 -.556-.828l.534-.412-2.151 1.241a.5.5 0 0 1 -.57-.818l1.425-1.182-3.466 2a.5.5 0 0 1 -.575-.814l1.659-1.415-3.863 2.231a.5.5 0 0 1 -.556-.828l.522-.4-2.136 1.234a.5.5 0 0 1 -.594-.8l2.153-2.034-4.906 2.832a.5.5 0 0 1 -.581-.809l1.856-1.631-4.229 2.442a.5.5 0 0 1 -.6-.785l2.287-2.3-5.346 3.09a.5.5 0 0 1 -.55-.831l.176-.134-1.676.966a.491.491 0 0 1 -.249.068z" fill="#f1f3f5"></path><path d="m22.083 51.471a.5.5 0 0 1 -.324-.881l.453-.386-2.078 1.2a.5.5 0 0 1 -.641-.121.5.5 0 0 1 .025-.652l1.4-1.5-3.942 2.269a.494.494 0 0 1 -.656-.141.5.5 0 0 1 .08-.659l.683-.6-2.442 1.4a.5.5 0 0 1 -.617-.772l1.4-1.507-3.948 2.279a.5.5 0 0 1 -.633-.754l1.483-1.767-4.275 2.471a.5.5 0 0 1 -.618-.772l1.359-1.472-1.513.873a.5.5 0 0 1 -.646-.738l.59-.767a.5.5 0 0 1 -.15-.923l1.627-.94a.5.5 0 0 1 .647.738l-.389.506 2.179-1.255a.5.5 0 0 1 .617.771l-1.354 1.471 3.883-2.242a.5.5 0 0 1 .633.754l-1.483 1.767 4.367-2.521a.5.5 0 0 1 .616.772l-1.4 1.507 3.951-2.279a.5.5 0 0 1 .579.808l-.682.6 2.436-1.408a.5.5 0 0 1 .616.773l-1.4 1.5 3.944-2.273a.5.5 0 0 1 .575.813l-.453.386 2.077-1.2a.5.5 0 0 1 .652.731l-1.488 2 4.732-2.73a.5.5 0 0 1 .644.74l-1.499 1.917 4.608-2.66a.5.5 0 0 1 .582.806l-.745.66 2.543-1.463a.5.5 0 0 1 .637.749l-1.491 1.826 4.46-2.575a.5.5 0 0 1 .632.756l-1.482 1.744 4.342-2.5a.5.5 0 0 1 .632.756l-1.481 1.744 4.343-2.5a.5.5 0 0 1 .615.775l-1.382 1.47 3.3-1.905a.5.5 0 0 1 .622.1.5.5 0 0 1 .034.628l-1.233 1.706 1.47-.848a.5.5 0 0 1 .67.7l-.349.539a.5.5 0 0 1 .126.918l-1.253.717a.5.5 0 0 1 -.67-.7l.178-.275-1.7.979a.5.5 0 0 1 -.655-.725l1.233-1.706-4.209 2.427a.5.5 0 0 1 -.614-.775l1.381-1.469-3.89 2.244a.5.5 0 0 1 -.632-.756l1.478-1.744-4.34 2.5a.5.5 0 0 1 -.632-.756l1.482-1.744-4.342 2.5a.5.5 0 0 1 -.637-.749l1.491-1.826-4.46 2.575a.5.5 0 0 1 -.582-.806l.744-.659-2.539 1.465a.5.5 0 0 1 -.644-.74l1.495-1.92-4.607 2.66a.5.5 0 0 1 -.652-.731l1.488-2-4.732 2.731a.5.5 0 0 1 -.25.071z" fill="#bcc1cc"></path><path d="m20.084 22.5a.5.5 0 0 1 -.287-.91l4.929-3.447-6.446 3.718a.5.5 0 0 1 -.524-.85l.531-.349h-.007a.5.5 0 0 1 -.549-.833l6.365-4.75-5.816 3.361a.5.5 0 0 1 -.65-.733l1.424-1.894-.774.447a.5.5 0 1 1 -.5-.865l2.9-1.672a.5.5 0 0 1 .65.733l-1.43 1.894 11.059-6.384a.5.5 0 0 1 .549.833l-6.366 4.751 7.93-4.578a.5.5 0 0 1 .525.85l-.531.348 1.141-.658a.5.5 0 0 1 .536.842l-4.93 3.446 6.059-3.5a.5.5 0 0 1 .542.838l-4.814 3.479 6.027-3.479a.5.5 0 0 1 .541.839l-3.449 2.469 4.456-2.572a.5.5 0 0 1 .566.82l-4.6 3.747 6.159-3.554a.5.5 0 0 1 .553.831l-2.444 1.853 2.319-1.338a.5.5 0 0 1 .548.834l-.4.3a.506.506 0 0 1 .5.18.5.5 0 0 1 -.032.654l-1.524 1.589.919-.53a.5.5 0 0 1 .74.538l-.3 1.415a.5.5 0 0 1 .075.9l-.5.289a.5.5 0 0 1 -.739-.538l.254-1.177-2.978 1.719a.5.5 0 0 1 -.611-.778l1.52-1.588-4.107 2.371a.5.5 0 0 1 -.549-.834l.249-.184-1.77 1.021a.5.5 0 0 1 -.553-.831l2.443-1.854-4.658 2.689a.5.5 0 0 1 -.565-.82l4.595-3.746-7.918 4.571a.5.5 0 0 1 -.541-.839l3.449-2.47-5.736 3.312a.5.5 0 0 1 -.543-.838l4.82-3.476-7.483 4.318a.488.488 0 0 1 -.249.07z" fill="#f1f3f5"></path><path d="m31.814 25.471a.5.5 0 0 1 -.317-.887l.075-.062-1.526.881a.5.5 0 0 1 -.649-.734l1.492-1.969-4.689 2.7a.5.5 0 0 1 -.612-.778l1.351-1.411-3.793 2.189a.5.5 0 0 1 -.6-.786l1.249-1.247-3.525 2.033a.5.5 0 0 1 -.57-.816l.253-.211-1.781 1.027a.5.5 0 0 1 -.587-.8l.921-.842-2.847 1.642a.5.5 0 0 1 -.578-.809l.629-.548-2.352 1.357a.5.5 0 0 1 -.634-.753l1.486-1.776-4.248 2.454a.5.5 0 0 1 -.579-.809l.56-.49-.663.383a.5.5 0 0 1 -.579-.056.5.5 0 0 1 -.134-.567l.667-1.619a.5.5 0 0 1 -.369-.918l1.129-.649a.5.5 0 0 1 .712.623l-.655 1.589 3.832-2.212a.5.5 0 0 1 .579.809l-.561.49 2.252-1.3a.5.5 0 0 1 .634.753l-1.487 1.775 4.382-2.53a.5.5 0 0 1 .579.809l-.63.549 2.355-1.355a.5.5 0 0 1 .587.8l-.921.842 2.848-1.642a.5.5 0 0 1 .57.816l-.253.211 1.783-1.027a.5.5 0 0 1 .6.786l-1.25 1.244 3.522-2.03a.5.5 0 0 1 .611.778l-1.351 1.411 3.793-2.189a.5.5 0 0 1 .649.734l-1.491 1.974 4.69-2.708a.5.5 0 0 1 .567.819l-.074.061 1.525-.88a.5.5 0 0 1 .584.8l-.821.737 2.669-1.537a.5.5 0 0 1 .653.729l-1.487 2.012 4.748-2.741a.5.5 0 0 1 .629.758l-1.466 1.704 4.264-2.462a.5.5 0 0 1 .607.783l-1.3 1.326 3.009-1.737a.5.5 0 0 1 .663.716l-1.2 1.749.781-.451a.5.5 0 0 1 .5.866l-2.696 1.548a.5.5 0 0 1 -.662-.715l1.2-1.749-4.266 2.464a.5.5 0 0 1 -.646-.126.5.5 0 0 1 .038-.657l1.3-1.326-3.654 2.109a.5.5 0 0 1 -.629-.758l1.471-1.707-4.269 2.465a.5.5 0 0 1 -.652-.729l1.486-2.012-4.745 2.741a.5.5 0 0 1 -.584-.8l.82-.737-2.672 1.537a.493.493 0 0 1 -.25.071z" fill="#f1f3f5"></path><g fill="#262626"><path d="m8.887 51.558h3.374c-.008 1.164-.035 2.332 0 3.494a4.589 4.589 0 0 0 4.674 4.49c2.075.037 4.155 0 6.231 0 6.539 0 13.1.165 19.638 0a4.915 4.915 0 0 0 4.778-3.514 15.888 15.888 0 0 0 .161-4.412c1.28-.012 2.56-.024 3.838-.058h.044a.864.864 0 0 0 .314 0 .826.826 0 0 0 .34-.077 1.85 1.85 0 0 0 1.453-2.029 2.691 2.691 0 0 0 -1.548-2.8 2.623 2.623 0 0 0 -.454-.131 7.069 7.069 0 0 0 -.112-2.349 2.2 2.2 0 0 0 -1.9-1.45c0-.63.012-1.262 0-1.892a2.176 2.176 0 0 0 -1.99-2.108v-9.312a2.7 2.7 0 0 0 2-2.463c.012-.551 0-1.1 0-1.653.045 0 .078 0 .133-.012.959-.155 1.757-.524 1.855-1.57a4.46 4.46 0 0 0 -.214-2.525c-.437-.61-1.293-.493-1.949-.493h-1.823v-14.24c0-.62.031-1.251-.015-1.87a4.4 4.4 0 0 0 -3.44-3.938 20.555 20.555 0 0 0 -4.485-.122h-17.743c-1.577 0-3.156-.022-4.733 0a4.875 4.875 0 0 0 -5.044 4.934c-.03 5.067 0 10.134 0 15.2-.581 0-1.162.01-1.74.035a3.059 3.059 0 0 0 -1.61.429c-.813.546-.644 1.458-.644 2.319 0 1.22.4 1.83 1.623 1.864.122 0 .245 0 .368.006v1.463a2.6 2.6 0 0 0 .911 2.188 2.373 2.373 0 0 0 1.1.477v9.467a3.6 3.6 0 0 0 -.61.231 2.343 2.343 0 0 0 -1.39 2.134v1.592a2.791 2.791 0 0 0 -1.771 1.337 4.974 4.974 0 0 0 -.25 2.386 2.765 2.765 0 0 0 -1.852 1.684c-.3.835-.33 2.3.4 2.916a3.168 3.168 0 0 0 2.082.372zm33.979 6.9c-2.23.031-4.463 0-6.693 0h-18.606a3.618 3.618 0 0 1 -3.785-2.97 21.273 21.273 0 0 1 -.061-3.93h17.347c5.061 0 10.137.1 15.205.077.063 2.813.411 6.77-3.407 6.823zm-25.142-19.718v-9.363a2.69 2.69 0 0 0 2.009-2.44c.012-.52 0-1.042 0-1.563 3.269-.023 6.538-.068 9.8-.068q5.364 0 10.727 0c-.025 1.3-.19 2.769.922 3.675a2.421 2.421 0 0 0 1.084.485v9.416a3.483 3.483 0 0 0 -.606.233 2.379 2.379 0 0 0 -1.384 2.157v1.412h-20.552c0-.618.012-1.236 0-1.852a2.152 2.152 0 0 0 -2-2.092zm-4-8.695v-.527h2.552v9.2h-2.336-.072-.144zm32.542 8.419h-2.532v-8.912h2.532zm2.01 4.22c-.238 0-.476 0-.713 0h-5.839v-1.406a2.195 2.195 0 0 1 .594-1.81 1.284 1.284 0 0 1 .114-.079.828.828 0 0 0 .5.147h4 .019a1.181 1.181 0 0 0 .187-.033c.02-.005.038-.006.058-.013s.024 0 .036-.008a2.021 2.021 0 0 1 1.039 1.829c.007.456.005.914.005 1.373zm-1.218-14.237h-3.2a3.181 3.181 0 0 1 -1.172-.089 1.63 1.63 0 0 1 -.948-1.611v-1.2h6.528v1.323c-.002.778-.329 1.554-1.208 1.577zm-9.718-22.737h-11.976c-.821 0-2.019.193-2.753-.266-1.157-.724-.987-2.591-.911-3.968h15.852.733c.056 1.167.331 4.124-.945 4.234zm-20.6-4.234c1.166-.079 2.361-.014 3.533 0v1.645a3.892 3.892 0 0 0 .311 2.145c.682 1.088 1.87 1.024 2.979 1.024h12.966c.038 0 .089 0 .135-.006h.02.021a2.681 2.681 0 0 0 .315-.037 2.764 2.764 0 0 0 2.7-2.49c.037-.758.019-1.523.008-2.286.928 0 1.855-.005 2.783.007 2.687.033 3.755 2.131 3.755 4.5v14.72h-3.531v-4.249c.592-.017 1.411-.574.827-.853l-1-.478a.63.63 0 0 0 -.278-.132l-9.919-4.739a7.947 7.947 0 0 0 -1.6-.684 3.672 3.672 0 0 0 -2.429.472l-6.133 2.929-5.516 2.636c-.879.42-.124 1.111.585.812v4.282h-.741c-.931 0-1.866-.018-2.8-.029v-13.465c-.001-2.306-.158-5.51 3.012-5.724zm1.988 14.644v-.4l9.213-4.4a9.942 9.942 0 0 1 1.5-.716 2.458 2.458 0 0 1 1.8.448l6.237 2.979 3.788 1.809v4.851h-22.538zm-9 6.438a5.345 5.345 0 0 0 -.117-1.252c.1-.071.523 0 .638 0h2.112c.211.256.776.213 1.113 0h3.9a.687.687 0 0 0 .545.139 1.646 1.646 0 0 0 .463-.139h22.97a.661.661 0 0 0 .6.245 1.122 1.122 0 0 0 .589-.245h3.827c.217.264.816.213 1.147-.018.566-.012 1.132-.02 1.69.018.452.031.8-.024 1.031.572a7.449 7.449 0 0 1 -.061 2.816h-.506a.708.708 0 0 0 -.6-.247h-8a1 1 0 0 0 -.589.247h-20.827a.719.719 0 0 0 -.585-.212h-8a1.073 1.073 0 0 0 -.561.212h-.007c-1-.241-.776-1.346-.776-2.136zm2.009 4.18v-1.22h6.534v1.362c0 .777-.317 1.578-1.2 1.6h-3.86c-.038 0-.075 0-.112 0a.484.484 0 0 1 -.063-.009 1.836 1.836 0 0 1 -.346-.09 1.686 1.686 0 0 1 -.957-1.643zm.581 12.717c.07-.063.161-.107.232-.166h.055 3.927a1.907 1.907 0 0 1 1.748 2.021v1.376h-4.88c-.558 0-1.12-.014-1.68 0v-1.4a2.241 2.241 0 0 1 .594-1.831zm-1.428 3.861c.122-.017.249-.022.376-.029h.932c.309.013.617.029.91.029h32.558c.238 0 .48-.006.72-.01h1.331c.24 0 .481 0 .719.01 1.78.106 1.864 1.7 1.847 3.123h-.3-35.276c-1.654 0-3.333-.073-4.992-.02-.043-1.168-.18-2.914 1.171-3.103zm-3.15 5.8c.047-.778.327-1.466 1.209-1.561.122-.013.25 0 .373 0 .841-.032 1.69 0 2.531 0h34.047a33.727 33.727 0 0 1 5.036 0 1.577 1.577 0 0 1 1.314 1.312c.035.182.144 1.518-.192 1.572h-42.621a4.267 4.267 0 0 1 -1.372 0c-.422-.2-.353-.932-.329-1.32z"></path><path d="m16.43 6.374a.52.52 0 0 0 .217.064.743.743 0 0 0 .266.007 1.24 1.24 0 0 0 .547-.19l.13-.1a.455.455 0 0 0 .138-.23v-1a.191.191 0 0 0 -.031-.166.227.227 0 0 0 -.127-.129.52.52 0 0 0 -.217-.064.743.743 0 0 0 -.266-.007 1.24 1.24 0 0 0 -.547.19l-.13.1a.455.455 0 0 0 -.138.23v1a.191.191 0 0 0 .031.166.227.227 0 0 0 .127.129z"></path><path d="m42.542 6.34a1.4 1.4 0 0 0 .535-.053 1.368 1.368 0 0 0 .49-.221l.1-.089a.192.192 0 0 0 .06-.171v-1c0-.1-.213-.139-.266-.146a1.4 1.4 0 0 0 -.535.053 1.368 1.368 0 0 0 -.49.221l-.1.089a.192.192 0 0 0 -.06.171v1c0 .1.213.139.266.146z"></path><path d="m36.475 54.724h-12a1.912 1.912 0 0 0 -1.024.276c-.2.143-.23.277.074.277h12a1.912 1.912 0 0 0 1.024-.277c.201-.142.23-.276-.074-.276z"></path><path d="m36.47 16.7h-12a1.785 1.785 0 0 0 -1.024.275c-.2.148-.229.315.084.315h12a1.79 1.79 0 0 0 1.025-.275c.194-.143.228-.315-.085-.315z"></path><path d="m29.329 34.348a2.009 2.009 0 0 1 1.444.546 1.839 1.839 0 0 1 .487 1.481c-.058.443-.329 1.094-.808 1.237-.55.165-1.2-.378-1.46-.806s-1.642.076-1.449.388a2.411 2.411 0 0 0 1.733 1.125v.875c0 .1.213.139.266.146a1.4 1.4 0 0 0 .535-.054 1.364 1.364 0 0 0 .489-.221l.1-.088a.192.192 0 0 0 .06-.171v-.6c.029-.009.059-.013.087-.023a2.553 2.553 0 0 0 1.91-2.485 2.265 2.265 0 0 0 -2.05-2.044 2.01 2.01 0 0 1 -1.444-.546 1.839 1.839 0 0 1 -.487-1.481 1.58 1.58 0 0 1 .729-1.19.789.789 0 0 0 .47.107 1.3 1.3 0 0 0 .286-.061 2.055 2.055 0 0 1 .783.713c.269.436 1.642-.076 1.449-.388a2.406 2.406 0 0 0 -1.722-1.123v-.735a.284.284 0 0 0 -.042-.206.308.308 0 0 0 -.136-.166.788.788 0 0 0 -.5-.118 1.024 1.024 0 0 0 -.544.2l-.126.119a.521.521 0 0 0 -.126.274v.747c-.025.007-.051.011-.076.02a2.553 2.553 0 0 0 -1.91 2.485 2.265 2.265 0 0 0 2.052 2.043z"></path></g></svg>