<!-- icon666.com - MILLIONS vector ICONS FREE --><svg viewBox="0 0 468 428.955" xmlns="http://www.w3.org/2000/svg"><g id="Calque_2" data-name="Calque 2"><g id="_16-_Strongbox" data-name="16- Strongbox"><path d="m466 69.052v251.61a58.191 58.191 0 0 1 -33.78 52.83l-104.04 48.08a58.285 58.285 0 0 1 -35.09 4.38l-243.58-45.47a58.207 58.207 0 0 1 -47.51-57.21v-247.01a58.17 58.17 0 0 1 48.96-57.45l100.09-16.08a57.8 57.8 0 0 1 11.31-.69l247.53 8.858a58.185 58.185 0 0 1 56.11 58.152z" fill="#a4a4f7"></path><path d="m311.33 93.892v332.55a57.9 57.9 0 0 1 -18.24-.49l-243.58-45.47a58.207 58.207 0 0 1 -47.51-57.21v-247.01a58.177 58.177 0 0 1 26.26-48.65l226.97 8.13a58.183 58.183 0 0 1 56.1 58.15z" fill="#c5c5ff"></path><path d="m249.971 190.772-.02-.009-43.012 2.281c-6.853-33.938-35.845-59.432-70.578-59.432a69.588 69.588 0 0 0 -32.754 8.164l-15.653-68.576c-64.446-38.8-61.848 24.56-61.848 24.56l48.148 72.64a77.3 77.3 0 0 0 .966 77.793l-64.92 54.631c-5.024 75.058 50.129 43.764 50.129 43.764l40.736-72.774a69.657 69.657 0 0 0 35.2 9.518c27.5 0 51.394-15.979 63.561-39.474l39.789 12.655c65.496-35.471 11.326-65.161 10.256-65.741z" fill="#a4a4f7"></path><path d="m226.76 205.242c0 41.34-32.29 74.86-72.12 74.86a69.794 69.794 0 0 1 -13.64-1.34c-33.32-6.61-58.49-37.02-58.49-73.52s25.17-66.91 58.49-73.52a69.794 69.794 0 0 1 13.64-1.34c39.83 0 72.12 33.518 72.12 74.86z" fill="#3e3e7a"></path><ellipse cx="141" cy="205.242" fill="#51518e" rx="58.49" ry="73.52"></ellipse><path d="m106.233 69.974c-64.445-38.804-61.847 24.555-61.847 24.555l61.647 93.005 24.338-11.821z" fill="#2c2c61"></path><path d="m111.564 229.758-82.984 69.835c-5.025 75.058 50.128 43.764 50.128 43.764l54.5-97.364z" fill="#2c2c61"></path><path d="m140.74 159.922h-42.567v90.644h40.966a27.265 27.265 0 0 0 16.5-5.476c7.77-5.9 17.177-17.5 17.177-39.111 0-16.979-4.859-28.1-10.095-35.142a27.34 27.34 0 0 0 -21.981-10.915z" fill="#3e3e7a"></path><ellipse cx="98.173" cy="205.244" fill="#51518e" rx="37.896" ry="45.322"></ellipse><path d="m257.99 253.282-103.35-32.87c-9.96-15.26 2.17-26.97 2.17-26.97l111.42-5.91.02.01c1.07.58 55.24 30.27-10.26 65.74z" fill="#2c2c61"></path><path d="m257.99 253.282c-34.65-49.21 10.24-65.75 10.24-65.75l.02.01c1.07.58 55.24 30.27-10.26 65.74z" fill="#3e3e7a"></path><path d="m409.963 8.9-247.536-8.861a60.148 60.148 0 0 0 -11.7.723l-100.081 16.074a59.938 59.938 0 0 0 -50.646 59.429v247.011a60.211 60.211 0 0 0 49.144 59.168l243.577 45.477a60.608 60.608 0 0 0 11.117 1.034 59.883 59.883 0 0 0 25.182-5.565l104.042-48.09a60.372 60.372 0 0 0 34.938-54.634v-251.612a59.977 59.977 0 0 0 -58.037-60.154zm54.037 311.766a56.361 56.361 0 0 1 -32.616 51.006l-104.042 48.087a55.888 55.888 0 0 1 -33.886 4.23l-243.578-45.476a56.212 56.212 0 0 1 -45.878-55.237v-247.011a55.955 55.955 0 0 1 47.28-55.48l100.083-16.074a56.239 56.239 0 0 1 10.921-.675l247.536 8.864a55.992 55.992 0 0 1 54.18 56.154z"></path><path d="m255.3 33.742-163.216-5.842a2 2 0 1 0 -.143 4l163.213 5.843a55.991 55.991 0 0 1 54.178 56.155v261.748a2 2 0 1 0 4 0v-261.752a59.976 59.976 0 0 0 -58.032-60.152z"></path><path d="m269.173 185.771c-.015-.008-.032-.01-.046-.017a2.029 2.029 0 0 0 -.44-.165c-.037-.008-.074-.009-.111-.016a1.978 1.978 0 0 0 -.377-.03c-.026 0-.051-.008-.076-.006l-41.312 2.189c-7.757-34.486-37.831-59.344-72.171-59.344a71.118 71.118 0 0 0 -31.374 7.212l-15.086-66.068a2.006 2.006 0 0 0 -.918-1.268c-21.595-13-38.329-16.166-49.741-9.4-16.021 9.488-15.173 34.688-15.129 35.756a2 2 0 0 0 .331 1.023l42.882 64.705c-15.857 6.261-27.328 24.017-27.328 44.9 0 20.476 11.023 37.951 26.4 44.529l-57.385 48.291a2 2 0 0 0 -.708 1.4c-1.684 25.152 3.162 41.484 14.397 48.538a26.7 26.7 0 0 0 14.406 3.848c12.22 0 23.646-6.372 24.31-6.748a2.005 2.005 0 0 0 .758-.763l39.752-71.025a72.047 72.047 0 0 0 34.433 8.788c26.805 0 51.379-14.927 64.543-39.062l38.2 12.152c.019.006.04 0 .059.009a2.028 2.028 0 0 0 .541.084h.008.009a1.98 1.98 0 0 0 .534-.081 1.71 1.71 0 0 0 .163-.063 1.969 1.969 0 0 0 .245-.095c22.166-12.007 33.389-24.822 33.356-38.087-.044-18.619-22.183-30.682-23.125-31.186zm-114.533-53.389c32.253 0 60.539 23.231 68.121 55.559l-22.732 1.2a77.015 77.015 0 0 0 -21.58-39.773 2 2 0 0 0 -2.8 2.858 73.01 73.01 0 0 1 20.342 37.129l-22.676 1.2a52.413 52.413 0 0 0 -8.991-20.925 29.467 29.467 0 0 0 -23.585-11.715h-12.374l-4.183-18.316a67.2 67.2 0 0 1 30.458-7.217zm-108.262-38.47c-.029-3.585.379-24.03 13.183-31.617 9.927-5.88 25.033-2.869 44.909 8.955l15.456 67.684 4.335 18.986h-26.1a33.886 33.886 0 0 0 -8.615 1.126zm15.9 111.332c0-20.166 11.477-37.158 26.962-41.963h.016a30.084 30.084 0 0 1 8.918-1.355c19.793 0 35.9 19.435 35.9 43.322 0 23.83-16.026 43.223-35.753 43.318h-.151c-.011 0-.022 0-.033 0a30.1 30.1 0 0 1 -8.906-1.36c-.043-.014-.084-.031-.127-.042-15.416-4.864-26.827-21.812-26.827-41.92zm14.972 136.633c-3.18 1.664-21.576 10.64-34.152 2.731-9.766-6.143-14-20.956-12.577-44.036l58.543-49.265a33.929 33.929 0 0 0 9.109 1.259h.146 28.92zm77.39-63.777a68.035 68.035 0 0 1 -32.479-8.278l9.661-17.262h7.318a29.468 29.468 0 0 0 17.71-5.878 43.126 43.126 0 0 0 14.15-18.969l20.852 6.632a73.145 73.145 0 0 1 -18.9 26.428 2 2 0 1 0 2.648 3 77.16 77.16 0 0 0 20.076-28.21l19.635 6.245c-12.556 22.447-35.589 36.292-60.671 36.292zm15.86-54.744c-.01 0-.019-.01-.03-.014s-.035-.007-.053-.013l-15.17-4.825a2 2 0 0 0 -1.213 3.812l13.146 4.184a39.172 39.172 0 0 1 -12.747 17 25.452 25.452 0 0 1 -15.293 5.064h-24.932c14.035-7.338 23.861-23.988 23.861-43.318s-9.831-35.986-23.87-43.322h26.541a25.444 25.444 0 0 1 20.374 10.1 48.139 48.139 0 0 1 8.165 18.752l-12.58.667a2 2 0 0 0 .212 3.994l102.51-5.437c-5.435 3.679-12.107 9.885-15.061 19.36-3.639 11.672-.652 25.212 8.832 40.3zm88.126 27.3c-10.421-15.316-13.952-28.792-10.454-40.066 4.053-13.059 16.573-19.354 19.922-20.83 3.85 2.285 20.185 12.833 20.212 27.222.016 11.373-9.972 22.697-29.685 33.673z"></path></g></g></svg>