<!-- icon666.com - MILLIONS vector ICONS FREE --><svg id="a" viewBox="0 0 30 30" xmlns="http://www.w3.org/2000/svg"><g fill="#1237a5"><path d="m15.41 12.905c-1.034 0-1.875.841-1.875 1.875s.841 1.875 1.875 1.875 1.875-.841 1.875-1.875-.841-1.875-1.875-1.875zm0 3c-.62 0-1.125-.505-1.125-1.125s.505-1.125 1.125-1.125 1.125.505 1.125 1.125-.505 1.125-1.125 1.125z"></path><path d="m20.793 10.075-.551.318c-.855-.886-2.251-1.664-3.457-1.969v-.644c0-.758-.617-1.375-1.375-1.375s-1.375.617-1.375 1.375v.643c-1.317.293-2.52.999-3.425 1.994l-.572-.33c-.319-.187-.692-.236-1.048-.138-.353.096-.649.324-.835.643s-.235.691-.137 1.048c.096.353.324.65.644.836l.568.328c-.203.649-.311 1.315-.311 1.977 0 .689.113 1.347.312 1.967l-.571.329c-.322.188-.552.488-.646.847-.093.353-.043.721.141 1.035.188.323.489.553.847.646.116.031.233.046.351.046.238 0 .474-.063.684-.186l.576-.332c.912.97 2.116 1.646 3.421 1.917v.731c0 .758.617 1.375 1.375 1.375s1.375-.617 1.375-1.375v-.649c.391-.09.803-.246 1.214-.433.526-.717 1.185-1.387 1.996-1.816l-.369-.37c-.172-.172-.268-.389-.324-.616l-.495-.396c.269-.335.497-.701.659-1.105l.244.143c.162-.202.325-.403.511-.57l-.527-.309c.058-.285.089-.579.089-.881 0-.304-.032-.601-.091-.888l1.018-.587c.123.471.199.948.199 1.425 0 .249-.027.519-.065.793.321-.196.664-.358 1.039-.471.005-.105.026-.22.026-.322 0-.654-.101-1.308-.296-1.946l.555-.32c.648-.379.876-1.222.504-1.882-.378-.651-1.223-.879-1.881-.506zm-1.461.843-1.038.599c-.436-.386-.946-.68-1.509-.869v-1.175c.891.274 1.87.82 2.547 1.445zm-.297 3.862c0 2-1.626 3.625-3.625 3.625s-3.625-1.626-3.625-3.625 1.626-3.625 3.625-3.625 3.625 1.626 3.625 3.625zm-3.625-7.625c.345 0 .625.28.625.625v2.688c-.206-.03-.411-.063-.625-.063s-.419.033-.625.063v-2.688c0-.345.28-.625.625-.625zm-1.375 2.307v1.185c-.565.189-1.076.484-1.513.871l-1.016-.586c.695-.705 1.569-1.215 2.529-1.47zm-5.231 1.506c.165-.297.566-.411.858-.234l2.331 1.345c-.26.329-.482.686-.64 1.081l-2.315-1.335c-.303-.176-.408-.561-.235-.857zm1.116 3.811c0-.487.081-.975.212-1.458l.994.573c-.059.286-.09.581-.09.884 0 .3.031.593.089.876l-.996.575c-.126-.462-.208-.942-.208-1.45zm-.259 4.036c-.696.419-1.339-.698-.624-1.09l2.313-1.336c.157.395.378.754.637 1.083l-2.327 1.343zm1.855-.204.999-.576c.438.39.952.687 1.52.877v1.102c-.948-.236-1.82-.722-2.519-1.403zm3.894 3.793c-.345 0-.625-.28-.625-.625v-2.688c.206.03.411.063.625.063s.419-.033.625-.063v2.688c0 .345-.28.625-.625.625zm1.375-2.317v-1.176c.562-.188 1.07-.481 1.504-.865l.928.742c-.655.541-1.596 1.061-2.432 1.299zm5.008-8.273-2.327 1.342c-.159-.395-.381-.753-.642-1.081l2.341-1.35c.301-.169.688-.066.858.228.173.307.071.686-.229.861z"></path><path d="m15.42 3.78c-4.709 0-8.937 3.068-10.427 7.5h-1.083c-.827 0-1.5.673-1.5 1.5v4c0 .827.673 1.5 1.5 1.5h1.087c1.515 4.493 5.651 7.489 10.423 7.489.298 0 .663-.032.972-.061-.103-.321-.166-.652-.151-.991-.268.025-.571.052-.821.052-4.23 0-7.912-2.588-9.371-6.503.761-.071 1.361-.706 1.361-1.486v-4c0-.781-.602-1.417-1.365-1.486 1.441-3.865 5.202-6.514 9.375-6.514 5.514 0 10 4.486 10 10 0 1.559-.365 3.05-1.056 4.45.283.201.544.429.785.676.837-1.604 1.27-3.326 1.27-5.126 0-6.065-4.935-11-11-11zm-9.01 9v4c0 .275-.224.5-.5.5h-2c-.276 0-.5-.225-.5-.5v-4c0-.276.224-.5.5-.5h2c.276 0 .5.224.5.5z"></path><circle cx="4.91" cy="13.28" r=".5"></circle><path d="m4.91 15.78c-.28 0-.5.22-.5.5s.22.5.5.5.5-.22.5-.5-.22-.5-.5-.5z"></path></g><g fill="#4eb8ff"><path d="m21.915 21.593c.261.022.81.114.81.547 0 .207.168.375.375.375s.375-.168.375-.375c0-.643-.483-1.133-1.189-1.262v-.348c0-.207-.168-.375-.375-.375s-.375.168-.375.375v.353c-.633.121-1.184.544-1.19 1.257 0 .36.281 1.295 1.565 1.295.738 0 .81.423.814.546 0 .43-.526.546-.805.547-.3.035-.821-.111-.825-.55-.002-.206-.169-.372-.375-.372h-.003c-.207.002-.374.171-.372.378.007.711.558 1.133 1.19 1.254v.353c0 .207.168.375.375.375s.375-.168.375-.375v-.348c.706-.128 1.189-.619 1.189-1.261 0-.36-.281-1.296-1.564-1.296-.738 0-.811-.422-.815-.542.004-.436.535-.55.82-.55z"></path><path d="m7.839 4.445c-1.025-.252-1.59-.812-1.779-1.762-.044-.224-.234-.389-.461-.402-.24-.021-.436.129-.505.346-.301.94-.897 1.537-1.823 1.826-.206.064-.348.253-.351.469-.003.215.132.409.336.48.973.338 1.573.934 1.834 1.819.062.211.256.357.476.358h.003c.219 0 .413-.143.478-.352.244-.786.857-1.388 1.876-1.841.195-.087.314-.288.295-.501s-.171-.39-.379-.441zm-2.249 1.494c-.261-.396-.6-.729-1.014-1 .373-.245.687-.55.941-.917.255.408.601.738 1.037.988-.391.273-.713.583-.965.93z"></path><path d="m27.48 24.053c-.055-.193-1.185-4.012-3.838-5.255.45-1.497.428-2.75-.105-3.71-.095-.17-.286-.277-.474-.256-1.549.112-2.752.773-3.577 1.968-.368.543-.31 1.264.141 1.714l.369.37c-2.519 1.331-3.593 4.982-3.647 5.171-.248.877-.075 1.796.475 2.522.549.727 1.387 1.143 2.297 1.143h5.59c.91 0 1.748-.416 2.297-1.143.55-.727.723-1.646.474-2.524zm-7.169-6.688c.591-.855 1.406-1.349 2.486-1.5.257.677.214 1.56-.101 2.616-.249-.049-.506-.08-.777-.08h-.01c-.308 0-.597.044-.877.107l-.699-.7c-.113-.113-.121-.297-.022-.442zm5.897 8.61c-.358.474-.904.745-1.499.745h-5.59c-.595 0-1.141-.271-1.499-.745-.359-.475-.472-1.075-.311-1.646.015-.05 1.451-4.928 4.6-4.928h.01c3.148 0 4.585 4.878 4.599 4.926.162.573.05 1.174-.31 1.648z"></path></g></svg>